{
.appVersion = "1141";
DisplayStrings = (
V,
"  JOUR DES\012MORTS",
T,
JATTENTION,
F,
"",
"",
"/V_T_F  JOUR DES MORTS",
"",
"/V_T_F",
"¥",
"/Euro",
Xx,
"",
"",
"",
"/.notdef AÁÂÄÀÅÃÆBC/Cacute Ç/Ccircumflex DÐEÉÊËÈFGHI/IJ ÍÎÏÌJKL/Ldot/Lslash MNÑOÓÔÖÒØÕ/OE PÞQR/Racute STUÚÛÜÙ/Uring VW/Wacute/Wcircumflex/Wdieresis/Wgrave XYÝ/Ycircumflex/Ydieresis/Ygrave Zaáâäàåãæbcçdðeéêë/edotaccent èfghi/dotlessi íîïì/ij jkl/ldot/lslash mn/nacute ñoóôöòøõ/oe pþqr/racute sßtuúûüù/uring vw/wacute/wcircumflex/wdieresis/wgrave xyý/ycircumflex/ydieresis/ygrave z/r.ss01/racute.ss01/f_f/f_f_l/uni0066006C/Lambda/mu/pi 0123456789*/backslash/bullet :,/ellipsis !¡#.·?¿\"';//_/exclamdown.case/questiondown.case {}[]()/braceleft.case/braceright.case/bracketleft.case/bracketright.case/parenleft.case/parenright.case/emdash/endash -­/emdash.case/endash.case/hyphen.case/softhyphen.case «»/guilsinglleft/guilsinglright/quotedblbase/quotedblleft/quotedblright/quoteleft/quoteright/quotesinglbase/guillemotleft.case/guillemotright.case/guilsinglleft.case/guilsinglright.case   /uni2009 \015/florin ¢¤$/Euro £¥/approxequal ~÷/emptyset =>/greaterequal/infinity/integral </lessequal ¬/minus ×/notequal/partialdiff %/perthousand +±/product/radical/summation/lozenge &^@|¦©/dagger/daggerdbl °¶®§/trademark/at.case/dieresiscomb/dotaccentcomb/gravecomb/acutecomb/circumflexcomb/ringcomb/tildecomb/cedillacomb/dieresiscomb.case/dotaccentcomb.case/gravecomb.case/acutecomb.case/circumflexcomb.case/ringcomb.case/tildecomb.case/V_T_F",
"/dagger",
"/L_C",
"/L_C",
" ",
"",
"/L_C",
"/ringcomb.case",
"°",
"/ringcomb.case",
"¶",
"|",
"§"
);
classes = (
{
code = " A Aring Adieresis Agrave Atilde Acircumflex Aacute ";
name = KERN_LEFT_A;
},
{
code = "ecircumflex odieresis ograve c edieresis eacute ccedilla egrave e d oe o q ocircumflex oacute ";
name = KERN_RIGHT_c;
},
{
code = " icircumflex i idieresis iacute igrave ";
name = KERN_RIGHT_i;
},
{
code = " wgrave wcircumflex w wacute v wdieresis ";
name = KERN_LEFT_v;
},
{

glyphs = (
{
glyphname = .notdef;
layers = (
{
layerId = "ADA4184A-F967-4A63-B095-B719654E3BB1";
paths = (
{
closed = 1;
nodes = (
"49 493 LINE",
"49 0 LINE",
"450 0 LINE",
"450 493 LINE"
);
},
{
closed = 1;
nodes = (
"400 50 LINE",
"99 50 LINE",
"99 443 LINE",
"400 443 LINE"
);
},
{
closed = 1;
nodes = (
"331 269 LINE",
"260 269 LINE",
"309 386 LINE",
"307 386 LINE",
"168 227 LINE",
"239 227 LINE",
"190 110 LINE",
"192 110 LINE"
);
}
);
width = 500;
}
);
},
{
glyphname = A;
lastChange = "2018-11-01 17:41:36 +0000";
layers = (
{
anchors = (
{
name = bottom;
position = "{323, 0}";
},
{
name = ogonek;
position = "{581, 10}";
},
{
name = top;
position = "{295, 685}";
}
);
layerId = "ADA4184A-F967-4A63-B095-B719654E3BB1";
paths = (
{
closed = 1;
nodes = (
"389 217 LINE",
"436 84 LINE",
"350 0 LINE",
"640 0 LINE",
"572 89 LINE",
"357 685 LINE",
"216 685 LINE",
"265 567 LINE",
"94 85 LINE",
"5 0 LINE",
"210 0 LINE",
"124 80 LINE",
"172 217 LINE"
);
},
{
closed = 1;
nodes = (
"379 245 LINE",
"182 245 LINE",
"281 525 LINE"
);
}
);
width = 645;
}
);
leftKerningGroup = A;
rightKerningGroup = A;
unicode = 0041;
},
{
glyphname = AE;
lastChange = "2018-11-01 17:41:36 +0000";
layers = (
{
layerId = "ADA4184A-F967-4A63-B095-B719654E3BB1";
paths = (
{
closed = 1;
nodes = (
"885 217 LINE",
"880 219 LINE",
"736 36 LINE",
"563 36 LINE",
"563 332 LINE",
"836 332 LINE",
"836 372 LINE",
"563 372 LINE",
"563 649 LINE",
"727 649 LINE",
"849 475 LINE",
"855 475 LINE",
"855 685 LINE",
"517 685 LINE",
"518 686 LINE",
"320 686 LINE",
"397 625 LINE",
"75 85 LINE",
"0 0 LINE",
"209 0 LINE",
"126 76 LINE",
"207 214 LINE",
"433 214 LINE",
"433 106 LINE",
"373 0 LINE",
"874 0 LINE"
);
},
{
closed = 1;
nodes = (
"433 254 LINE",
"230 254 LINE",
"416 575 LINE",
"429 601 LINE",
"433 598 LINE"
);
}
);
width = 910;
}
);
leftKerningGroup = A;
unicode = 00C6;
},
{
glyphname = B;
lastChange = "2018-11-01 17:41:36 +0000";
layers = (
{
layerId = "ADA4184A-F967-4A63-B095-B719654E3BB1";
paths = (
{
closed = 1;
nodes = (
"40 685 LINE",
"115 600 LINE",
"115 85 LINE",
"40 0 LINE",
"256 0 LINE SMOOTH",
"456 0 OFFCURVE",
"565 75 OFFCURVE",
"565 196 CURVE SMOOTH",
"565 294 OFFCURVE",
"492 359 OFFCURVE",
"356 372 CURVE",
"453 391 OFFCURVE",
"525 448 OFFCURVE",
"525 533 CURVE SMOOTH",
"525 628 OFFCURVE",
"437 685 OFFCURVE",
"276 685 CURVE SMOOTH"
);
},
{
closed = 1;
nodes = (
"245 376 LINE",
"245 659 LINE",
"255 659 LINE SMOOTH",
"352 659 OFFCURVE",
"393 611 OFFCURVE",
"393 525 CURVE SMOOTH",
"393 447 OFFCURVE",
"357 376 OFFCURVE",
"255 376 CURVE SMOOTH"
);
},
{
closed = 1;
nodes = (
"245 26 LINE",
"245 351 LINE",
"271 351 LINE SMOOTH",
"383 351 OFFCURVE",
"431 294 OFFCURVE",
"431 196 CURVE SMOOTH",
"431 85 OFFCURVE",
"365 26 OFFCURVE",
"264 26 CURVE SMOOTH"
);
}
);
width = 600;
}
);
leftKerningGroup = B;
rightKerningGroup = B;
unicode = 0042;
},
{
glyphname = C;
lastChange = "2018-11-01 17:41:36 +0000";
layers = (
{
anchors = (
{
name = bottom;
position = "{325, 0}";
},
{
name = top;
position = "{325, 685}";
}
);
layerId = "ADA4184A-F967-4A63-B095-B719654E3BB1";
paths = (
{
closed = 1;
nodes = (
"525 454 LINE",
"525 685 LINE",
"389 685 LINE SMOOTH",
"182 685 OFFCURVE",
"35 531 OFFCURVE",
"35 310 CURVE SMOOTH",
"35 107 OFFCURVE",
"160 -12 OFFCURVE",
"325 -12 CURVE SMOOTH",
"446 -12 OFFCURVE",
"533 65 OFFCURVE",
"576 211 CURVE",
"565 216 LINE",
"525 141 OFFCURVE",
"452 95 OFFCURVE",
"373 95 CURVE SMOOTH",
"251 95 OFFCURVE",
"169 209 OFFCURVE",
"169 392 CURVE SMOOTH",
"169 549 OFFCURVE",
"235 654 OFFCURVE",
"333 654 CURVE SMOOTH",
"416 654 OFFCURVE",
"492 564 OFFCURVE",
"515 454 CURVE"
);
}
);
width = 611;
}
);
leftKerningGroup = C;
unicode = 0043;
},
{
glyphname = D;
lastChange = "2018-11-01 17:41:36 +0000";
layers = (
{
layerId = "ADA4184A-F967-4A63-B095-B719654E3BB1";
paths = (
{
closed = 1;
nodes = (
"40 0 LINE",
"251 0 LINE SMOOTH",
"504 0 OFFCURVE",
"651 139 OFFCURVE",
"651 351 CURVE SMOOTH",
"651 566 OFFCURVE",
"511 685 OFFCURVE",
"250 685 CURVE SMOOTH",
"40 685 LINE",
"115 600 LINE",
"115 85 LINE"
);
},
{
closed = 1;
nodes = (
"245 659 LINE",
"268 659 LINE SMOOTH",
"426 659 OFFCURVE",
"516 532 OFFCURVE",
"516 333 CURVE SMOOTH",
"516 138 OFFCURVE",
"422 26 OFFCURVE",
"271 26 CURVE SMOOTH",
"245 26 LINE"
);
}
);
width = 686;
}
);
leftKerningGroup = B;
rightKerningGroup = D;
unicode = 0044;
},
{
glyphname = Eth;
lastChange = "2018-10-31 15:41:34 +0000";
layers = (
{
components = (
{
name = D;
transform = "{1, 0, 0, 1, -2, 0}";
}
);
layerId = "ADA4184A-F967-4A63-B095-B719654E3BB1";
paths = (
{
closed = 1;
nodes = (
"25 321 LINE",
"344 321 LINE",
"344 351 LINE",
"25 351 LINE"
);
}
);
width = 684;
}
);
unicode = 00D0;
},
{
glyphname = E;
lastChange = "2018-11-01 17:41:36 +0000";
layers = (
{
anchors = (
{
name = bottom;
position = "{284, 0}";
},
{
name = ogonek;
position = "{510, 10}";
},
{
name = top;
position = "{284, 685}";
},
{
name = topleft;
position = "{20, 685}";
}
);
layerId = "ADA4184A-F967-4A63-B095-B719654E3BB1";
paths = (
{
closed = 1;
nodes = (
"516 0 LINE",
"527 243 LINE",
"520 245 LINE",
"393 26 LINE",
"245 26 LINE",
"245 337 LINE",
"478 337 LINE",
"478 363 LINE",
"245 363 LINE",
"245 659 LINE",
"384 659 LINE",
"490 451 LINE",
"497 451 LINE",
"497 685 LINE",
"40 685 LINE",
"115 600 LINE",
"115 85 LINE",
"40 0 LINE"
);
}
);
width = 567;
}
);
leftKerningGroup = B;
unicode = 0045;
},
{
glyphname = F;
lastChange = "2018-11-01 17:41:36 +0000";
layers = (
{
layerId = "ADA4184A-F967-4A63-B095-B719654E3BB1";
paths = (
{
closed = 1;
nodes = (
"115 85 LINE",
"40 0 LINE",
"345 0 LINE",
"245 85 LINE",
"245 337 LINE",
"470 337 LINE",
"470 363 LINE",
"245 363 LINE",
"245 659 LINE",
"386 659 LINE",
"490 457 LINE",
"497 457 LINE",
"497 685 LINE",
"40 685 LINE",
"115 600 LINE"
);
}
);
width = 537;
}
);
leftKerningGroup = B;
rightKerningGroup = F;
unicode = 0046;
},
{
glyphname = G;
lastChange = "2018-11-01 17:41:36 +0000";
layers = (
{
layerId = "ADA4184A-F967-4A63-B095-B719654E3BB1";
paths = (
{
closed = 1;
nodes = (
"525 457 LINE",
"525 685 LINE",
"389 685 LINE SMOOTH",
"182 685 OFFCURVE",
"35 531 OFFCURVE",
"35 310 CURVE SMOOTH",
"35 129 OFFCURVE",
"150 -12 OFFCURVE",
"306 -12 CURVE SMOOTH",
"383 -12 OFFCURVE",
"432 22 OFFCURVE",
"460 73 CURVE",
"566 -11 LINE",
"571 -11 LINE",
"571 275 LINE",
"624 346 LINE",
"624 350 LINE",
"368 350 LINE",
"368 345 LINE",
"443 275 LINE",
"443 110 LINE",
"425 96 OFFCURVE",
"401 90 OFFCURVE",
"372 90 CURVE SMOOTH",
"255 90 OFFCURVE",
"169 198 OFFCURVE",
"169 392 CURVE SMOOTH",
"169 545 OFFCURVE",
"233 648 OFFCURVE",
"328 648 CURVE SMOOTH",
"415 648 OFFCURVE",
"493 564 OFFCURVE",
"515 457 CURVE"
);
}
);
width = 648;
}
);
leftKerningGroup = C;
unicode = 0047;
},
{
glyphname = H;
lastChange = "2018-11-01 17:41:36 +0000";
layers = (
{
layerId = "ADA4184A-F967-4A63-B095-B719654E3BB1";
paths = (
{
closed = 1;
nodes = (
"701 0 LINE",
"626 85 LINE",
"626 599 LINE",
"701 685 LINE",
"421 685 LINE",
"496 600 LINE",
"496 364 LINE",
"235 364 LINE",
"235 600 LINE",
"310 685 LINE",
"30 685 LINE",
"105 600 LINE",
"105 85 LINE",
"30 0 LINE",
"310 0 LINE",
"235 85 LINE",
"235 336 LINE",
"496 336 LINE",
"496 85 LINE",
"421 0 LINE"
);
}
);
width = 741;
}
);
leftKerningGroup = B;
unicode = 0048;
},
{
glyphname = I;
lastChange = "2018-11-01 17:41:36 +0000";
layers = (
{
anchors = (
{
name = bottom;
position = "{179, 0}";
},
{
name = ogonek;
position = "{322, 10}";
},
{
name = top;
position = "{179, 685}";
},
{
name = topleft;
position = "{20, 685}";
}
);
layerId = "ADA4184A-F967-4A63-B095-B719654E3BB1";
paths = (
{
closed = 1;
nodes = (
"244 106 LINE",
"244 579 LINE",
"318 685 LINE",
"40 685 LINE",
"114 579 LINE",
"114 106 LINE",
"40 0 LINE",
"318 0 LINE"
);
}
);
width = 358;
}
);
leftKerningGroup = B;
unicode = 0049;
},
{
glyphname = J;
lastChange = "2018-10-31 15:41:34 +0000";
layers = (
{
layerId = "ADA4184A-F967-4A63-B095-B719654E3BB1";
paths = (
{
closed = 1;
nodes = (
"235 600 LINE",
"310 685 LINE",
"30 685 LINE",
"106 600 LINE",
"106 -48 LINE SMOOTH",
"106 -121 OFFCURVE",
"82 -143 OFFCURVE",
"61 -172 CURVE",
"68 -176 LINE",
"169 -140 OFFCURVE",
"235 -61 OFFCURVE",
"235 43 CURVE SMOOTH"
);
}
);
width = 340;
}
);
unicode = 004A;
},
{
glyphname = K;
lastChange = "2018-11-01 17:41:36 +0000";
layers = (
{
layerId = "ADA4184A-F967-4A63-B095-B719654E3BB1";
paths = (
{
closed = 1;
nodes = (
"405 453 LINE",
"511 596 LINE",
"627 686 LINE",
"425 686 LINE",
"488 613 LINE",
"245 303 LINE",
"245 601 LINE",
"320 686 LINE",
"40 686 LINE",
"115 601 LINE",
"115 85 LINE",
"40 0 LINE",
"320 0 LINE",
"245 85 LINE",
"245 256 LINE",
"304 332 LINE",
"421 71 LINE",
"386 0 LINE",
"676 0 LINE",
"572 81 LINE"
);
}
);
width = 688;
}
);
leftKerningGroup = B;
unicode = 004B;
},
{
glyphname = L;
lastChange = "2018-11-01 18:19:25 +0000";
layers = (
{
anchors = (
{
name = bottom;
position = "{277, 0}";
},
{
name = top;
position = "{277, 685}";
},
{
name = topright;
position = "{534, 685}";
}
);
layerId = "ADA4184A-F967-4A63-B095-B719654E3BB1";
paths = (
{
closed = 1;
nodes = (
"513 0 LINE",
"524 216 LINE",
"517 216 LINE",
"382 26 LINE",
"245 26 LINE",
"245 600 LINE",
"320 685 LINE",
"40 685 LINE",
"115 600 LINE",
"115 85 LINE",
"40 0 LINE"
);
}
);
width = 554;
}
);
leftKerningGroup = B;
rightKerningGroup = L;
unicode = 004C;
},
{
glyphname = M;
lastChange = "2018-10-31 15:41:34 +0000";
layers = (
{
layerId = "ADA4184A-F967-4A63-B095-B719654E3BB1";
paths = (
{
closed = 1;
nodes = (
"143 541 LINE",
"381 -12 LINE",
"389 -12 LINE",
"619 546 LINE",
"619 85 LINE",
"544 0 LINE",
"824 0 LINE",
"749 85 LINE",
"749 601 LINE",
"837 685 LINE",
"637 685 LINE",
"430 176 LINE",
"217 685 LINE",
"20 685 LINE",
"112 598 LINE",
"112 86 LINE",
"27 0 LINE",
"232 0 LINE",
"143 85 LINE"
);
}
);
width = 872;
}
);
unicode = 004D;
},
{
glyphname = N;
lastChange = "2018-11-01 17:41:36 +0000";
layers = (
{
anchors = (
{
name = bottom;
position = "{353, 0}";
},
{
name = top;
position = "{353, 685}";
}
);
layerId = "ADA4184A-F967-4A63-B095-B719654E3BB1";
paths = (
{
closed = 1;
nodes = (
"629 0 LINE",
"586 66 LINE",
"586 600 LINE",
"670 685 LINE",
"461 685 LINE",
"556 600 LINE",
"556 101 LINE",
"188 685 LINE",
"24 685 LINE",
"119 548 LINE",
"119 85 LINE",
"37 0 LINE",
"242 0 LINE",
"149 84 LINE",
"149 500 LINE",
"468 0 LINE"
);
}
);
width = 705;
}
);
leftKerningGroup = B;
unicode = 004E;
},
{
glyphname = O;
lastChange = "2018-11-01 17:41:36 +0000";
layers = (
{
anchors = (
{
name = bottom;
position = "{337, 0}";
},
{
name = center;
position = "{337, 343}";
},
{
name = ogonek;
position = "{606, 10}";
},
{
name = top;
position = "{337, 685}";
},
{
name = topleft;
position = "{20, 685}";
},
{
name = topright;
position = "{653, 685}";
}
);
layerId = "ADA4184A-F967-4A63-B095-B719654E3BB1";
paths = (
{
closed = 1;
nodes = (
"508 -12 OFFCURVE",
"638 127 OFFCURVE",
"638 362 CURVE SMOOTH",
"638 550 OFFCURVE",
"507 698 OFFCURVE",
"344 698 CURVE SMOOTH",
"167 698 OFFCURVE",
"35 556 OFFCURVE",
"35 321 CURVE SMOOTH",
"35 133 OFFCURVE",
"163 -12 OFFCURVE",
"335 -12 CURVE SMOOTH"
);
},
{
closed = 1;
nodes = (
"413 666 OFFCURVE",
"499 509 OFFCURVE",
"499 297 CURVE SMOOTH",
"499 96 OFFCURVE",
"452 18 OFFCURVE",
"373 18 CURVE SMOOTH",
"261 18 OFFCURVE",
"175 174 OFFCURVE",
"175 386 CURVE SMOOTH",
"175 588 OFFCURVE",
"222 666 OFFCURVE",
"307 666 CURVE SMOOTH"
);
}
);
width = 673;
}
);
leftKerningGroup = C;
rightKerningGroup = D;
unicode = 004F;
},
{
glyphname = Oslash;
lastChange = "2018-11-01 16:30:05 +0000";
layers = (
{
anchors = (
{
name = bottom;
position = "{332, 0}";
},
{
name = center;
position = "{332, 343}";
},
{
name = ogonek;
position = "{601, 10}";
},
{
name = top;
position = "{332, 685}";
},
{
name = topleft;
position = "{15, 685}";
},
{
name = topright;
position = "{648, 685}";
}
);
layerId = "ADA4184A-F967-4A63-B095-B719654E3BB1";
paths = (
{
closed = 1;
nodes = (
"503 -12 OFFCURVE",
"633 127 OFFCURVE",
"633 362 CURVE SMOOTH",
"633 550 OFFCURVE",
"502 698 OFFCURVE",
"339 698 CURVE SMOOTH",
"162 698 OFFCURVE",
"30 556 OFFCURVE",
"30 321 CURVE SMOOTH",
"30 133 OFFCURVE",
"158 -12 OFFCURVE",
"330 -12 CURVE SMOOTH"
);
},
{
closed = 1;
nodes = (
"408 666 OFFCURVE",
"494 509 OFFCURVE",
"494 297 CURVE SMOOTH",
"494 96 OFFCURVE",
"447 18 OFFCURVE",
"368 18 CURVE SMOOTH",
"256 18 OFFCURVE",
"170 174 OFFCURVE",
"170 386 CURVE SMOOTH",
"170 588 OFFCURVE",
"217 666 OFFCURVE",
"302 666 CURVE SMOOTH"
);
},
{
closed = 1;
nodes = (
"125 0 LINE",
"160 0 LINE",
"472 695 LINE",
"437 695 LINE"
);
}
);
width = 663;
}
);
unicode = 00D8;
},
{
glyphname = OE;
lastChange = "2018-11-01 17:41:36 +0000";
layers = (
{
layerId = "ADA4184A-F967-4A63-B095-B719654E3BB1";
paths = (
{
closed = 1;
nodes = (
"823 685 LINE",
"435 685 LINE SMOOTH",
"181 685 OFFCURVE",
"35 546 OFFCURVE",
"35 334 CURVE SMOOTH",
"35 135 OFFCURVE",
"175 0 OFFCURVE",
"436 0 CURVE SMOOTH",
"842 0 LINE",
"853 243 LINE",
"845 245 LINE",
"720 26 LINE",
"571 26 LINE",
"571 337 LINE",
"804 337 LINE",
"804 363 LINE",
"571 363 LINE",
"571 659 LINE",
"711 659 LINE",
"815 451 LINE",
"823 451 LINE"
);
},
{
closed = 1;
nodes = (
"441 26 LINE",
"418 26 LINE SMOOTH",
"271 26 OFFCURVE",
"170 153 OFFCURVE",
"170 352 CURVE SMOOTH",
"170 547 OFFCURVE",
"264 659 OFFCURVE",
"415 659 CURVE SMOOTH",
"441 659 LINE"
);
}
);
width = 893;
}
);
leftKerningGroup = C;
unicode = 0152;
},
{
glyphname = P;
lastChange = "2018-11-01 17:41:36 +0000";
layers = (
{
layerId = "ADA4184A-F967-4A63-B095-B719654E3BB1";
paths = (
{
closed = 1;
nodes = (
"115 85 LINE",
"40 0 LINE",
"335 0 LINE",
"245 85 LINE",
"245 290 LINE",
"430 290 OFFCURVE",
"539 380 OFFCURVE",
"539 502 CURVE SMOOTH",
"539 617 OFFCURVE",
"436 685 OFFCURVE",
"251 685 CURVE SMOOTH",
"40 685 LINE",
"115 600 LINE"
);
},
{
closed = 1;
nodes = (
"245 316 LINE",
"245 659 LINE",
"332 659 OFFCURVE",
"397 606 OFFCURVE",
"397 496 CURVE SMOOTH",
"397 391 OFFCURVE",
"337 316 OFFCURVE",
"256 316 CURVE SMOOTH"
);
}
);
width = 569;
}
);
leftKerningGroup = B;
unicode = 0050;
},
{
glyphname = Thorn;
layers = (
{
layerId = "ADA4184A-F967-4A63-B095-B719654E3BB1";
paths = (
{
closed = 1;
nodes = (
"244 579 LINE",
"318 685 LINE",
"40 685 LINE",
"114 579 LINE",
"114 106 LINE",
"40 0 LINE",
"334 0 LINE",
"244 106 LINE",
"244 163 LINE",
"267 163 OFFCURVE",
"304 165 OFFCURVE",
"336 170 CURVE SMOOTH",
"441 183 OFFCURVE",
"558 252 OFFCURVE",
"558 375 CURVE SMOOTH",
"558 541 OFFCURVE",
"351 558 OFFCURVE",
"280 558 CURVE SMOOTH",
"244 558 LINE"
);
},
{
closed = 1;
nodes = (
"351 528 OFFCURVE",
"416 475 OFFCURVE",
"416 363 CURVE SMOOTH",
"416 251 OFFCURVE",
"353 197 OFFCURVE",
"244 197 CURVE",
"244 528 LINE"
);
}
);
width = 605;
}
);
unicode = 00DE;
},
{
glyphname = Q;
lastChange = "2018-11-01 17:41:36 +0000";
layers = (
{
layerId = "ADA4184A-F967-4A63-B095-B719654E3BB1";
paths = (
{
closed = 1;
nodes = (
"358 -12 LINE",
"423 -60 OFFCURVE",
"471 -92 OFFCURVE",
"541 -125 CURVE",
"545 -119 LINE",
"498 46 LINE",
"577 108 OFFCURVE",
"638 217 OFFCURVE",
"638 362 CURVE SMOOTH",
"638 550 OFFCURVE",
"507 698 OFFCURVE",
"341 698 CURVE SMOOTH",
"167 698 OFFCURVE",
"35 556 OFFCURVE",
"35 321 CURVE SMOOTH",
"35 133 OFFCURVE",
"167 -12 OFFCURVE",
"347 -12 CURVE SMOOTH"
);
},
{
closed = 1;
nodes = (
"413 666 OFFCURVE",
"499 509 OFFCURVE",
"499 297 CURVE SMOOTH",
"499 95 OFFCURVE",
"452 17 OFFCURVE",
"369 17 CURVE SMOOTH",
"261 17 OFFCURVE",
"175 174 OFFCURVE",
"175 386 CURVE SMOOTH",
"175 588 OFFCURVE",
"222 666 OFFCURVE",
"304 666 CURVE SMOOTH"
);
}
);
width = 673;
}
);
leftKerningGroup = C;
rightKerningGroup = D;
unicode = 0051;
},
{
glyphname = R;
lastChange = "2018-11-01 18:13:40 +0000";
layers = (
{
anchors = (
{
name = bottom;
position = "{319, 0}";
},
{
name = top;
position = "{319, 685}";
}
);
layerId = "ADA4184A-F967-4A63-B095-B719654E3BB1";
paths = (
{
closed = 1;
nodes = (
"546 623 OFFCURVE",
"444 685 OFFCURVE",
"273 685 CURVE SMOOTH",
"40 685 LINE",
"114 584 LINE",
"114 85 LINE",
"40 0 LINE",
"318 0 LINE",
"244 85 LINE",
"244 329 LINE",
"258 329 OFFCURVE",
"271 329 OFFCURVE",
"284 330 CURVE",
"438 0 LINE",
"628 0 LINE",
"543 85 LINE",
"405 354 LINE",
"494 386 OFFCURVE",
"546 445 OFFCURVE",
"546 520 CURVE SMOOTH"
);
},
{
closed = 1;
nodes = (
"244 354 LINE",
"244 660 LINE",
"256 660 LINE SMOOTH",
"331 660 OFFCURVE",
"399 618 OFFCURVE",
"399 508 CURVE SMOOTH",
"399 411 OFFCURVE",
"331 354 OFFCURVE",
"256 354 CURVE SMOOTH"
);
}
);
width = 638;
}
);
leftKerningGroup = B;
rightKerningGroup = R;
unicode = 0052;
},
{
glyphname = S;
lastChange = "2018-10-31 15:41:34 +0000";
layers = (
{
layerId = "ADA4184A-F967-4A63-B095-B719654E3BB1";
paths = (
{
closed = 1;
nodes = (
"37 294 LINE",
"49 28 LINE",
"98 6 OFFCURVE",
"170 -8 OFFCURVE",
"232 -8 CURVE SMOOTH",
"362 -8 OFFCURVE",
"455 68 OFFCURVE",
"455 184 CURVE SMOOTH",
"455 409 OFFCURVE",
"138 379 OFFCURVE",
"138 571 CURVE SMOOTH",
"138 626 OFFCURVE",
"166 657 OFFCURVE",
"211 657 CURVE SMOOTH",
"285 657 OFFCURVE",
"363 579 OFFCURVE",
"398 459 CURVE",
"408 459 LINE",
"408 700 LINE",
"360 685 LINE",
"237 685 LINE SMOOTH",
"122 685 OFFCURVE",
"35 623 OFFCURVE",
"35 509 CURVE SMOOTH",
"35 274 OFFCURVE",
"345 315 OFFCURVE",
"345 125 CURVE SMOOTH",
"345 60 OFFCURVE",
"307 20 OFFCURVE",
"246 20 CURVE SMOOTH",
"154 20 OFFCURVE",
"101 137 OFFCURVE",
"47 294 CURVE"
);
}
);
width = 495;
}
);
unicode = 0053;
},
{
glyphname = T;
lastChange = "2018-11-01 17:41:36 +0000";
layers = (
{
layerId = "ADA4184A-F967-4A63-B095-B719654E3BB1";
paths = (
{
closed = 1;
nodes = (
"19 685 LINE",
"19 440 LINE",
"26 439 LINE",
"145 659 LINE",
"230 659 LINE",
"230 85 LINE",
"155 0 LINE",
"435 0 LINE",
"360 85 LINE",
"360 659 LINE",
"445 659 LINE",
"565 439 LINE",
"572 440 LINE",
"572 685 LINE"
);
}
);
width = 610;
}
);
leftKerningGroup = T;
rightKerningGroup = T;
unicode = 0054;
},
{
glyphname = U;
lastChange = "2018-11-01 17:41:36 +0000";
layers = (
{
anchors = (
{
name = bottom;
position = "{395, 0}";
},
{
name = ogonek;
position = "{636, 10}";
},
{
name = top;
position = "{395, 685}";
},
{
name = topright;
position = "{687, 685}";
}
);
layerId = "ADA4184A-F967-4A63-B095-B719654E3BB1";
paths = (
{
closed = 1;
nodes = (
"592 600 LINE",
"672 685 LINE",
"477 685 LINE",
"562 600 LINE",
"562 227 LINE SMOOTH",
"562 83 OFFCURVE",
"509 16 OFFCURVE",
"394 16 CURVE SMOOTH",
"298 16 OFFCURVE",
"246 92 OFFCURVE",
"246 229 CURVE SMOOTH",
"246 600 LINE",
"321 685 LINE",
"40 685 LINE",
"115 600 LINE",
"115 252 LINE SMOOTH",
"115 86 OFFCURVE",
"203 -15 OFFCURVE",
"367 -15 CURVE SMOOTH",
"518 -15 OFFCURVE",
"592 57 OFFCURVE",
"592 227 CURVE SMOOTH"
);
}
);
width = 707;
}
);
leftKerningGroup = U;
unicode = 0055;
},
{
glyphname = V;
lastChange = "2018-11-01 17:41:36 +0000";
layers = (
{
layerId = "ADA4184A-F967-4A63-B095-B719654E3BB1";
paths = (
{
closed = 1;
nodes = (
"322 -10 LINE",
"556 606 LINE",
"628 685 LINE",
"435 685 LINE",
"523 610 LINE",
"361 174 LINE",
"201 610 LINE",
"276 685 LINE",
"3 685 LINE",
"60 610 LINE",
"310 -10 LINE"
);
}
);
width = 633;
}
);
leftKerningGroup = V;
rightKerningGroup = V;
unicode = 0056;
},
{
glyphname = W;
lastChange = "2018-11-01 17:41:36 +0000";
layers = (
{
anchors = (
{
name = bottom;
position = "{471, 0}";
},
{
name = top;
position = "{471, 685}";
}
);
layerId = "ADA4184A-F967-4A63-B095-B719654E3BB1";
paths = (
{
closed = 1;
nodes = (
"328 -12 LINE",
"486 377 LINE",
"639 -12 LINE",
"651 -12 LINE",
"852 603 LINE",
"941 687 LINE",
"732 687 LINE",
"818 604 LINE",
"688 196 LINE",
"540 602 LINE",
"625 685 LINE",
"342 685 LINE",
"402 599 LINE",
"468 418 LINE",
"373 182 LINE",
"216 599 LINE",
"286 685 LINE",
"13 685 LINE",
"75 599 LINE",
"316 -12 LINE"
);
}
);
width = 942;
}
);
leftKerningGroup = V;
rightKerningGroup = V;
unicode = 0057;
},
{
glyphname = X;
lastChange = "2018-11-01 17:41:36 +0000";
layers = (
{
layerId = "ADA4184A-F967-4A63-B095-B719654E3BB1";
paths = (
{
closed = 1;
nodes = (
"679 0 LINE",
"583 84 LINE",
"387 381 LINE",
"538 604 LINE",
"642 685 LINE",
"397 685 LINE",
"498 607 LINE",
"367 411 LINE",
"241 601 LINE",
"328 685 LINE",
"12 685 LINE",
"108 601 LINE",
"275 336 LINE",
"114 85 LINE",
"4 0 LINE",
"251 0 LINE",
"152 80 LINE",
"294 305 LINE",
"435 82 LINE",
"339 0 LINE"
);
}
);
width = 679;
}
);
rightKerningGroup = X;
unicode = 0058;
},
{
glyphname = Y;
lastChange = "2018-11-01 17:41:36 +0000";
layers = (
{
anchors = (
{
name = bottom;
position = "{316, 0}";
},
{
name = top;
position = "{365, 685}";
},
{
name = topleft;
position = "{20, 685}";
}
);
layerId = "ADA4184A-F967-4A63-B095-B719654E3BB1";
paths = (
{
closed = 1;
nodes = (
"465 0 LINE",
"390 85 LINE",
"390 318 LINE",
"518 590 LINE",
"621 685 LINE",
"421 685 LINE",
"488 600 LINE",
"365 341 LINE",
"235 600 LINE",
"331 685 LINE",
"10 685 LINE",
"91 600 LINE",
"260 281 LINE",
"260 85 LINE",
"185 0 LINE"
);
}
);
width = 631;
}
);
leftKerningGroup = Y;
rightKerningGroup = Y;
unicode = 0059;
},
{
glyphname = Z;
lastChange = "2018-10-31 15:41:34 +0000";
layers = (
{
layerId = "ADA4184A-F967-4A63-B095-B719654E3BB1";
paths = (
{
closed = 1;
nodes = (
"506 -1 LINE",
"506 290 LINE",
"499 290 LINE",
"374 25 LINE",
"170 25 LINE",
"520 670 LINE",
"513 684 LINE",
"158 684 LINE",
"45 694 LINE",
"45 440 LINE",
"52 440 LINE",
"172 658 LINE",
"374 658 LINE",
"30 11 LINE",
"37 -1 LINE"
);
}
);
width = 565;
}
);
unicode = 005A;
},
{
glyphname = a;
lastChange = "2018-11-01 17:41:36 +0000";
layers = (
{
anchors = (
{
name = bottom;
position = "{216, 0}";
},
{
name = ogonek;
position = "{481, 10}";
},
{
name = top;
position = "{229, 490}";
}
);
layerId = "ADA4184A-F967-4A63-B095-B719654E3BB1";
paths = (
{
closed = 1;
nodes = (
"280 0 LINE",
"475 0 LINE",
"401 65 LINE",
"400 65 LINE",
"400 414 LINE",
"422 490 LINE",
"49 490 LINE",
"49 330 LINE",
"56 330 LINE",
"116 430 OFFCURVE",
"162 471 OFFCURVE",
"216 471 CURVE SMOOTH",
"265 471 OFFCURVE",
"280 438 OFFCURVE",
"280 320 CURVE",
"89 244 OFFCURVE",
"25 191 OFFCURVE",
"25 105 CURVE SMOOTH",
"25 37 OFFCURVE",
"64 -10 OFFCURVE",
"126 -10 CURVE SMOOTH",
"169 -10 OFFCURVE",
"206 12 OFFCURVE",
"280 84 CURVE"
);
},
{
closed = 1;
nodes = (
"280 108 LINE",
"248 75 OFFCURVE",
"229 69 OFFCURVE",
"210 69 CURVE SMOOTH",
"174 69 OFFCURVE",
"157 91 OFFCURVE",
"157 138 CURVE SMOOTH",
"157 202 OFFCURVE",
"189 254 OFFCURVE",
"280 299 CURVE"
);
}
);
width = 495;
}
);
leftKerningGroup = a;
unicode = 0061;
},
{
glyphname = ae;
lastChange = "2018-11-01 17:41:36 +0000";
layers = (
{
layerId = "ADA4184A-F967-4A63-B095-B719654E3BB1";
paths = (
{
closed = 1;
nodes = (
"355 52 LINE",
"475 0 LINE",
"401 65 LINE",
"400 65 LINE",
"352 391 LINE",
"422 490 LINE",
"49 490 LINE",
"49 330 LINE",
"56 330 LINE",
"116 430 OFFCURVE",
"162 471 OFFCURVE",
"216 471 CURVE SMOOTH",
"265 471 OFFCURVE",
"280 438 OFFCURVE",
"280 320 CURVE",
"89 244 OFFCURVE",
"25 191 OFFCURVE",
"25 105 CURVE SMOOTH",
"25 37 OFFCURVE",
"64 -10 OFFCURVE",
"126 -10 CURVE SMOOTH",
"169 -10 OFFCURVE",
"206 12 OFFCURVE",
"291 96 CURVE"
);
},
{
closed = 1;
nodes = (
"285 113 LINE",
"248 75 OFFCURVE",
"229 69 OFFCURVE",
"210 69 CURVE SMOOTH",
"174 69 OFFCURVE",
"157 91 OFFCURVE",
"157 138 CURVE SMOOTH",
"157 202 OFFCURVE",
"189 254 OFFCURVE",
"280 299 CURVE"
);
},
{
closed = 1;
nodes = (
"657 283 LINE",
"658 283 LINE",
"657 285 LINE",
"656 420 OFFCURVE",
"583 500 OFFCURVE",
"484 500 CURVE SMOOTH",
"341 500 OFFCURVE",
"268 352 OFFCURVE",
"268 223 CURVE SMOOTH",
"268 103 OFFCURVE",
"335 -14 OFFCURVE",
"446 -14 CURVE SMOOTH",
"545 -14 OFFCURVE",
"616 78 OFFCURVE",
"652 169 CURVE",
"637 175 LINE",
"622 133 OFFCURVE",
"562 99 OFFCURVE",
"514 99 CURVE SMOOTH",
"456 99 OFFCURVE",
"387 153 OFFCURVE",
"376 282 CURVE",
"657 282 LINE"
);
},
{
closed = 1;
nodes = (
"528 302 LINE",
"374 302 LINE",
"374 319 LINE SMOOTH",
"374 389 OFFCURVE",
"400 480 OFFCURVE",
"461 480 CURVE SMOOTH",
"490 480 OFFCURVE",
"528 438 OFFCURVE",
"528 321 CURVE SMOOTH"
);
}
);
width = 688;
}
);
leftKerningGroup = a;
unicode = 00E6;
},
{
glyphname = b;
lastChange = "2018-11-01 17:41:36 +0000";
layers = (
{
layerId = "ADA4184A-F967-4A63-B095-B719654E3BB1";
paths = (
{
closed = 1;
nodes = (
"208 710 LINE",
"20 653 LINE",
"88 576 LINE",
"88 -11 LINE",
"160 14 LINE",
"210 0 OFFCURVE",
"238 -9 OFFCURVE",
"281 -9 CURVE SMOOTH",
"464 -9 OFFCURVE",
"521 157 OFFCURVE",
"521 265 CURVE SMOOTH",
"521 388 OFFCURVE",
"447 500 OFFCURVE",
"341 500 CURVE SMOOTH",
"284 500 OFFCURVE",
"244 467 OFFCURVE",
"208 425 CURVE"
);
},
{
closed = 1;
nodes = (
"208 404 LINE",
"226 423 OFFCURVE",
"251 432 OFFCURVE",
"271 432 CURVE SMOOTH",
"341 432 OFFCURVE",
"403 324 OFFCURVE",
"403 174 CURVE SMOOTH",
"403 98 OFFCURVE",
"387 25 OFFCURVE",
"329 25 CURVE SMOOTH",
"284 25 OFFCURVE",
"237 70 OFFCURVE",
"208 103 CURVE"
);
}
);
width = 558;
}
);
rightKerningGroup = b;
unicode = 0062;
},
{
glyphname = c;
lastChange = "2018-11-01 17:41:36 +0000";
layers = (
{
anchors = (
{
name = bottom;
position = "{204, 0}";
},
{
name = top;
position = "{244, 490}";
}
);
layerId = "ADA4184A-F967-4A63-B095-B719654E3BB1";
paths = (
{
closed = 1;
nodes = (
"374 330 LINE",
"374 490 LINE",
"244 490 LINE SMOOTH",
"104 490 OFFCURVE",
"30 364 OFFCURVE",
"30 225 CURVE SMOOTH",
"30 77 OFFCURVE",
"115 -12 OFFCURVE",
"204 -12 CURVE SMOOTH",
"294 -12 OFFCURVE",
"368 77 OFFCURVE",
"398 193 CURVE",
"387 197 LINE",
"372 153 OFFCURVE",
"327 93 OFFCURVE",
"273 93 CURVE SMOOTH",
"205 93 OFFCURVE",
"145 180 OFFCURVE",
"145 316 CURVE SMOOTH",
"145 408 OFFCURVE",
"174 469 OFFCURVE",
"229 469 CURVE SMOOTH",
"277 469 OFFCURVE",
"328 424 OFFCURVE",
"367 330 CURVE"
);
}
);
width = 428;
}
);
leftKerningGroup = c;
unicode = 0063;
},
{
glyphname = d;
lastChange = "2018-11-01 17:41:36 +0000";
layers = (
{
layerId = "ADA4184A-F967-4A63-B095-B719654E3BB1";
paths = (
{
closed = 1;
nodes = (
"343 -9 LINE",
"537 0 LINE",
"463 70 LINE",
"463 710 LINE",
"275 653 LINE",
"343 576 LINE",
"343 490 LINE",
"279 490 LINE SMOOTH",
"139 490 OFFCURVE",
"35 380 OFFCURVE",
"35 225 CURVE SMOOTH",
"35 93 OFFCURVE",
"117 -10 OFFCURVE",
"210 -10 CURVE SMOOTH",
"265 -10 OFFCURVE",
"307 26 OFFCURVE",
"343 89 CURVE"
);
},
{
closed = 1;
nodes = (
"343 115 LINE",
"323 99 OFFCURVE",
"311 90 OFFCURVE",
"288 90 CURVE SMOOTH",
"215 90 OFFCURVE",
"154 181 OFFCURVE",
"154 316 CURVE SMOOTH",
"154 413 OFFCURVE",
"191 465 OFFCURVE",
"240 465 CURVE SMOOTH",
"273 465 OFFCURVE",
"308 441 OFFCURVE",
"343 404 CURVE"
);
}
);
width = 557;
}
);
leftKerningGroup = c;
unicode = 0064;
},
{
glyphname = eth;
layers = (
{
layerId = "ADA4184A-F967-4A63-B095-B719654E3BB1";
paths = (
{
closed = 1;
nodes = (
"424 727 LINE",
"307 660 LINE",
"287 681 OFFCURVE",
"268 700 OFFCURVE",
"251 717 CURVE",
"135 717 LINE",
"169 680 OFFCURVE",
"198 646 OFFCURVE",
"224 613 CURVE",
"131 559 LINE",
"131 525 LINE",
"248 582 LINE",
"267 555 OFFCURVE",
"285 529 OFFCURVE",
"300 502 CURVE",
"298 502 LINE SMOOTH",
"112 502 OFFCURVE",
"30 352 OFFCURVE",
"30 223 CURVE SMOOTH",
"30 103 OFFCURVE",
"100 -12 OFFCURVE",
"242 -12 CURVE SMOOTH",
"428 -12 OFFCURVE",
"510 138 OFFCURVE",
"510 267 CURVE SMOOTH",
"510 401 OFFCURVE",
"423 529 OFFCURVE",
"338 626 CURVE",
"426 669 LINE"
);
},
{
closed = 1;
nodes = (
"332 464 OFFCURVE",
"385 332 OFFCURVE",
"385 176 CURVE SMOOTH",
"385 124 OFFCURVE",
"371 26 OFFCURVE",
"297 26 CURVE SMOOTH",
"209 26 OFFCURVE",
"157 158 OFFCURVE",
"157 314 CURVE SMOOTH",
"157 374 OFFCURVE",
"161 464 OFFCURVE",
"244 464 CURVE SMOOTH"
);
}
);
width = 540;
}
);
unicode = 00F0;
},
{
glyphname = e;
lastChange = "2018-11-01 17:41:36 +0000";
layers = (
{
anchors = (
{
name = bottom;
position = "{210, 0}";
},
{
name = ogonek;
position = "{407, 10}";
},
{
name = top;
position = "{228, 490}";
}
);
layerId = "ADA4184A-F967-4A63-B095-B719654E3BB1";
paths = (
{
closed = 1;
nodes = (
"421 283 LINE",
"422 283 LINE",
"421 285 LINE",
"420 420 OFFCURVE",
"347 500 OFFCURVE",
"248 500 CURVE SMOOTH",
"105 500 OFFCURVE",
"25 352 OFFCURVE",
"25 223 CURVE SMOOTH",
"25 103 OFFCURVE",
"99 -14 OFFCURVE",
"210 -14 CURVE SMOOTH",
"309 -14 OFFCURVE",
"380 78 OFFCURVE",
"416 169 CURVE",
"401 175 LINE",
"386 133 OFFCURVE",
"326 99 OFFCURVE",
"278 99 CURVE SMOOTH",
"220 99 OFFCURVE",
"151 153 OFFCURVE",
"140 282 CURVE",
"421 282 LINE"
);
},
{
closed = 1;
nodes = (
"292 302 LINE",
"138 302 LINE",
"138 319 LINE SMOOTH",
"138 389 OFFCURVE",
"164 480 OFFCURVE",
"225 480 CURVE SMOOTH",
"254 480 OFFCURVE",
"292 438 OFFCURVE",
"292 321 CURVE SMOOTH"
);
}
);
width = 452;
}
);
leftKerningGroup = c;
rightKerningGroup = b;
unicode = 0065;
},
{
glyphname = f;
lastChange = "2018-11-01 17:41:36 +0000";
layers = (
{
layerId = "ADA4184A-F967-4A63-B095-B719654E3BB1";
paths = (
{
closed = 1;
nodes = (
"387 694 LINE",
"287 694 LINE SMOOTH",
"163 694 OFFCURVE",
"101 586 OFFCURVE",
"90 490 CURVE",
"37 490 LINE",
"37 489 LINE",
"89 452 LINE",
"89 75 LINE",
"15 0 LINE",
"300 0 LINE",
"209 75 LINE",
"209 461 LINE",
"339 461 LINE",
"361 491 LINE",
"209 490 LINE",
"199 516 OFFCURVE",
"191 549 OFFCURVE",
"191 579 CURVE SMOOTH",
"191 633 OFFCURVE",
"209 670 OFFCURVE",
"248 670 CURVE SMOOTH",
"302 670 OFFCURVE",
"351 598 OFFCURVE",
"380 544 CURVE",
"387 544 LINE"
);
}
);
width = 347;
}
);
rightKerningGroup = f;
unicode = 0066;
},
{
glyphname = g;
lastChange = "2018-11-01 17:41:36 +0000";
layers = (
{
layerId = "ADA4184A-F967-4A63-B095-B719654E3BB1";
paths = (
{
closed = 1;
nodes = (
"429 589 LINE",
"302 497 LINE",
"293 500 OFFCURVE",
"286 502 OFFCURVE",
"259 502 CURVE SMOOTH",
"141 502 OFFCURVE",
"45 419 OFFCURVE",
"45 313 CURVE SMOOTH",
"45 248 OFFCURVE",
"82 195 OFFCURVE",
"143 170 CURVE",
"76 135 OFFCURVE",
"45 93 OFFCURVE",
"45 53 CURVE SMOOTH",
"45 16 OFFCURVE",
"71 -14 OFFCURVE",
"105 -28 CURVE",
"51 -51 OFFCURVE",
"20 -76 OFFCURVE",
"20 -119 CURVE SMOOTH",
"20 -182 OFFCURVE",
"95 -232 OFFCURVE",
"210 -232 CURVE SMOOTH",
"363 -232 OFFCURVE",
"455 -128 OFFCURVE",
"455 -11 CURVE SMOOTH",
"455 26 OFFCURVE",
"446 48 OFFCURVE",
"432 71 CURVE",
"181 71 LINE",
"148 71 OFFCURVE",
"126 83 OFFCURVE",
"126 114 CURVE SMOOTH",
"126 132 OFFCURVE",
"133 147 OFFCURVE",
"163 164 CURVE",
"174 159 OFFCURVE",
"188 156 OFFCURVE",
"218 156 CURVE SMOOTH",
"337 156 OFFCURVE",
"431 244 OFFCURVE",
"431 349 CURVE SMOOTH",
"431 386 OFFCURVE",
"419 419 OFFCURVE",
"396 446 CURVE",
"419 494 OFFCURVE",
"428 529 OFFCURVE",
"433 588 CURVE"
);
},
{
closed = 1;
nodes = (
"263 481 OFFCURVE",
"302 401 OFFCURVE",
"302 289 CURVE SMOOTH",
"302 219 OFFCURVE",
"291 175 OFFCURVE",
"255 175 CURVE SMOOTH",
"208 175 OFFCURVE",
"173 257 OFFCURVE",
"173 374 CURVE SMOOTH",
"173 439 OFFCURVE",
"179 481 OFFCURVE",
"216 481 CURVE SMOOTH"
);
},
{
closed = 1;
nodes = (
"366 -42 LINE",
"376 -52 OFFCURVE",
"380 -81 OFFCURVE",
"380 -99 CURVE SMOOTH",
"380 -173 OFFCURVE",
"303 -214 OFFCURVE",
"224 -214 CURVE SMOOTH",
"137 -214 OFFCURVE",
"96 -172 OFFCURVE",
"96 -110 CURVE SMOOTH",
"96 -78 OFFCURVE",
"107 -59 OFFCURVE",
"129 -42 CURVE"
);
}
);
width = 488;
}
);
leftKerningGroup = g;
unicode = 0067;
},
{
glyphname = h;
lastChange = "2018-11-01 10:56:21 +0000";
layers = (
{
layerId = "ADA4184A-F967-4A63-B095-B719654E3BB1";
paths = (
{
closed = 1;
nodes = (
"214 710 LINE",
"26 643 LINE",
"94 566 LINE",
"94 76 LINE",
"20 0 LINE",
"288 0 LINE",
"214 76 LINE",
"214 387 LINE",
"246 430 OFFCURVE",
"283 446 OFFCURVE",
"301 446 CURVE SMOOTH",
"358 446 OFFCURVE",
"369 397 OFFCURVE",
"369 310 CURVE SMOOTH",
"369 75 LINE",
"296 0 LINE",
"564 0 LINE",
"490 76 LINE",
"489 76 LINE",
"489 344 LINE SMOOTH",
"489 438 OFFCURVE",
"441 504 OFFCURVE",
"359 504 CURVE SMOOTH",
"313 504 OFFCURVE",
"250 473 OFFCURVE",
"214 411 CURVE"
);
}
);
width = 584;
}
);
unicode = 0068;
},
{
glyphname = dotlessi;
lastChange = "2018-11-01 13:50:28 +0000";
layers = (
{
anchors = (
{
name = bottom;
position = "{159, 0}";
},
{
name = ogonek;
position = "{286, 10}";
},
{
name = top;
position = "{143, 490}";
}
);
layerId = "ADA4184A-F967-4A63-B095-B719654E3BB1";
paths = (
{
closed = 1;
nodes = (
"99 356 LINE",
"99 86 LINE",
"25 0 LINE",
"293 0 LINE",
"219 86 LINE",
"219 500 LINE",
"31 433 LINE"
);
}
);
width = 318;
}
);
unicode = 0131;
},
{
glyphname = iacute;
lastChange = "2018-11-01 18:43:25 +0000";
layers = (
{
anchors = (
{
name = bottom;
position = "{159, 0}";
},
{
name = ogonek;
position = "{286, 10}";
},
{
name = top;
position = "{159, 490}";
}
);
components = (
{
name = acutecomb;
transform = "{1, 0, 0, 1, 70, 0}";
}
);
layerId = "ADA4184A-F967-4A63-B095-B719654E3BB1";
paths = (
{
closed = 1;
nodes = (
"99 356 LINE",
"99 86 LINE",
"25 0 LINE",
"293 0 LINE",
"219 86 LINE",
"219 500 LINE",
"31 433 LINE"
);
}
);
width = 318;
}
);
leftKerningGroup = i;
unicode = 00ED;
},
{
glyphname = icircumflex;
lastChange = "2018-11-01 17:41:36 +0000";
layers = (
{
anchors = (
{
name = bottom;
position = "{159, 0}";
},
{
name = ogonek;
position = "{286, 10}";
},
{
name = top;
position = "{159, 490}";
}
);
components = (
{
name = circumflexcomb;
transform = "{1, 0, 0, 1, 35, 0}";
}
);
layerId = "ADA4184A-F967-4A63-B095-B719654E3BB1";
paths = (
{
closed = 1;
nodes = (
"99 356 LINE",
"99 86 LINE",
"25 0 LINE",
"293 0 LINE",
"219 86 LINE",
"219 500 LINE",
"31 433 LINE"
);
}
);
width = 318;
}
);
leftKerningGroup = i;
unicode = 00EE;
},
{
glyphname = idieresis;
lastChange = "2018-11-01 17:41:36 +0000";
layers = (
{
anchors = (
{
name = bottom;
position = "{212, 0}";
},
{
name = ogonek;
position = "{339, 10}";
},
{
name = top;
position = "{212, 490}";
}
);
components = (
{
name = dieresiscomb;
transform = "{1, 0, 0, 1, -20, 0}";
}
);
layerId = "ADA4184A-F967-4A63-B095-B719654E3BB1";
paths = (
{
closed = 1;
nodes = (
"152 356 LINE",
"152 86 LINE",
"78 0 LINE",
"346 0 LINE",
"272 86 LINE",
"272 500 LINE",
"84 433 LINE"
);
}
);
width = 371;
}
);
leftKerningGroup = i;
unicode = 00EF;
},
{
glyphname = igrave;
lastChange = "2018-11-01 17:41:36 +0000";
layers = (
{
anchors = (
{
name = bottom;
position = "{164, 0}";
},
{
name = ogonek;
position = "{291, 10}";
},
{
name = top;
position = "{164, 490}";
}
);
components = (
{
name = gravecomb;
transform = "{1, 0, 0, 1, 5, 0}";
}
);
layerId = "ADA4184A-F967-4A63-B095-B719654E3BB1";
paths = (
{
closed = 1;
nodes = (
"104 356 LINE",
"104 86 LINE",
"30 0 LINE",
"298 0 LINE",
"224 86 LINE",
"224 500 LINE",
"36 433 LINE"
);
}
);
width = 323;
}
);
leftKerningGroup = i;
unicode = 00EC;
},
{
glyphname = ij;
lastChange = "2018-11-01 16:30:05 +0000";
layers = (
{
layerId = "ADA4184A-F967-4A63-B095-B719654E3BB1";
paths = (
{
closed = 1;
nodes = (
"156 546 LINE",
"241 639 LINE",
"156 731 LINE",
"70 639 LINE"
);
},
{
closed = 1;
nodes = (
"422 546 LINE",
"507 639 LINE",
"422 731 LINE",
"336 639 LINE"
);
},
{
closed = 1;
nodes = (
"99 356 LINE",
"99 86 LINE",
"25 0 LINE",
"293 0 LINE",
"219 86 LINE",
"219 500 LINE",
"31 433 LINE"
);
},
{
closed = 1;
nodes = (
"297 433 LINE",
"365 356 LINE",
"365 -147 LINE",
"365 -147 OFFCURVE",
"363 -198 OFFCURVE",
"348 -222 CURVE",
"355 -225 LINE",
"389 -189 OFFCURVE",
"486 -142 OFFCURVE",
"486 -65 CURVE SMOOTH",
"486 73 LINE",
"485 73 LINE",
"485 500 LINE"
);
}
);
width = 537;
}
);
unicode = 0133;
},
{
glyphname = j;
lastChange = "2018-11-01 16:30:05 +0000";
layers = (
{
layerId = "ADA4184A-F967-4A63-B095-B719654E3BB1";
paths = (
{
closed = 1;
nodes = (
"48 639 LINE",
"134 546 LINE",
"219 639 LINE",
"134 731 LINE"
);
},
{
closed = 1;
nodes = (
"208 500 LINE",
"20 433 LINE",
"88 356 LINE",
"88 -147 LINE",
"88 -147 OFFCURVE",
"86 -198 OFFCURVE",
"71 -222 CURVE",
"78 -225 LINE",
"112 -189 OFFCURVE",
"209 -142 OFFCURVE",
"209 -65 CURVE SMOOTH",
"209 73 LINE",
"208 73 LINE"
);
}
);
width = 249;
}
);
unicode = 006A;
},
{
glyphname = k;
lastChange = "2018-11-01 17:53:29 +0000";
layers = (
{
layerId = "ADA4184A-F967-4A63-B095-B719654E3BB1";
paths = (
{
closed = 1;
nodes = (
"214 710 LINE",
"26 653 LINE",
"94 576 LINE",
"94 86 LINE",
"20 0 LINE",
"288 0 LINE",
"214 86 LINE",
"214 233 LINE",
"348 44 LINE",
"376 0 LINE",
"539 0 LINE",
"539 9 LINE",
"458 72 LINE",
"301 302 LINE",
"412 418 LINE",
"514 490 LINE",
"314 490 LINE",
"357 411 LINE",
"214 242 LINE"
);
}
);
width = 539;
}
);
unicode = 006B;
},
{
glyphname = l;
lastChange = "2018-11-01 10:37:08 +0000";
layers = (
{
layerId = "ADA4184A-F967-4A63-B095-B719654E3BB1";
paths = (
{
closed = 1;
nodes = (
"94 86 LINE",
"20 0 LINE",
"288 0 LINE",
"214 86 LINE",
"214 710 LINE",
"26 653 LINE",
"94 576 LINE",
"94 538 LINE",
"26 517 LINE",
"94 440 LINE"
);
}
);
width = 308;
}
);
unicode = 006C;
},
{
glyphname = lslash;
layers = (
{
layerId = "ADA4184A-F967-4A63-B095-B719654E3BB1";
paths = (
{
closed = 1;
nodes = (
"208 356 LINE",
"316 401 LINE",
"316 465 LINE",
"208 420 LINE",
"208 710 LINE",
"20 653 LINE",
"88 576 LINE",
"88 538 LINE",
"20 517 LINE",
"88 440 LINE",
"88 369 LINE",
"-5 330 LINE",
"-5 268 LINE",
"88 307 LINE",
"88 86 LINE",
"14 0 LINE",
"282 0 LINE",
"208 86 LINE"
);
}
);
width = 311;
}
);
unicode = 0142;
},
{
glyphname = m;
lastChange = "2018-11-01 17:41:36 +0000";
layers = (
{
layerId = "ADA4184A-F967-4A63-B095-B719654E3BB1";
paths = (
{
closed = 1;
nodes = (
"214 500 LINE",
"26 433 LINE",
"94 356 LINE",
"94 76 LINE",
"20 0 LINE",
"288 0 LINE",
"214 76 LINE",
"214 404 LINE",
"245 437 OFFCURVE",
"266 444 OFFCURVE",
"293 444 CURVE SMOOTH",
"341 444 OFFCURVE",
"366 403 OFFCURVE",
"366 318 CURVE SMOOTH",
"366 75 LINE",
"293 0 LINE",
"561 0 LINE",
"487 76 LINE",
"486 76 LINE",
"486 358 LINE SMOOTH",
"486 372 OFFCURVE",
"485 386 OFFCURVE",
"483 399 CURVE",
"516 436 OFFCURVE",
"538 444 OFFCURVE",
"566 444 CURVE SMOOTH",
"615 444 OFFCURVE",
"639 402 OFFCURVE",
"639 318 CURVE SMOOTH",
"639 75 LINE",
"566 0 LINE",
"834 0 LINE",
"760 76 LINE",
"759 76 LINE",
"759 342 LINE SMOOTH",
"759 435 OFFCURVE",
"702 502 OFFCURVE",
"624 502 CURVE SMOOTH",
"570 502 OFFCURVE",
"514 469 OFFCURVE",
"474 414 CURVE",
"455 467 OFFCURVE",
"407 502 OFFCURVE",
"351 502 CURVE SMOOTH",
"303 502 OFFCURVE",
"256 476 OFFCURVE",
"214 427 CURVE"
);
}
);
width = 854;
}
);
leftKerningGroup = m;
rightKerningGroup = m;
unicode = 006D;
},
{
glyphname = n;
lastChange = "2018-11-01 17:41:36 +0000";
layers = (
{
anchors = (
{
name = bottom;
position = "{294, 0}";
},
{
name = top;
position = "{288, 490}";
}
);
layerId = "ADA4184A-F967-4A63-B095-B719654E3BB1";
paths = (
{
closed = 1;
nodes = (
"567 0 LINE",
"491 76 LINE",
"491 342 LINE SMOOTH",
"491 436 OFFCURVE",
"443 502 OFFCURVE",
"361 502 CURVE SMOOTH",
"321 502 OFFCURVE",
"256 471 OFFCURVE",
"216 409 CURVE",
"216 500 LINE",
"28 433 LINE",
"96 356 LINE",
"96 76 LINE",
"20 0 LINE",
"288 0 LINE",
"216 76 LINE",
"216 389 LINE",
"248 432 OFFCURVE",
"286 439 OFFCURVE",
"303 439 CURVE SMOOTH",
"360 439 OFFCURVE",
"371 390 OFFCURVE",
"371 308 CURVE SMOOTH",
"371 76 LINE",
"299 0 LINE"
);
}
);
width = 587;
}
);
leftKerningGroup = m;
rightKerningGroup = m;
unicode = 006E;
},
{
glyphname = o;
lastChange = "2018-11-01 17:41:36 +0000";
layers = (
{
anchors = (
{
name = bottom;
position = "{229, 0}";
},
{
name = center;
position = "{259, 245}";
},
{
name = ogonek;
position = "{465, 10}";
},
{
name = top;
position = "{254, 490}";
},
{
name = topright;
position = "{497, 490}";
}
);
layerId = "ADA4184A-F967-4A63-B095-B719654E3BB1";
paths = (
{
closed = 1;
nodes = (
"480 374 OFFCURVE",
"421 502 OFFCURVE",
"283 502 CURVE SMOOTH",
"133 502 OFFCURVE",
"30 364 OFFCURVE",
"30 223 CURVE SMOOTH",
"30 115 OFFCURVE",
"87 -12 OFFCURVE",
"227 -12 CURVE SMOOTH",
"375 -12 OFFCURVE",
"480 125 OFFCURVE",
"480 267 CURVE SMOOTH"
);
},
{
closed = 1;
nodes = (
"305 474 OFFCURVE",
"355 318 OFFCURVE",
"355 176 CURVE SMOOTH",
"355 90 OFFCURVE",
"336 16 OFFCURVE",
"282 16 CURVE",
"214 16 OFFCURVE",
"157 158 OFFCURVE",
"157 314 CURVE SMOOTH",
"157 394 OFFCURVE",
"174 474 OFFCURVE",
"229 474 CURVE SMOOTH"
);
}
);
width = 517;
}
);
leftKerningGroup = c;
rightKerningGroup = b;
unicode = 006F;
},
{
glyphname = oslash;
lastChange = "2018-11-01 16:30:05 +0000";
layers = (
{
anchors = (
{
name = bottom;
position = "{234, 0}";
},
{
name = center;
position = "{264, 245}";
},
{
name = ogonek;
position = "{470, 10}";
},
{
name = top;
position = "{259, 490}";
},
{
name = topright;
position = "{502, 490}";
}
);
layerId = "ADA4184A-F967-4A63-B095-B719654E3BB1";
paths = (
{
closed = 1;
nodes = (
"485 374 OFFCURVE",
"426 502 OFFCURVE",
"288 502 CURVE SMOOTH",
"138 502 OFFCURVE",
"35 364 OFFCURVE",
"35 223 CURVE SMOOTH",
"35 115 OFFCURVE",
"92 -12 OFFCURVE",
"232 -12 CURVE SMOOTH",
"380 -12 OFFCURVE",
"485 125 OFFCURVE",
"485 267 CURVE SMOOTH"
);
},
{
closed = 1;
nodes = (
"310 474 OFFCURVE",
"360 318 OFFCURVE",
"360 176 CURVE SMOOTH",
"360 90 OFFCURVE",
"341 16 OFFCURVE",
"287 16 CURVE",
"219 16 OFFCURVE",
"162 158 OFFCURVE",
"162 314 CURVE SMOOTH",
"162 394 OFFCURVE",
"179 474 OFFCURVE",
"234 474 CURVE SMOOTH"
);
},
{
closed = 1;
nodes = (
"60 -62 LINE",
"95 -62 LINE",
"512 555 LINE",
"477 555 LINE"
);
}
);
width = 542;
}
);
unicode = 00F8;
},
{
glyphname = oe;
lastChange = "2018-11-01 17:41:36 +0000";
layers = (
{
anchors = (
{
name = bottom;
position = "{548, 0}";
},
{
name = ogonek;
position = "{745, 10}";
},
{
name = top;
position = "{566, 490}";
}
);
layerId = "ADA4184A-F967-4A63-B095-B719654E3BB1";
paths = (
{
closed = 1;
nodes = (
"485 374 OFFCURVE",
"426 502 OFFCURVE",
"288 502 CURVE SMOOTH",
"138 502 OFFCURVE",
"35 364 OFFCURVE",
"35 223 CURVE SMOOTH",
"35 115 OFFCURVE",
"92 -12 OFFCURVE",
"232 -12 CURVE SMOOTH",
"380 -12 OFFCURVE",
"485 125 OFFCURVE",
"485 267 CURVE SMOOTH"
);
},
{
closed = 1;
nodes = (
"310 474 OFFCURVE",
"360 318 OFFCURVE",
"360 176 CURVE SMOOTH",
"360 90 OFFCURVE",
"341 16 OFFCURVE",
"287 16 CURVE",
"219 16 OFFCURVE",
"162 158 OFFCURVE",
"162 314 CURVE SMOOTH",
"162 394 OFFCURVE",
"179 474 OFFCURVE",
"234 474 CURVE SMOOTH"
);
},
{
closed = 1;
nodes = (
"767 283 LINE",
"768 283 LINE",
"767 285 LINE",
"766 420 OFFCURVE",
"693 500 OFFCURVE",
"594 500 CURVE SMOOTH",
"451 500 OFFCURVE",
"371 352 OFFCURVE",
"371 223 CURVE SMOOTH",
"371 103 OFFCURVE",
"445 -14 OFFCURVE",
"556 -14 CURVE SMOOTH",
"655 -14 OFFCURVE",
"726 78 OFFCURVE",
"762 169 CURVE",
"747 175 LINE",
"732 133 OFFCURVE",
"672 99 OFFCURVE",
"624 99 CURVE SMOOTH",
"566 99 OFFCURVE",
"497 153 OFFCURVE",
"486 282 CURVE",
"767 282 LINE"
);
},
{
closed = 1;
nodes = (
"638 302 LINE",
"484 302 LINE",
"484 319 LINE SMOOTH",
"484 389 OFFCURVE",
"510 480 OFFCURVE",
"571 480 CURVE SMOOTH",
"600 480 OFFCURVE",
"638 438 OFFCURVE",
"638 321 CURVE SMOOTH"
);
}
);
width = 797;
}
);
leftKerningGroup = c;
rightKerningGroup = b;
unicode = 0153;
},
{
glyphname = p;
lastChange = "2018-11-01 17:41:36 +0000";
layers = (
{
layerId = "ADA4184A-F967-4A63-B095-B719654E3BB1";
paths = (
{
closed = 1;
nodes = (
"214 511 LINE",
"26 454 LINE",
"94 377 LINE",
"94 -139 LINE",
"20 -215 LINE",
"307 -215 LINE",
"214 -139 LINE",
"214 3 LINE",
"234 -3 OFFCURVE",
"259 -9 OFFCURVE",
"287 -9 CURVE SMOOTH",
"412 -9 OFFCURVE",
"527 109 OFFCURVE",
"527 265 CURVE SMOOTH",
"527 394 OFFCURVE",
"447 500 OFFCURVE",
"347 500 CURVE SMOOTH",
"293 500 OFFCURVE",
"239 469 OFFCURVE",
"214 425 CURVE"
);
},
{
closed = 1;
nodes = (
"214 405 LINE",
"237 420 OFFCURVE",
"256 433 OFFCURVE",
"277 433 CURVE SMOOTH",
"340 433 OFFCURVE",
"409 323 OFFCURVE",
"409 174 CURVE SMOOTH",
"409 83 OFFCURVE",
"384 35 OFFCURVE",
"326 35 CURVE SMOOTH",
"291 35 OFFCURVE",
"258 53 OFFCURVE",
"214 103 CURVE"
);
}
);
width = 564;
}
);
rightKerningGroup = ocircumflex;
unicode = 0070;
},
{
glyphname = thorn;
lastChange = "2018-11-01 17:41:36 +0000";
layers = (
{
layerId = "ADA4184A-F967-4A63-B095-B719654E3BB1";
paths = (
{
closed = 1;
nodes = (
"26 653 LINE",
"94 576 LINE",
"94 -129 LINE",
"20 -215 LINE",
"307 -215 LINE",
"214 -129 LINE",
"214 3 LINE",
"251 -5 OFFCURVE",
"286 -9 OFFCURVE",
"307 -9 CURVE SMOOTH",
"498 -9 OFFCURVE",
"567 154 OFFCURVE",
"567 265 CURVE SMOOTH",
"567 385 OFFCURVE",
"497 500 OFFCURVE",
"367 500 CURVE SMOOTH",
"294 500 OFFCURVE",
"250 467 OFFCURVE",
"214 425 CURVE",
"214 710 LINE"
);
},
{
closed = 1;
nodes = (
"244 417 OFFCURVE",
"270 426 OFFCURVE",
"297 426 CURVE SMOOTH",
"383 426 OFFCURVE",
"449 330 OFFCURVE",
"449 174 CURVE SMOOTH",
"449 104 OFFCURVE",
"434 35 OFFCURVE",
"346 35 CURVE SMOOTH",
"291 35 OFFCURVE",
"243 70 OFFCURVE",
"214 103 CURVE",
"214 398 LINE"
);
}
);
width = 604;
}
);
rightKerningGroup = ocircumflex;
unicode = 00FE;
},
{
glyphname = q;
lastChange = "2018-11-01 17:41:36 +0000";
layers = (
{
layerId = "ADA4184A-F967-4A63-B095-B719654E3BB1";
paths = (
{
closed = 1;
nodes = (
"245 -215 LINE",
"532 -215 LINE",
"458 -139 LINE",
"458 500 LINE",
"367 478 LINE",
"329 486 OFFCURVE",
"300 490 OFFCURVE",
"274 490 CURVE SMOOTH",
"133 490 OFFCURVE",
"30 380 OFFCURVE",
"30 225 CURVE SMOOTH",
"30 93 OFFCURVE",
"111 -10 OFFCURVE",
"205 -10 CURVE SMOOTH",
"270 -10 OFFCURVE",
"327 38 OFFCURVE",
"338 91 CURVE",
"338 -139 LINE"
);
},
{
closed = 1;
nodes = (
"338 110 LINE",
"331 96 OFFCURVE",
"310 86 OFFCURVE",
"283 86 CURVE SMOOTH",
"205 86 OFFCURVE",
"149 180 OFFCURVE",
"149 316 CURVE SMOOTH",
"149 409 OFFCURVE",
"188 455 OFFCURVE",
"235 455 CURVE SMOOTH",
"269 455 OFFCURVE",
"303 431 OFFCURVE",
"338 394 CURVE"
);
}
);
width = 517;
}
);
leftKerningGroup = c;
unicode = 0071;
},
{
glyphname = r;
lastChange = "2018-11-01 18:06:26 +0000";
layers = (
{
anchors = (
{
name = bottom;
position = "{210, 0}";
},
{
name = top;
position = "{210, 490}";
}
);
layerId = "ADA4184A-F967-4A63-B095-B719654E3BB1";
paths = (
{
closed = 1;
nodes = (
"405 313 LINE",
"405 490 LINE",
"31 490 LINE",
"99 413 LINE",
"99 76 LINE",
"25 0 LINE",
"312 0 LINE",
"219 76 LINE",
"219 301 LINE SMOOTH",
"219 443 OFFCURVE",
"248 471 OFFCURVE",
"286 471 CURVE SMOOTH",
"323 471 OFFCURVE",
"362 417 OFFCURVE",
"397 313 CURVE"
);
}
);
width = 420;
}
);
leftKerningGroup = m;
unicode = 0072;
},
{
glyphname = s;
lastChange = "2018-11-01 10:56:21 +0000";
layers = (
{
layerId = "ADA4184A-F967-4A63-B095-B719654E3BB1";
paths = (
{
closed = 1;
nodes = (
"25 189 LINE",
"34 13 LINE",
"72 -3 OFFCURVE",
"140 -10 OFFCURVE",
"178 -10 CURVE SMOOTH",
"245 -10 OFFCURVE",
"348 35 OFFCURVE",
"348 151 CURVE SMOOTH",
"348 325 OFFCURVE",
"112 293 OFFCURVE",
"112 403 CURVE SMOOTH",
"112 445 OFFCURVE",
"136 468 OFFCURVE",
"167 469 CURVE SMOOTH",
"216 470 OFFCURVE",
"264 421 OFFCURVE",
"300 346 CURVE",
"306 345 LINE",
"306 511 LINE",
"269 490 LINE",
"177 490 LINE SMOOTH",
"95 490 OFFCURVE",
"30 425 OFFCURVE",
"30 351 CURVE SMOOTH",
"30 168 OFFCURVE",
"255 200 OFFCURVE",
"255 79 CURVE SMOOTH",
"255 38 OFFCURVE",
"228 18 OFFCURVE",
"201 18 CURVE SMOOTH",
"136 18 OFFCURVE",
"59 93 OFFCURVE",
"33 189 CURVE"
);
}
);
width = 373;
}
);
unicode = 0073;
},
{
glyphname = germandbls;
layers = (
{
layerId = "ADA4184A-F967-4A63-B095-B719654E3BB1";
paths = (
{
closed = 1;
nodes = (
"94 427 LINE",
"94 86 LINE",
"20 0 LINE",
"214 0 LINE",
"214 490 LINE",
"200 521 LINE SMOOTH",
"161 608 OFFCURVE",
"218 661 OFFCURVE",
"277 661 CURVE SMOOTH",
"324 661 OFFCURVE",
"372 627 OFFCURVE",
"372 549 CURVE SMOOTH",
"372 465 OFFCURVE",
"341 408 OFFCURVE",
"265 315 CURVE",
"306 301 OFFCURVE",
"479 199 OFFCURVE",
"479 111 CURVE SMOOTH",
"479 53 OFFCURVE",
"452 30 OFFCURVE",
"411 30 CURVE SMOOTH",
"381 30 OFFCURVE",
"324 49 OFFCURVE",
"282 165 CURVE",
"271 165 LINE",
"264 0 LINE",
"317 -4 OFFCURVE",
"377 -4 OFFCURVE",
"381 -4 CURVE SMOOTH",
"503 -4 OFFCURVE",
"559 63 OFFCURVE",
"559 168 CURVE SMOOTH",
"559 293 OFFCURVE",
"434 349 OFFCURVE",
"371 391 CURVE",
"399 415 OFFCURVE",
"479 496 OFFCURVE",
"479 563 CURVE SMOOTH",
"479 677 OFFCURVE",
"383 695 OFFCURVE",
"312 695 CURVE SMOOTH",
"154 695 OFFCURVE",
"94 530 OFFCURVE",
"94 490 CURVE",
"24 490 LINE"
);
}
);
width = 584;
}
);
unicode = 00DF;
},
{
glyphname = t;
lastChange = "2018-11-01 10:56:21 +0000";
layers = (
{
layerId = "ADA4184A-F967-4A63-B095-B719654E3BB1";
paths = (
{
closed = 1;
nodes = (
"196 632 LINE",
"10 490 LINE",
"76 451 LINE",
"76 142 LINE SMOOTH",
"76 50 OFFCURVE",
"115 -12 OFFCURVE",
"185 -12 CURVE SMOOTH",
"241 -12 OFFCURVE",
"300 28 OFFCURVE",
"348 110 CURVE",
"336 126 LINE",
"312 87 OFFCURVE",
"287 68 OFFCURVE",
"256 68 CURVE SMOOTH",
"214 68 OFFCURVE",
"196 103 OFFCURVE",
"196 190 CURVE SMOOTH",
"196 460 LINE",
"327 460 LINE",
"349 490 LINE",
"196 490 LINE"
);
}
);
width = 381;
}
);
unicode = 0074;
},
{
glyphname = u;
lastChange = "2018-11-01 17:41:36 +0000";
layers = (
{
anchors = (
{
name = bottom;
position = "{276, 0}";
},
{
name = ogonek;
position = "{496, 10}";
},
{
name = top;
position = "{253, 490}";
},
{
name = topright;
position = "{531, 490}";
}
);
layerId = "ADA4184A-F967-4A63-B095-B719654E3BB1";
paths = (
{
closed = 1;
nodes = (
"200 491 LINE",
"5 491 LINE",
"80 414 LINE",
"80 150 LINE SMOOTH",
"80 56 OFFCURVE",
"128 -10 OFFCURVE",
"210 -10 CURVE SMOOTH",
"266 -10 OFFCURVE",
"312 24 OFFCURVE",
"343 74 CURVE",
"343 -6 LINE",
"531 0 LINE",
"463 72 LINE",
"463 491 LINE",
"269 491 LINE",
"343 414 LINE",
"343 101 LINE",
"321 71 OFFCURVE",
"294 54 OFFCURVE",
"268 54 CURVE SMOOTH",
"211 54 OFFCURVE",
"200 103 OFFCURVE",
"200 184 CURVE SMOOTH"
);
}
);
width = 551;
}
);
leftKerningGroup = m;
unicode = 0075;
},
{
glyphname = v;
lastChange = "2018-11-01 17:41:36 +0000";
layers = (
{
layerId = "ADA4184A-F967-4A63-B095-B719654E3BB1";
paths = (
{
closed = 1;
nodes = (
"320 490 LINE",
"411 427 LINE",
"300 151 LINE",
"196 426 LINE",
"269 490 LINE",
"5 490 LINE",
"61 427 LINE",
"240 -22 LINE",
"260 -22 LINE",
"441 427 LINE",
"497 490 LINE"
);
}
);
width = 502;
}
);
leftKerningGroup = g;
rightKerningGroup = v;
unicode = 0076;
},
{
glyphname = w;
lastChange = "2018-11-01 17:41:36 +0000";
layers = (
{
anchors = (
{
name = bottom;
position = "{382, 0}";
},
{
name = top;
position = "{382, 490}";
}
);
layerId = "ADA4184A-F967-4A63-B095-B719654E3BB1";
paths = (
{
closed = 1;
nodes = (
"66 419 LINE",
"241 -22 LINE",
"263 -22 LINE",
"390 300 LINE",
"517 -22 LINE",
"539 -22 LINE",
"709 438 LINE",
"768 490 LINE",
"590 490 LINE",
"680 438 LINE",
"570 139 LINE",
"457 436 LINE",
"540 490 LINE",
"276 490 LINE",
"342 419 LINE",
"377 340 LINE",
"294 130 LINE",
"177 436 LINE",
"265 490 LINE",
"0 490 LINE"
);
}
);
width = 763;
}
);
leftKerningGroup = g;
rightKerningGroup = v;
unicode = 0077;
},
{
glyphname = x;
lastChange = "2018-11-01 17:32:09 +0000";
layers = (
{
background = {
paths = (
{
closed = 1;
nodes = (
"243 0 LINE",
"53 0 LINE",
"152 65 LINE",
"184 65 LINE"
);
}
);
};
layerId = "ADA4184A-F967-4A63-B095-B719654E3BB1";
paths = (
{
closed = 1;
nodes = (
"195 0 LINE",
"5 0 LINE",
"105 65 LINE",
"137 65 LINE"
);
},
{
closed = 1;
nodes = (
"510 490 LINE",
"314 490 LINE",
"379 427 LINE",
"414 427 LINE"
);
},
{
closed = 1;
nodes = (
"280 490 LINE",
"7 490 LINE",
"80 427 LINE",
"321 65 LINE",
"257 0 LINE",
"542 0 LINE",
"458 65 LINE",
"216 427 LINE"
);
},
{
closed = 1;
nodes = (
"380 427 LINE",
"225 218 LINE",
"257 218 LINE",
"415 427 LINE"
);
},
{
closed = 1;
nodes = (
"260 274 LINE",
"105 65 LINE",
"137 65 LINE",
"293 274 LINE"
);
}
);
width = 542;
}
);
unicode = 0078;
},
{
glyphname = y;
lastChange = "2018-11-01 17:41:36 +0000";
layers = (
{
anchors = (
{
name = bottom;
position = "{268, 0}";
},
{
name = top;
position = "{286, 490}";
}
);
layerId = "ADA4184A-F967-4A63-B095-B719654E3BB1";
paths = (
{
closed = 1;
nodes = (
"0 490 LINE",
"66 409 LINE",
"263 -11 LINE",
"213 -129 LINE",
"100 -205 LINE",
"315 -205 LINE",
"243 -129 LINE",
"477 427 LINE",
"535 490 LINE",
"357 490 LINE",
"447 427 LINE",
"320 125 LINE",
"301 179 LINE",
"192 426 LINE",
"265 490 LINE"
);
}
);
width = 535;
}
);
leftKerningGroup = y;
rightKerningGroup = y;
unicode = 0079;
},
{
glyphname = z;
lastChange = "2018-11-01 10:56:21 +0000";
layers = (
{
layerId = "ADA4184A-F967-4A63-B095-B719654E3BB1";
paths = (
{
closed = 1;
nodes = (
"428 15 LINE",
"445 207 LINE",
"439 209 LINE",
"308 20 LINE",
"163 20 LINE",
"462 490 LINE",
"149 490 LINE",
"63 508 LINE",
"63 304 LINE",
"69 304 LINE",
"187 470 LINE",
"322 470 LINE",
"20 0 LINE",
"428 0 LINE"
);
}
);
width = 482;
}
);
unicode = 007A;
},
{
glyphname = r.ss01;
lastChange = "2018-11-01 18:06:02 +0000";
layers = (
{
anchors = (
{
name = bottom;
position = "{208, 0}";
},
{
name = top;
position = "{208, 490}";
}
);
layerId = "ADA4184A-F967-4A63-B095-B719654E3BB1";
paths = (
{
closed = 1;
nodes = (
"26 433 LINE",
"94 356 LINE",
"94 80 LINE",
"20 0 LINE",
"300 0 LINE",
"214 80 LINE",
"214 370 LINE",
"229 395 OFFCURVE",
"254 410 OFFCURVE",
"282 410 CURVE SMOOTH",
"322 410 OFFCURVE",
"366 381 OFFCURVE",
"393 328 CURVE",
"400 328 LINE",
"400 501 LINE",
"307 488 OFFCURVE",
"254 448 OFFCURVE",
"214 414 CURVE",
"214 500 LINE"
);
}
);
width = 415;
}
);
leftKerningGroup = m;
},
{
glyphname = f_f;
lastChange = "2018-11-01 16:30:05 +0000";
layers = (
{
layerId = "ADA4184A-F967-4A63-B095-B719654E3BB1";
paths = (
{
closed = 1;
nodes = (
"475 694 OFFCURVE",
"413 586 OFFCURVE",
"402 491 CURVE",
"209 491 LINE",
"199 516 OFFCURVE",
"191 549 OFFCURVE",
"191 579 CURVE SMOOTH",
"191 633 OFFCURVE",
"209 670 OFFCURVE",
"248 670 CURVE SMOOTH",
"302 670 OFFCURVE",
"351 598 OFFCURVE",
"380 544 CURVE",
"387 544 LINE",
"387 694 LINE",
"287 694 LINE SMOOTH",
"163 694 OFFCURVE",
"101 586 OFFCURVE",
"90 490 CURVE",
"37 490 LINE",
"34 487 LINE",
"37 489 LINE",
"89 452 LINE",
"89 75 LINE",
"15 0 LINE",
"300 0 LINE",
"209 75 LINE",
"209 461 LINE",
"401 461 LINE",
"401 75 LINE",
"327 0 LINE",
"612 0 LINE",
"521 75 LINE",
"521 461 LINE",
"651 461 LINE",
"673 491 LINE",
"521 490 LINE",
"511 516 OFFCURVE",
"503 549 OFFCURVE",
"503 579 CURVE SMOOTH",
"503 633 OFFCURVE",
"521 670 OFFCURVE",
"560 670 CURVE SMOOTH",
"614 670 OFFCURVE",
"663 598 OFFCURVE",
"692 544 CURVE",
"699 544 LINE",
"699 694 LINE",
"599 694 LINE SMOOTH"
);
}
);
width = 659;
}
);
},
{
glyphname = f_f_l;
lastChange = "2018-11-01 16:30:05 +0000";
layers = (
{
layerId = "ADA4184A-F967-4A63-B095-B719654E3BB1";
paths = (
{
closed = 1;
nodes = (
"874 0 LINE",
"800 86 LINE",
"800 710 LINE",
"768 695 LINE",
"585 695 LINE SMOOTH",
"546 695 OFFCURVE",
"517 685 OFFCURVE",
"494 670 CURVE",
"431 632 OFFCURVE",
"398 558 OFFCURVE",
"390 491 CURVE",
"209 491 LINE",
"199 516 OFFCURVE",
"191 549 OFFCURVE",
"191 579 CURVE SMOOTH",
"191 633 OFFCURVE",
"209 670 OFFCURVE",
"248 670 CURVE SMOOTH",
"302 670 OFFCURVE",
"351 598 OFFCURVE",
"380 544 CURVE",
"387 544 LINE",
"387 694 LINE",
"287 694 LINE SMOOTH",
"163 694 OFFCURVE",
"101 586 OFFCURVE",
"90 490 CURVE",
"37 490 LINE",
"34 487 LINE",
"37 489 LINE",
"89 452 LINE",
"89 75 LINE",
"15 0 LINE",
"300 0 LINE",
"209 75 LINE",
"209 461 LINE",
"389 461 LINE",
"389 75 LINE",
"315 0 LINE",
"600 0 LINE",
"509 75 LINE",
"509 461 LINE",
"680 461 LINE",
"680 86 LINE",
"610 0 LINE"
);
},
{
closed = 1;
nodes = (
"509 491 LINE",
"499 516 OFFCURVE",
"491 549 OFFCURVE",
"491 579 CURVE SMOOTH",
"491 633 OFFCURVE",
"509 670 OFFCURVE",
"548 670 CURVE SMOOTH",
"602 670 OFFCURVE",
"651 598 OFFCURVE",
"680 544 CURVE",
"680 491 LINE"
);
}
);
width = 894;
}
);
},
{
glyphname = uni0066006C;
lastChange = "2018-11-01 16:30:05 +0000";
layers = (
{
layerId = "ADA4184A-F967-4A63-B095-B719654E3BB1";
paths = (
{
closed = 1;
nodes = (
"89 461 LINE",
"89 75 LINE",
"15 0 LINE",
"300 0 LINE",
"209 75 LINE",
"209 461 LINE",
"380 461 LINE",
"380 86 LINE",
"310 0 LINE",
"574 0 LINE",
"500 86 LINE",
"500 710 LINE",
"468 695 LINE",
"285 695 LINE SMOOTH",
"246 695 OFFCURVE",
"217 685 OFFCURVE",
"194 670 CURVE",
"131 632 OFFCURVE",
"98 558 OFFCURVE",
"90 491 CURVE"
);
},
{
closed = 1;
nodes = (
"209 491 LINE",
"199 516 OFFCURVE",
"191 549 OFFCURVE",
"191 579 CURVE SMOOTH",
"191 633 OFFCURVE",
"209 670 OFFCURVE",
"248 670 CURVE SMOOTH",
"302 670 OFFCURVE",
"351 598 OFFCURVE",
"380 544 CURVE",
"380 491 LINE"
);
},
{
closed = 1;
nodes = (
"91 490 LINE",
"38 490 LINE",
"38 489 LINE",
"90 452 LINE"
);
}
);
width = 594;
}
);
unicode = FB02;
},
{
glyphname = Lambda;
layers = (
{
layerId = "ADA4184A-F967-4A63-B095-B719654E3BB1";
paths = (
{
closed = 1;
nodes = (
"311 500 LINE",
"485 61 LINE",
"405 0 LINE",
"678 0 LINE",
"626 59 LINE",
"362 705 LINE",
"314 705 LINE",
"75 89 LINE",
"5 0 LINE",
"214 0 LINE",
"129 86 LINE",
"298 547 LINE"
);
}
);
width = 683;
}
);
unicode = 039B;
},
{
glyphname = mu;
lastChange = "2018-11-01 16:30:05 +0000";
layers = (
{
layerId = "ADA4184A-F967-4A63-B095-B719654E3BB1";
paths = (
{
closed = 1;
nodes = (
"463 72 LINE",
"463 491 LINE",
"269 491 LINE",
"343 414 LINE",
"343 101 LINE",
"321 71 OFFCURVE",
"294 54 OFFCURVE",
"268 54 CURVE SMOOTH",
"211 54 OFFCURVE",
"200 103 OFFCURVE",
"200 184 CURVE SMOOTH",
"200 491 LINE",
"5 491 LINE",
"80 404 LINE",
"80 -128 LINE",
"6 -214 LINE",
"200 -214 LINE",
"200 -31 LINE",
"195 -9 LINE",
"200 -10 OFFCURVE",
"205 -10 OFFCURVE",
"210 -10 CURVE SMOOTH",
"266 -10 OFFCURVE",
"312 24 OFFCURVE",
"343 74 CURVE",
"343 -6 LINE",
"531 0 LINE"
);
}
);
width = 551;
}
);
unicode = 03BC;
},
{
glyphname = pi;
lastChange = "2018-11-01 16:30:05 +0000";
layers = (
{
layerId = "ADA4184A-F967-4A63-B095-B719654E3BB1";
paths = (
{
closed = 1;
nodes = (
"523 67 OFFCURVE",
"504 54 OFFCURVE",
"473 54 CURVE SMOOTH",
"447 54 OFFCURVE",
"427 72 OFFCURVE",
"427 134 CURVE SMOOTH",
"427 378 LINE",
"521 378 LINE",
"521 490 LINE",
"169 490 LINE SMOOTH",
"79 490 OFFCURVE",
"57 467 OFFCURVE",
"31 338 CURVE SMOOTH",
"25 308 LINE",
"29 308 LINE",
"58 363 OFFCURVE",
"87 378 OFFCURVE",
"136 378 CURVE SMOOTH",
"145 378 LINE",
"136 53 LINE",
"52 0 LINE",
"221 0 LINE",
"221 378 LINE",
"307 378 LINE",
"307 114 LINE SMOOTH",
"307 23 OFFCURVE",
"348 -11 OFFCURVE",
"411 -11 CURVE SMOOTH",
"476 -11 OFFCURVE",
"502 26 OFFCURVE",
"542 79 CURVE",
"538 84 LINE"
);
}
);
width = 583;
}
);
unicode = 03C0;
},
{
glyphname = zero;
lastChange = "2018-10-31 15:41:34 +0000";
layers = (
{
layerId = "ADA4184A-F967-4A63-B095-B719654E3BB1";
paths = (
{
closed = 1;
nodes = (
"429 -12 OFFCURVE",
"537 127 OFFCURVE",
"537 362 CURVE SMOOTH",
"537 550 OFFCURVE",
"429 698 OFFCURVE",
"293 698 CURVE SMOOTH",
"149 698 OFFCURVE",
"40 556 OFFCURVE",
"40 321 CURVE SMOOTH",
"40 133 OFFCURVE",
"145 -12 OFFCURVE",
"284 -12 CURVE SMOOTH"
);
},
{
closed = 1;
nodes = (
"346 667 OFFCURVE",
"406 510 OFFCURVE",
"406 297 CURVE SMOOTH",
"406 97 OFFCURVE",
"370 19 OFFCURVE",
"307 19 CURVE SMOOTH",
"232 19 OFFCURVE",
"172 175 OFFCURVE",
"172 386 CURVE SMOOTH",
"172 589 OFFCURVE",
"209 667 OFFCURVE",
"271 667 CURVE SMOOTH"
);
}
);
width = 577;
}
);
unicode = 0030;
},
{
glyphname = one;
lastChange = "2018-10-31 15:41:34 +0000";
layers = (
{
layerId = "ADA4184A-F967-4A63-B095-B719654E3BB1";
paths = (
{
closed = 1;
nodes = (
"35 527 LINE",
"36 525 LINE",
"133 525 LINE",
"133 85 LINE",
"38 0 LINE",
"348 0 LINE",
"253 85 LINE",
"253 698 LINE"
);
}
);
width = 383;
}
);
unicode = 0031;
},
{
glyphname = two;
lastChange = "2018-10-31 15:41:34 +0000";
layers = (
{
layerId = "ADA4184A-F967-4A63-B095-B719654E3BB1";
paths = (
{
closed = 1;
nodes = (
"35 0 LINE",
"464 0 LINE",
"503 246 LINE",
"499 246 LINE",
"396 119 LINE",
"163 119 LINE",
"388 303 OFFCURVE",
"474 396 OFFCURVE",
"474 512 CURVE SMOOTH",
"474 633 OFFCURVE",
"395 685 OFFCURVE",
"233 685 CURVE SMOOTH",
"74 685 LINE",
"74 457 LINE",
"86 457 LINE",
"127 600 OFFCURVE",
"173 659 OFFCURVE",
"238 659 CURVE SMOOTH",
"297 659 OFFCURVE",
"338 614 OFFCURVE",
"338 501 CURVE SMOOTH",
"338 324 OFFCURVE",
"241 213 OFFCURVE",
"35 16 CURVE"
);
}
);
width = 543;
}
);
unicode = 0032;
},
{
glyphname = three;
lastChange = "2018-10-31 15:41:34 +0000";
layers = (
{
layerId = "ADA4184A-F967-4A63-B095-B719654E3BB1";
paths = (
{
closed = 1;
nodes = (
"416 626 OFFCURVE",
"342 685 OFFCURVE",
"206 685 CURVE SMOOTH",
"42 685 LINE",
"42 463 LINE",
"54 463 LINE",
"88 606 OFFCURVE",
"141 659 OFFCURVE",
"195 659 CURVE SMOOTH",
"249 659 OFFCURVE",
"287 611 OFFCURVE",
"287 539 CURVE SMOOTH",
"287 452 OFFCURVE",
"226 395 OFFCURVE",
"111 362 CURVE SMOOTH",
"73 351 LINE",
"80 329 LINE",
"110 337 OFFCURVE",
"138 345 OFFCURVE",
"163 352 CURVE",
"239 338 OFFCURVE",
"287 278 OFFCURVE",
"287 205 CURVE SMOOTH",
"287 101 OFFCURVE",
"211 48 OFFCURVE",
"35 22 CURVE",
"37 0 LINE",
"295 35 OFFCURVE",
"421 94 OFFCURVE",
"421 204 CURVE SMOOTH",
"421 280 OFFCURVE",
"370 349 OFFCURVE",
"208 367 CURVE",
"363 420 OFFCURVE",
"416 472 OFFCURVE",
"416 545 CURVE SMOOTH"
);
}
);
width = 466;
}
);
unicode = 0033;
},
{
glyphname = four;
lastChange = "2018-10-31 15:41:34 +0000";
layers = (
{
layerId = "ADA4184A-F967-4A63-B095-B719654E3BB1";
paths = (
{
closed = 1;
nodes = (
"492 174 LINE",
"385 174 LINE",
"385 572 LINE",
"255 358 LINE",
"255 171 LINE",
"77 173 LINE",
"369 687 LINE",
"202 687 LINE",
"35 147 LINE",
"256 145 LINE",
"256 85 LINE",
"176 0 LINE",
"465 0 LINE",
"385 85 LINE",
"385 148 LINE",
"492 148 LINE"
);
}
);
width = 532;
}
);
unicode = 0034;
},
{
glyphname = five;
lastChange = "2018-10-31 15:41:34 +0000";
layers = (
{
layerId = "ADA4184A-F967-4A63-B095-B719654E3BB1";
paths = (
{
closed = 1;
nodes = (
"121 565 LINE",
"409 565 LINE",
"442 712 LINE",
"378 685 LINE",
"107 685 LINE",
"60 319 LINE",
"85 293 LINE",
"91 339 LINE",
"136 372 OFFCURVE",
"173 380 OFFCURVE",
"198 380 CURVE SMOOTH",
"263 380 OFFCURVE",
"308 321 OFFCURVE",
"308 186 CURVE SMOOTH",
"308 67 OFFCURVE",
"269 29 OFFCURVE",
"216 29 CURVE SMOOTH",
"153 29 OFFCURVE",
"94 81 OFFCURVE",
"52 198 CURVE",
"40 198 LINE",
"40 0 LINE",
"179 0 LINE SMOOTH",
"321 0 OFFCURVE",
"442 66 OFFCURVE",
"442 216 CURVE SMOOTH",
"442 336 OFFCURVE",
"366 419 OFFCURVE",
"238 419 CURVE SMOOTH",
"194 419 OFFCURVE",
"144 404 OFFCURVE",
"96 373 CURVE"
);
}
);
width = 487;
}
);
unicode = 0035;
},
{
glyphname = six;
lastChange = "2018-10-31 15:41:34 +0000";
layers = (
{
layerId = "ADA4184A-F967-4A63-B095-B719654E3BB1";
paths = (
{
closed = 1;
nodes = (
"501 339 OFFCURVE",
"417 419 OFFCURVE",
"300 419 CURVE SMOOTH",
"253 419 OFFCURVE",
"211 403 OFFCURVE",
"174 369 CURVE",
"191 513 OFFCURVE",
"265 625 OFFCURVE",
"426 684 CURVE",
"420 703 LINE",
"181 641 OFFCURVE",
"40 459 OFFCURVE",
"40 295 CURVE SMOOTH",
"40 104 OFFCURVE",
"149 -12 OFFCURVE",
"278 -12 CURVE SMOOTH",
"405 -12 OFFCURVE",
"501 81 OFFCURVE",
"501 216 CURVE SMOOTH"
);
},
{
closed = 1;
nodes = (
"170 314 OFFCURVE",
"170 328 OFFCURVE",
"171 342 CURVE",
"201 364 OFFCURVE",
"229 376 OFFCURVE",
"257 376 CURVE SMOOTH",
"326 376 OFFCURVE",
"367 298 OFFCURVE",
"367 163 CURVE SMOOTH",
"367 70 OFFCURVE",
"337 16 OFFCURVE",
"286 16 CURVE SMOOTH",
"214 16 OFFCURVE",
"170 120 OFFCURVE",
"170 300 CURVE SMOOTH"
);
}
);
width = 546;
}
);
unicode = 0036;
},
{
glyphname = seven;
lastChange = "2018-10-31 15:41:34 +0000";
layers = (
{
layerId = "ADA4184A-F967-4A63-B095-B719654E3BB1";
paths = (
{
closed = 1;
nodes = (
"35 487 LINE",
"38 466 LINE",
"116 565 LINE",
"366 565 LINE",
"100 0 LINE",
"228 0 LINE",
"425 685 LINE",
"35 685 LINE"
);
}
);
width = 445;
}
);
unicode = 0037;
},
{
glyphname = eight;
lastChange = "2018-10-31 15:41:34 +0000";
layers = (
{
layerId = "ADA4184A-F967-4A63-B095-B719654E3BB1";
paths = (
{
closed = 1;
nodes = (
"464 260 OFFCURVE",
"420 322 OFFCURVE",
"353 367 CURVE SMOOTH",
"307 397 LINE",
"408 440 OFFCURVE",
"430 499 OFFCURVE",
"430 548 CURVE SMOOTH",
"430 635 OFFCURVE",
"355 697 OFFCURVE",
"250 697 CURVE SMOOTH",
"155 697 OFFCURVE",
"66 635 OFFCURVE",
"66 523 CURVE SMOOTH",
"66 436 OFFCURVE",
"116 383 OFFCURVE",
"174 341 CURVE",
"85 296 OFFCURVE",
"36 239 OFFCURVE",
"36 156 CURVE SMOOTH",
"36 42 OFFCURVE",
"130 -12 OFFCURVE",
"240 -12 CURVE SMOOTH",
"370 -12 OFFCURVE",
"464 76 OFFCURVE",
"464 184 CURVE SMOOTH"
);
},
{
closed = 1;
nodes = (
"270 422 LINE SMOOTH",
"206 465 OFFCURVE",
"148 509 OFFCURVE",
"148 581 CURVE SMOOTH",
"148 639 OFFCURVE",
"197 674 OFFCURVE",
"249 674 CURVE SMOOTH",
"307 674 OFFCURVE",
"338 620 OFFCURVE",
"338 549 CURVE SMOOTH",
"338 490 OFFCURVE",
"319 441 OFFCURVE",
"286 412 CURVE"
);
},
{
closed = 1;
nodes = (
"131 233 OFFCURVE",
"159 289 OFFCURVE",
"198 324 CURVE",
"210 316 LINE",
"254 287 LINE SMOOTH",
"325 240 OFFCURVE",
"367 195 OFFCURVE",
"367 136 CURVE SMOOTH",
"367 60 OFFCURVE",
"317 14 OFFCURVE",
"250 14 CURVE SMOOTH",
"176 14 OFFCURVE",
"131 73 OFFCURVE",
"131 165 CURVE SMOOTH"
);
}
);
width = 502;
}
);
unicode = 0038;
},
{
glyphname = nine;
lastChange = "2018-10-31 15:41:34 +0000";
layers = (
{
layerId = "ADA4184A-F967-4A63-B095-B719654E3BB1";
paths = (
{
closed = 1;
nodes = (
"501 582 OFFCURVE",
"392 698 OFFCURVE",
"263 698 CURVE SMOOTH",
"136 698 OFFCURVE",
"40 605 OFFCURVE",
"40 470 CURVE SMOOTH",
"40 347 OFFCURVE",
"124 267 OFFCURVE",
"241 267 CURVE SMOOTH",
"288 267 OFFCURVE",
"330 283 OFFCURVE",
"367 317 CURVE",
"350 173 OFFCURVE",
"276 61 OFFCURVE",
"115 2 CURVE",
"121 -17 LINE",
"360 45 OFFCURVE",
"501 227 OFFCURVE",
"501 391 CURVE SMOOTH"
);
},
{
closed = 1;
nodes = (
"174 616 OFFCURVE",
"204 670 OFFCURVE",
"255 670 CURVE SMOOTH",
"327 670 OFFCURVE",
"371 566 OFFCURVE",
"371 386 CURVE SMOOTH",
"371 372 OFFCURVE",
"371 358 OFFCURVE",
"370 344 CURVE",
"340 322 OFFCURVE",
"312 310 OFFCURVE",
"284 310 CURVE SMOOTH",
"215 310 OFFCURVE",
"174 388 OFFCURVE",
"174 523 CURVE SMOOTH"
);
}
);
width = 541;
}
);
unicode = 0039;
},
{
glyphname = asterisk;
layers = (
{
layerId = "ADA4184A-F967-4A63-B095-B719654E3BB1";
paths = (
{
closed = 1;
nodes = (
"205 656 LINE",
"168 696 LINE",
"132 654 LINE",
"160 537 LINE",
"178 537 LINE"
);
},
{
closed = 1;
nodes = (
"21 551 LINE",
"5 603 LINE",
"59 613 LINE",
"147 531 LINE",
"138 515 LINE"
);
},
{
closed = 1;
nodes = (
"314 551 LINE",
"331 603 LINE",
"276 613 LINE",
"189 531 LINE",
"198 515 LINE"
);
},
{
closed = 1;
nodes = (
"21 463 LINE",
"5 411 LINE",
"59 400 LINE",
"147 483 LINE",
"138 499 LINE"
);
},
{
closed = 1;
nodes = (
"314 463 LINE",
"331 411 LINE",
"276 400 LINE",
"189 483 LINE",
"198 499 LINE"
);
},
{
closed = 1;
nodes = (
"133 360 LINE",
"170 320 LINE",
"206 362 LINE",
"178 479 LINE",
"160 479 LINE"
);
}
);
width = 335;
}
);
unicode = 002A;
},
{
glyphname = backslash;
lastChange = "2018-11-01 16:30:05 +0000";
layers = (
{
layerId = "ADA4184A-F967-4A63-B095-B719654E3BB1";
paths = (
{
closed = 1;
nodes = (
"28 694 LINE",
"340 -1 LINE",
"375 -1 LINE",
"63 694 LINE"
);
}
);
width = 390;
}
);
unicode = 005C;
},
{
glyphname = bullet;
layers = (
{
layerId = "ADA4184A-F967-4A63-B095-B719654E3BB1";
paths = (
{
closed = 1;
nodes = (
"174 125 LINE",
"302 263 LINE",
"174 402 LINE",
"45 263 LINE"
);
}
);
width = 347;
}
);
unicode = 2022;
},
{
glyphname = colon;
layers = (
{
layerId = "ADA4184A-F967-4A63-B095-B719654E3BB1";
paths = (
{
closed = 1;
nodes = (
"91 243 LINE",
"176 335 LINE",
"91 428 LINE",
"5 335 LINE"
);
},
{
closed = 1;
nodes = (
"91 -26 LINE",
"176 66 LINE",
"91 159 LINE",
"5 66 LINE"
);
}
);
width = 181;
}
);
unicode = 003A;
},
{
glyphname = comma;
layers = (
{
layerId = "ADA4184A-F967-4A63-B095-B719654E3BB1";
paths = (
{
closed = 1;
nodes = (
"69 -109 OFFCURVE",
"194 -36 OFFCURVE",
"194 62 CURVE SMOOTH",
"194 96 OFFCURVE",
"146 139 OFFCURVE",
"113 159 CURVE",
"30 74 LINE",
"69 43 LINE",
"82 29 OFFCURVE",
"98 17 OFFCURVE",
"98 -9 CURVE SMOOTH",
"98 -47 OFFCURVE",
"67 -85 OFFCURVE",
"33 -113 CURVE",
"47 -123 LINE"
);
}
);
width = 227;
}
);
unicode = 002C;
},
{
glyphname = ellipsis;
layers = (
{
layerId = "ADA4184A-F967-4A63-B095-B719654E3BB1";
paths = (
{
closed = 1;
nodes = (
"111 -26 LINE",
"196 66 LINE",
"111 158 LINE",
"25 66 LINE"
);
},
{
closed = 1;
nodes = (
"382 -26 LINE",
"467 66 LINE",
"382 158 LINE",
"296 66 LINE"
);
},
{
closed = 1;
nodes = (
"653 -26 LINE",
"738 66 LINE",
"653 158 LINE",
"567 66 LINE"
);
}
);
width = 763;
}
);
unicode = 2026;
},
{
glyphname = exclam;
lastChange = "2018-11-01 15:08:32 +0000";
layers = (
{
layerId = "ADA4184A-F967-4A63-B095-B719654E3BB1";
paths = (
{
closed = 1;
nodes = (
"100 703 LINE",
"33 657 LINE",
"92 220 LINE",
"108 220 LINE",
"166 657 LINE"
);
},
{
closed = 1;
nodes = (
"105 -26 LINE",
"190 66 LINE",
"105 159 LINE",
"19 66 LINE"
);
}
);
width = 217;
}
);
unicode = 0021;
},
{
glyphname = exclamdown;
lastChange = "2018-11-01 16:30:05 +0000";
layers = (
{
layerId = "ADA4184A-F967-4A63-B095-B719654E3BB1";
paths = (
{
closed = 1;
nodes = (
"112 255 LINE",
"96 255 LINE",
"37 -182 LINE",
"104 -228 LINE",
"170 -182 LINE"
);
},
{
closed = 1;
nodes = (
"109 316 LINE",
"194 409 LINE",
"109 501 LINE",
"23 409 LINE"
);
}
);
width = 217;
}
);
unicode = 00A1;
},
{
glyphname = numbersign;
lastChange = "2018-11-01 16:30:05 +0000";
layers = (
{
layerId = "ADA4184A-F967-4A63-B095-B719654E3BB1";
paths = (
{
closed = 1;
nodes = (
"553 405 LINE",
"439 405 LINE",
"492 608 LINE",
"418 608 LINE",
"365 405 LINE",
"247 405 LINE",
"299 608 LINE",
"225 608 LINE",
"173 405 LINE",
"57 405 LINE",
"57 379 LINE",
"166 379 LINE",
"129 227 LINE",
"30 227 LINE",
"30 202 LINE",
"122 202 LINE",
"68 0 LINE",
"142 0 LINE",
"197 202 LINE",
"315 202 LINE",
"261 0 LINE",
"335 0 LINE",
"389 202 LINE",
"525 202 LINE",
"525 227 LINE",
"395 227 LINE",
"432 379 LINE",
"553 379 LINE"
);
},
{
closed = 1;
nodes = (
"203 227 LINE",
"240 379 LINE",
"358 379 LINE",
"321 227 LINE"
);
}
);
width = 583;
}
);
unicode = 0023;
},
{
glyphname = period;
lastChange = "2018-11-01 17:41:36 +0000";
layers = (
{
layerId = "ADA4184A-F967-4A63-B095-B719654E3BB1";
paths = (
{
closed = 1;
nodes = (
"91 -26 LINE",
"176 66 LINE",
"91 159 LINE",
"5 66 LINE"
);
}
);
width = 181;
}
);
leftKerningGroup = period;
unicode = 002E;
},
{
glyphname = periodcentered;
layers = (
{
layerId = "ADA4184A-F967-4A63-B095-B719654E3BB1";
paths = (
{
closed = 1;
nodes = (
"91 171 LINE",
"176 263 LINE",
"91 356 LINE",
"5 263 LINE"
);
}
);
width = 181;
}
);
unicode = 00B7;
},
{
glyphname = question;
lastChange = "2018-11-01 16:30:05 +0000";
layers = (
{
layerId = "ADA4184A-F967-4A63-B095-B719654E3BB1";
paths = (
{
closed = 1;
nodes = (
"66 695 LINE",
"102 499 LINE",
"112 499 LINE",
"126 573 OFFCURVE",
"154 658 OFFCURVE",
"223 658 CURVE SMOOTH",
"270 658 OFFCURVE",
"308 628 OFFCURVE",
"308 542 CURVE SMOOTH",
"308 449 OFFCURVE",
"250 374 OFFCURVE",
"158 342 CURVE",
"185 220 LINE",
"193 220 LINE",
"212 328 LINE",
"278 362 OFFCURVE",
"459 410 OFFCURVE",
"459 546 CURVE SMOOTH",
"459 677 OFFCURVE",
"296 695 OFFCURVE",
"152 695 CURVE SMOOTH"
);
},
{
closed = 1;
nodes = (
"190 159 LINE",
"104 66 LINE",
"190 -26 LINE",
"275 66 LINE"
);
}
);
width = 503;
}
);
unicode = 003F;
},
{
glyphname = questiondown;
lastChange = "2018-11-01 16:30:05 +0000";
layers = (
{
layerId = "ADA4184A-F967-4A63-B095-B719654E3BB1";
paths = (
{
closed = 1;
nodes = (
"459 -220 LINE",
"423 -24 LINE",
"413 -24 LINE",
"399 -98 OFFCURVE",
"371 -183 OFFCURVE",
"302 -183 CURVE SMOOTH",
"255 -183 OFFCURVE",
"217 -153 OFFCURVE",
"217 -67 CURVE SMOOTH",
"217 26 OFFCURVE",
"275 101 OFFCURVE",
"367 133 CURVE",
"340 255 LINE",
"332 255 LINE",
"313 147 LINE",
"247 113 OFFCURVE",
"66 65 OFFCURVE",
"66 -71 CURVE SMOOTH",
"66 -202 OFFCURVE",
"229 -220 OFFCURVE",
"373 -220 CURVE SMOOTH"
);
},
{
closed = 1;
nodes = (
"335 316 LINE",
"421 409 LINE",
"335 501 LINE",
"250 409 LINE"
);
}
);
width = 503;
}
);
unicode = 00BF;
},
{
glyphname = quotedbl;
layers = (
{
layerId = "ADA4184A-F967-4A63-B095-B719654E3BB1";
paths = (
{
closed = 1;
nodes = (
"98 695 LINE",
"24 695 LINE",
"40 475 LINE",
"80 475 LINE"
);
},
{
closed = 1;
nodes = (
"215 695 LINE",
"141 695 LINE",
"157 475 LINE",
"197 475 LINE"
);
}
);
width = 246;
}
);
unicode = 0022;
},
{
glyphname = quotesingle;
layers = (
{
layerId = "ADA4184A-F967-4A63-B095-B719654E3BB1";
paths = (
{
closed = 1;
nodes = (
"100 695 LINE",
"26 695 LINE",
"42 475 LINE",
"82 475 LINE"
);
}
);
width = 134;
}
);
unicode = 0027;
},
{
glyphname = semicolon;
layers = (
{
layerId = "ADA4184A-F967-4A63-B095-B719654E3BB1";
paths = (
{
closed = 1;
nodes = (
"127 259 LINE",
"212 351 LINE",
"127 444 LINE",
"41 351 LINE"
);
},
{
closed = 1;
nodes = (
"82 -109 OFFCURVE",
"207 -36 OFFCURVE",
"207 62 CURVE SMOOTH",
"207 96 OFFCURVE",
"159 139 OFFCURVE",
"126 159 CURVE",
"43 74 LINE",
"82 43 LINE",
"95 29 OFFCURVE",
"111 17 OFFCURVE",
"111 -9 CURVE SMOOTH",
"111 -47 OFFCURVE",
"80 -85 OFFCURVE",
"46 -113 CURVE",
"60 -123 LINE"
);
}
);
width = 243;
}
);
unicode = 003B;
},
{
glyphname = slash;
lastChange = "2018-11-01 17:41:36 +0000";
layers = (
{
layerId = "ADA4184A-F967-4A63-B095-B719654E3BB1";
paths = (
{
closed = 1;
nodes = (
"28 0 LINE",
"63 0 LINE",
"375 695 LINE",
"340 695 LINE"
);
}
);
width = 403;
}
);
rightKerningGroup = slash;
unicode = 002F;
},
{
glyphname = underscore;
lastChange = "2018-11-01 17:41:36 +0000";
layers = (
{
layerId = "ADA4184A-F967-4A63-B095-B719654E3BB1";
paths = (
{
closed = 1;
nodes = (
"0 -35 LINE",
"556 -35 LINE",
"556 -9 LINE",
"0 -9 LINE"
);
}
);
width = 556;
}
);
leftKerningGroup = period;
unicode = 005F;
},
{
glyphname = exclamdown.case;
lastChange = "2018-11-01 15:10:41 +0000";
layers = (
{
layerId = "ADA4184A-F967-4A63-B095-B719654E3BB1";
paths = (
{
closed = 1;
nodes = (
"108 699 LINE",
"23 607 LINE",
"108 514 LINE",
"194 607 LINE"
);
},
{
closed = 1;
nodes = (
"119 451 LINE",
"103 451 LINE",
"44 14 LINE",
"111 -32 LINE",
"177 14 LINE"
);
}
);
width = 217;
}
);
},
{
glyphname = questiondown.case;
lastChange = "2018-11-01 16:30:05 +0000";
layers = (
{
layerId = "ADA4184A-F967-4A63-B095-B719654E3BB1";
paths = (
{
closed = 1;
nodes = (
"459 -139 LINE",
"423 57 LINE",
"413 57 LINE",
"399 -17 OFFCURVE",
"371 -102 OFFCURVE",
"302 -102 CURVE SMOOTH",
"255 -102 OFFCURVE",
"217 -72 OFFCURVE",
"217 14 CURVE SMOOTH",
"217 107 OFFCURVE",
"275 182 OFFCURVE",
"367 214 CURVE",
"340 336 LINE",
"332 336 LINE",
"313 228 LINE",
"247 194 OFFCURVE",
"66 146 OFFCURVE",
"66 10 CURVE SMOOTH",
"66 -121 OFFCURVE",
"229 -139 OFFCURVE",
"373 -139 CURVE SMOOTH"
);
},
{
closed = 1;
nodes = (
"335 397 LINE",
"421 490 LINE",
"335 582 LINE",
"250 490 LINE"
);
}
);
width = 503;
}
);
},
{
glyphname = braceleft;
lastChange = "2018-11-01 16:30:05 +0000";
layers = (
{
layerId = "ADA4184A-F967-4A63-B095-B719654E3BB1";
paths = (
{
closed = 1;
nodes = (
"48 284 LINE",
"70 297 OFFCURVE",
"144 329 OFFCURVE",
"144 449 CURVE SMOOTH",
"144 500 OFFCURVE",
"135 513 OFFCURVE",
"135 580 CURVE SMOOTH",
"135 670 OFFCURVE",
"163 705 OFFCURVE",
"225 705 CURVE",
"223 726 LINE",
"133 726 OFFCURVE",
"83 685 OFFCURVE",
"83 568 CURVE SMOOTH",
"83 526 OFFCURVE",
"95 472 OFFCURVE",
"95 424 CURVE SMOOTH",
"95 365 OFFCURVE",
"72 331 OFFCURVE",
"53 316 CURVE SMOOTH",
"40 306 OFFCURVE",
"32 303 OFFCURVE",
"11 297 CURVE",
"11 267 LINE",
"32 261 OFFCURVE",
"40 258 OFFCURVE",
"53 248 CURVE SMOOTH",
"72 233 OFFCURVE",
"95 199 OFFCURVE",
"95 140 CURVE SMOOTH",
"95 92 OFFCURVE",
"83 38 OFFCURVE",
"83 -4 CURVE SMOOTH",
"83 -121 OFFCURVE",
"133 -162 OFFCURVE",
"223 -162 CURVE",
"225 -143 LINE",
"163 -143 OFFCURVE",
"135 -108 OFFCURVE",
"135 -16 CURVE SMOOTH",
"135 51 OFFCURVE",
"144 64 OFFCURVE",
"144 115 CURVE SMOOTH",
"144 235 OFFCURVE",
"70 267 OFFCURVE",
"41 280 CURVE"
);
}
);
width = 276;
}
);
unicode = 007B;
},
{
glyphname = braceright;
lastChange = "2018-11-01 16:30:05 +0000";
layers = (
{
layerId = "ADA4184A-F967-4A63-B095-B719654E3BB1";
paths = (
{
closed = 1;
nodes = (
"174 267 OFFCURVE",
"100 235 OFFCURVE",
"100 115 CURVE SMOOTH",
"100 64 OFFCURVE",
"109 51 OFFCURVE",
"109 -16 CURVE SMOOTH",
"109 -108 OFFCURVE",
"81 -143 OFFCURVE",
"19 -143 CURVE",
"21 -162 LINE",
"111 -162 OFFCURVE",
"161 -121 OFFCURVE",
"161 -4 CURVE SMOOTH",
"161 38 OFFCURVE",
"149 92 OFFCURVE",
"149 140 CURVE SMOOTH",
"149 199 OFFCURVE",
"172 233 OFFCURVE",
"191 248 CURVE SMOOTH",
"204 258 OFFCURVE",
"212 261 OFFCURVE",
"233 267 CURVE",
"233 297 LINE",
"212 303 OFFCURVE",
"204 306 OFFCURVE",
"191 316 CURVE SMOOTH",
"172 331 OFFCURVE",
"149 365 OFFCURVE",
"149 424 CURVE SMOOTH",
"149 472 OFFCURVE",
"161 526 OFFCURVE",
"161 568 CURVE SMOOTH",
"161 685 OFFCURVE",
"111 726 OFFCURVE",
"21 726 CURVE",
"19 705 LINE",
"81 705 OFFCURVE",
"109 670 OFFCURVE",
"109 580 CURVE SMOOTH",
"109 513 OFFCURVE",
"100 500 OFFCURVE",
"100 449 CURVE SMOOTH",
"100 329 OFFCURVE",
"174 297 OFFCURVE",
"196 284 CURVE",
"203 280 LINE"
);
}
);
width = 276;
}
);
unicode = 007D;
},
{
glyphname = bracketleft;
lastChange = "2018-11-01 15:01:17 +0000";
layers = (
{
layerId = "ADA4184A-F967-4A63-B095-B719654E3BB1";
paths = (
{
closed = 1;
nodes = (
"196 711 LINE",
"5 711 LINE",
"5 -160 LINE",
"196 -160 LINE",
"196 -135 LINE",
"35 -135 LINE",
"35 685 LINE",
"196 685 LINE"
);
}
);
width = 214;
}
);
unicode = 005B;
},
{
glyphname = bracketright;
lastChange = "2018-11-01 15:01:27 +0000";
layers = (
{
layerId = "ADA4184A-F967-4A63-B095-B719654E3BB1";
paths = (
{
closed = 1;
nodes = (
"169 685 LINE",
"169 -135 LINE",
"8 -135 LINE",
"8 -160 LINE",
"199 -160 LINE",
"199 711 LINE",
"8 711 LINE",
"8 685 LINE"
);
}
);
width = 214;
}
);
unicode = 005D;
},
{
glyphname = parenleft;
lastChange = "2018-11-01 16:30:05 +0000";
layers = (
{
layerId = "ADA4184A-F967-4A63-B095-B719654E3BB1";
paths = (
{
closed = 1;
nodes = (
"266 726 LINE",
"167 630 OFFCURVE",
"31 526 OFFCURVE",
"31 276 CURVE SMOOTH",
"31 26 OFFCURVE",
"167 -88 OFFCURVE",
"266 -174 CURVE",
"276 -164 LINE",
"155 -42 OFFCURVE",
"83 94 OFFCURVE",
"83 276 CURVE SMOOTH",
"83 458 OFFCURVE",
"155 593 OFFCURVE",
"276 716 CURVE"
);
}
);
width = 286;
}
);
unicode = 0028;
},
{
glyphname = parenright;
lastChange = "2018-11-01 16:30:05 +0000";
layers = (
{
layerId = "ADA4184A-F967-4A63-B095-B719654E3BB1";
paths = (
{
closed = 1;
nodes = (
"131 593 OFFCURVE",
"203 458 OFFCURVE",
"203 276 CURVE SMOOTH",
"203 94 OFFCURVE",
"131 -42 OFFCURVE",
"10 -164 CURVE",
"20 -174 LINE",
"119 -88 OFFCURVE",
"255 26 OFFCURVE",
"255 276 CURVE SMOOTH",
"255 526 OFFCURVE",
"119 630 OFFCURVE",
"20 726 CURVE",
"10 716 LINE"
);
}
);
width = 286;
}
);
unicode = 0029;
},
{
glyphname = braceleft.case;
lastChange = "2018-11-01 16:30:05 +0000";
layers = (
{
layerId = "ADA4184A-F967-4A63-B095-B719654E3BB1";
paths = (
{
closed = 1;
nodes = (
"57 349 LINE",
"79 362 OFFCURVE",
"153 394 OFFCURVE",
"153 514 CURVE SMOOTH",
"153 565 OFFCURVE",
"144 578 OFFCURVE",
"144 645 CURVE SMOOTH",
"144 735 OFFCURVE",
"172 770 OFFCURVE",
"234 770 CURVE",
"232 791 LINE",
"142 791 OFFCURVE",
"92 750 OFFCURVE",
"92 633 CURVE SMOOTH",
"92 591 OFFCURVE",
"104 537 OFFCURVE",
"104 489 CURVE SMOOTH",
"104 430 OFFCURVE",
"81 396 OFFCURVE",
"62 381 CURVE SMOOTH",
"49 371 OFFCURVE",
"41 368 OFFCURVE",
"20 362 CURVE",
"20 332 LINE",
"41 326 OFFCURVE",
"49 323 OFFCURVE",
"62 313 CURVE SMOOTH",
"81 298 OFFCURVE",
"104 264 OFFCURVE",
"104 205 CURVE SMOOTH",
"104 157 OFFCURVE",
"92 103 OFFCURVE",
"92 61 CURVE SMOOTH",
"92 -56 OFFCURVE",
"142 -97 OFFCURVE",
"232 -97 CURVE",
"234 -78 LINE",
"172 -78 OFFCURVE",
"144 -43 OFFCURVE",
"144 49 CURVE SMOOTH",
"144 116 OFFCURVE",
"153 129 OFFCURVE",
"153 180 CURVE SMOOTH",
"153 300 OFFCURVE",
"79 332 OFFCURVE",
"50 345 CURVE"
);
}
);
width = 294;
}
);
},
{
glyphname = braceright.case;
lastChange = "2018-11-01 16:30:05 +0000";
layers = (
{
layerId = "ADA4184A-F967-4A63-B095-B719654E3BB1";
paths = (
{
closed = 1;
nodes = (
"215 328 OFFCURVE",
"141 296 OFFCURVE",
"141 176 CURVE SMOOTH",
"141 125 OFFCURVE",
"150 112 OFFCURVE",
"150 45 CURVE SMOOTH",
"150 -47 OFFCURVE",
"122 -82 OFFCURVE",
"60 -82 CURVE",
"62 -101 LINE",
"152 -101 OFFCURVE",
"202 -60 OFFCURVE",
"202 57 CURVE SMOOTH",
"202 99 OFFCURVE",
"190 153 OFFCURVE",
"190 201 CURVE SMOOTH",
"190 260 OFFCURVE",
"213 294 OFFCURVE",
"232 309 CURVE SMOOTH",
"245 319 OFFCURVE",
"253 322 OFFCURVE",
"274 328 CURVE",
"274 358 LINE",
"253 364 OFFCURVE",
"245 367 OFFCURVE",
"232 377 CURVE SMOOTH",
"213 392 OFFCURVE",
"190 426 OFFCURVE",
"190 485 CURVE SMOOTH",
"190 533 OFFCURVE",
"202 587 OFFCURVE",
"202 629 CURVE SMOOTH",
"202 746 OFFCURVE",
"152 787 OFFCURVE",
"62 787 CURVE",
"60 766 LINE",
"122 766 OFFCURVE",
"150 731 OFFCURVE",
"150 641 CURVE SMOOTH",
"150 574 OFFCURVE",
"141 561 OFFCURVE",
"141 510 CURVE SMOOTH",
"141 390 OFFCURVE",
"215 358 OFFCURVE",
"237 345 CURVE",
"244 341 LINE"
);
}
);
width = 294;
}
);
},
{
glyphname = bracketleft.case;
lastChange = "2018-11-01 15:02:16 +0000";
layers = (
{
layerId = "ADA4184A-F967-4A63-B095-B719654E3BB1";
paths = (
{
closed = 1;
nodes = (
"202 778 LINE",
"11 778 LINE",
"11 -93 LINE",
"202 -93 LINE",
"202 -68 LINE",
"41 -68 LINE",
"41 752 LINE",
"202 752 LINE"
);
}
);
width = 237;
}
);
},
{
glyphname = bracketright.case;
lastChange = "2018-11-01 15:02:24 +0000";
layers = (
{
layerId = "ADA4184A-F967-4A63-B095-B719654E3BB1";
paths = (
{
closed = 1;
nodes = (
"196 752 LINE",
"196 -68 LINE",
"35 -68 LINE",
"35 -93 LINE",
"226 -93 LINE",
"226 778 LINE",
"35 778 LINE",
"35 752 LINE"
);
}
);
width = 237;
}
);
},
{
glyphname = parenleft.case;
lastChange = "2018-11-01 16:30:05 +0000";
layers = (
{
layerId = "ADA4184A-F967-4A63-B095-B719654E3BB1";
paths = (
{
closed = 1;
nodes = (
"275 792 LINE",
"176 696 OFFCURVE",
"40 592 OFFCURVE",
"40 342 CURVE SMOOTH",
"40 92 OFFCURVE",
"176 -22 OFFCURVE",
"275 -108 CURVE",
"285 -98 LINE",
"164 24 OFFCURVE",
"92 160 OFFCURVE",
"92 342 CURVE SMOOTH",
"92 524 OFFCURVE",
"164 659 OFFCURVE",
"285 782 CURVE"
);
}
);
width = 295;
}
);
},
{
glyphname = parenright.case;
lastChange = "2018-11-01 16:30:05 +0000";
layers = (
{
layerId = "ADA4184A-F967-4A63-B095-B719654E3BB1";
paths = (
{
closed = 1;
nodes = (
"131 660 OFFCURVE",
"203 525 OFFCURVE",
"203 343 CURVE SMOOTH",
"203 161 OFFCURVE",
"131 25 OFFCURVE",
"10 -97 CURVE",
"20 -107 LINE",
"119 -21 OFFCURVE",
"255 93 OFFCURVE",
"255 343 CURVE SMOOTH",
"255 593 OFFCURVE",
"119 697 OFFCURVE",
"20 793 CURVE",
"10 783 LINE"
);
}
);
width = 295;
}
);
},
{
glyphname = emdash;
lastChange = "2018-11-01 15:02:52 +0000";
layers = (
{
layerId = "ADA4184A-F967-4A63-B095-B719654E3BB1";
paths = (
{
closed = 1;
nodes = (
"0 263 LINE",
"900 263 LINE",
"900 289 LINE",
"0 289 LINE"
);
}
);
width = 900;
}
);
unicode = 2014;
},
{
glyphname = endash;
lastChange = "2018-11-01 15:03:01 +0000";
layers = (
{
layerId = "ADA4184A-F967-4A63-B095-B719654E3BB1";
paths = (
{
closed = 1;
nodes = (
"0 263 LINE",
"500 263 LINE",
"500 289 LINE",
"0 289 LINE"
);
}
);
width = 500;
}
);
unicode = 2013;
},
{
glyphname = hyphen;
lastChange = "2018-11-01 17:41:36 +0000";
layers = (
{
layerId = "ADA4184A-F967-4A63-B095-B719654E3BB1";
paths = (
{
closed = 1;
nodes = (
"30 263 LINE",
"275 263 LINE",
"275 289 LINE",
"30 289 LINE"
);
}
);
width = 294;
}
);
leftKerningGroup = period;
unicode = 002D;
},
{
glyphname = softhyphen;
lastChange = "2018-11-01 15:03:19 +0000";
layers = (
{
layerId = "ADA4184A-F967-4A63-B095-B719654E3BB1";
paths = (
{
closed = 1;
nodes = (
"6 265 LINE",
"440 265 LINE",
"440 291 LINE",
"6 291 LINE"
);
}
);
width = 446;
}
);
unicode = 00AD;
},
{
glyphname = emdash.case;
lastChange = "2018-11-01 15:03:45 +0000";
layers = (
{
layerId = "ADA4184A-F967-4A63-B095-B719654E3BB1";
paths = (
{
closed = 1;
nodes = (
"0 330 LINE",
"900 330 LINE",
"900 356 LINE",
"0 356 LINE"
);
}
);
width = 900;
}
);
},
{
glyphname = endash.case;
lastChange = "2018-11-01 15:03:54 +0000";
layers = (
{
layerId = "ADA4184A-F967-4A63-B095-B719654E3BB1";
paths = (
{
closed = 1;
nodes = (
"0 330 LINE",
"500 330 LINE",
"500 356 LINE",
"0 356 LINE"
);
}
);
width = 500;
}
);
},
{
glyphname = hyphen.case;
lastChange = "2018-11-01 17:41:36 +0000";
layers = (
{
layerId = "ADA4184A-F967-4A63-B095-B719654E3BB1";
paths = (
{
closed = 1;
nodes = (
"30 326 LINE",
"275 326 LINE",
"275 352 LINE",
"30 352 LINE"
);
}
);
width = 294;
}
);
leftKerningGroup = period;
},
{
glyphname = softhyphen.case;
lastChange = "2018-11-01 15:04:14 +0000";
layers = (
{
layerId = "ADA4184A-F967-4A63-B095-B719654E3BB1";
paths = (
{
closed = 1;
nodes = (
"6 330 LINE",
"440 330 LINE",
"440 356 LINE",
"6 356 LINE"
);
}
);
width = 446;
}
);
},
{
glyphname = guillemotleft;
layers = (
{
layerId = "ADA4184A-F967-4A63-B095-B719654E3BB1";
paths = (
{
closed = 1;
nodes = (
"290 457 LINE",
"280 474 LINE",
"12 246 LINE",
"280 18 LINE",
"290 28 LINE",
"178 246 LINE",
"68 246 LINE"
);
},
{
closed = 1;
nodes = (
"511 457 LINE",
"501 474 LINE",
"233 246 LINE",
"501 18 LINE",
"511 28 LINE",
"399 246 LINE",
"289 246 LINE"
);
}
);
width = 512;
}
);
unicode = 00AB;
},
{
glyphname = guillemotright;
layers = (
{
layerId = "ADA4184A-F967-4A63-B095-B719654E3BB1";
paths = (
{
closed = 1;
nodes = (
"7 35 LINE",
"17 18 LINE",
"285 246 LINE",
"17 474 LINE",
"7 464 LINE",
"119 246 LINE",
"229 246 LINE"
);
},
{
closed = 1;
nodes = (
"228 35 LINE",
"238 18 LINE",
"506 246 LINE",
"238 474 LINE",
"228 464 LINE",
"340 246 LINE",
"450 246 LINE"
);
}
);
width = 512;
}
);
unicode = 00BB;
},
{
glyphname = guilsinglleft;
layers = (
{
layerId = "ADA4184A-F967-4A63-B095-B719654E3BB1";
paths = (
{
closed = 1;
nodes = (
"290 464 LINE",
"280 474 LINE",
"12 246 LINE",
"280 18 LINE",
"290 28 LINE",
"178 246 LINE",
"68 246 LINE"
);
}
);
width = 296;
}
);
unicode = 2039;
},
{
glyphname = guilsinglright;
layers = (
{
layerId = "ADA4184A-F967-4A63-B095-B719654E3BB1";
paths = (
{
closed = 1;
nodes = (
"6 28 LINE",
"16 18 LINE",
"284 246 LINE",
"16 474 LINE",
"6 464 LINE",
"118 246 LINE",
"228 246 LINE"
);
}
);
width = 296;
}
);
unicode = 203A;
},
{
glyphname = quotedblbase;
layers = (
{
layerId = "ADA4184A-F967-4A63-B095-B719654E3BB1";
paths = (
{
closed = 1;
nodes = (
"69 -108 OFFCURVE",
"194 -35 OFFCURVE",
"194 63 CURVE SMOOTH",
"194 97 OFFCURVE",
"146 140 OFFCURVE",
"113 160 CURVE",
"30 75 LINE",
"69 44 LINE",
"82 30 OFFCURVE",
"98 18 OFFCURVE",
"98 -8 CURVE SMOOTH",
"98 -46 OFFCURVE",
"67 -84 OFFCURVE",
"33 -112 CURVE",
"47 -122 LINE"
);
},
{
closed = 1;
nodes = (
"269 -108 OFFCURVE",
"394 -35 OFFCURVE",
"394 63 CURVE SMOOTH",
"394 97 OFFCURVE",
"346 140 OFFCURVE",
"313 160 CURVE",
"230 75 LINE",
"269 44 LINE",
"282 30 OFFCURVE",
"298 18 OFFCURVE",
"298 -8 CURVE SMOOTH",
"298 -46 OFFCURVE",
"267 -84 OFFCURVE",
"233 -112 CURVE",
"247 -122 LINE"
);
}
);
width = 427;
}
);
unicode = 201E;
},
{
glyphname = quotedblleft;
layers = (
{
layerId = "ADA4184A-F967-4A63-B095-B719654E3BB1";
paths = (
{
closed = 1;
nodes = (
"155 697 OFFCURVE",
"30 624 OFFCURVE",
"30 526 CURVE SMOOTH",
"30 492 OFFCURVE",
"78 449 OFFCURVE",
"111 429 CURVE",
"194 514 LINE",
"155 545 LINE",
"142 559 OFFCURVE",
"126 571 OFFCURVE",
"126 597 CURVE SMOOTH",
"126 635 OFFCURVE",
"157 673 OFFCURVE",
"191 701 CURVE",
"177 711 LINE"
);
},
{
closed = 1;
nodes = (
"355 697 OFFCURVE",
"230 624 OFFCURVE",
"230 526 CURVE SMOOTH",
"230 492 OFFCURVE",
"278 449 OFFCURVE",
"311 429 CURVE",
"394 514 LINE",
"355 545 LINE",
"342 559 OFFCURVE",
"326 571 OFFCURVE",
"326 597 CURVE SMOOTH",
"326 635 OFFCURVE",
"357 673 OFFCURVE",
"391 701 CURVE",
"377 711 LINE"
);
}
);
width = 425;
}
);
unicode = 201C;
},
{
glyphname = quotedblright;
layers = (
{
layerId = "ADA4184A-F967-4A63-B095-B719654E3BB1";
paths = (
{
closed = 1;
nodes = (
"69 443 OFFCURVE",
"194 516 OFFCURVE",
"194 614 CURVE SMOOTH",
"194 648 OFFCURVE",
"146 691 OFFCURVE",
"113 711 CURVE",
"30 626 LINE",
"69 595 LINE",
"82 581 OFFCURVE",
"98 569 OFFCURVE",
"98 543 CURVE SMOOTH",
"98 505 OFFCURVE",
"67 467 OFFCURVE",
"33 439 CURVE",
"47 429 LINE"
);
},
{
closed = 1;
nodes = (
"269 443 OFFCURVE",
"394 516 OFFCURVE",
"394 614 CURVE SMOOTH",
"394 648 OFFCURVE",
"346 691 OFFCURVE",
"313 711 CURVE",
"230 626 LINE",
"269 595 LINE",
"282 581 OFFCURVE",
"298 569 OFFCURVE",
"298 543 CURVE SMOOTH",
"298 505 OFFCURVE",
"267 467 OFFCURVE",
"233 439 CURVE",
"247 429 LINE"
);
}
);
width = 425;
}
);
unicode = 201D;
},
{
glyphname = quoteleft;
layers = (
{
layerId = "ADA4184A-F967-4A63-B095-B719654E3BB1";
paths = (
{
closed = 1;
nodes = (
"155 697 OFFCURVE",
"30 624 OFFCURVE",
"30 526 CURVE SMOOTH",
"30 492 OFFCURVE",
"78 449 OFFCURVE",
"111 429 CURVE",
"194 514 LINE",
"155 545 LINE",
"142 559 OFFCURVE",
"126 571 OFFCURVE",
"126 597 CURVE SMOOTH",
"126 635 OFFCURVE",
"157 673 OFFCURVE",
"191 701 CURVE",
"177 711 LINE"
);
}
);
width = 248;
}
);
unicode = 2018;
},
{
glyphname = quoteright;
layers = (
{
layerId = "ADA4184A-F967-4A63-B095-B719654E3BB1";
paths = (
{
closed = 1;
nodes = (
"69 443 OFFCURVE",
"194 516 OFFCURVE",
"194 614 CURVE SMOOTH",
"194 648 OFFCURVE",
"146 691 OFFCURVE",
"113 711 CURVE",
"30 626 LINE",
"69 595 LINE",
"82 581 OFFCURVE",
"98 569 OFFCURVE",
"98 543 CURVE SMOOTH",
"98 505 OFFCURVE",
"67 467 OFFCURVE",
"33 439 CURVE",
"47 429 LINE"
);
}
);
width = 248;
}
);
unicode = 2019;
},
{
glyphname = quotesinglbase;
layers = (
{
layerId = "ADA4184A-F967-4A63-B095-B719654E3BB1";
paths = (
{
closed = 1;
nodes = (
"69 -109 OFFCURVE",
"194 -36 OFFCURVE",
"194 62 CURVE SMOOTH",
"194 96 OFFCURVE",
"146 139 OFFCURVE",
"113 159 CURVE",
"30 74 LINE",
"69 43 LINE",
"82 29 OFFCURVE",
"98 17 OFFCURVE",
"98 -9 CURVE SMOOTH",
"98 -47 OFFCURVE",
"67 -85 OFFCURVE",
"33 -113 CURVE",
"47 -123 LINE"
);
}
);
width = 227;
}
);
unicode = 201A;
},
{
glyphname = guillemotleft.case;
layers = (
{
layerId = "ADA4184A-F967-4A63-B095-B719654E3BB1";
paths = (
{
closed = 1;
nodes = (
"290 549 LINE",
"280 566 LINE",
"12 338 LINE",
"280 110 LINE",
"290 120 LINE",
"178 338 LINE",
"68 338 LINE"
);
},
{
closed = 1;
nodes = (
"511 549 LINE",
"501 566 LINE",
"233 338 LINE",
"501 110 LINE",
"511 120 LINE",
"399 338 LINE",
"289 338 LINE"
);
}
);
width = 512;
}
);
},
{
glyphname = guillemotright.case;
layers = (
{
layerId = "ADA4184A-F967-4A63-B095-B719654E3BB1";
paths = (
{
closed = 1;
nodes = (
"12 127 LINE",
"22 110 LINE",
"290 338 LINE",
"22 566 LINE",
"12 556 LINE",
"124 338 LINE",
"234 338 LINE"
);
},
{
closed = 1;
nodes = (
"233 127 LINE",
"243 110 LINE",
"511 338 LINE",
"243 566 LINE",
"233 556 LINE",
"345 338 LINE",
"455 338 LINE"
);
}
);
width = 512;
}
);
},
{
glyphname = guilsinglleft.case;
layers = (
{
layerId = "ADA4184A-F967-4A63-B095-B719654E3BB1";
paths = (
{
closed = 1;
nodes = (
"287 549 LINE",
"277 566 LINE",
"9 338 LINE",
"277 110 LINE",
"287 120 LINE",
"175 338 LINE",
"65 338 LINE"
);
}
);
width = 296;
}
);
},
{
glyphname = guilsinglright.case;
layers = (
{
layerId = "ADA4184A-F967-4A63-B095-B719654E3BB1";
paths = (
{
closed = 1;
nodes = (
"12 127 LINE",
"22 110 LINE",
"290 338 LINE",
"22 566 LINE",
"12 556 LINE",
"124 338 LINE",
"234 338 LINE"
);
}
);
width = 296;
}
);
},
{
glyphname = florin;
lastChange = "2018-11-01 16:01:07 +0000";
layers = (
{
layerId = "ADA4184A-F967-4A63-B095-B719654E3BB1";
paths = (
{
closed = 1;
nodes = (
"391 783 LINE SMOOTH",
"264 783 OFFCURVE",
"217 638 OFFCURVE",
"209 518 CURVE SMOOTH",
"207 490 LINE",
"115 490 LINE",
"115 441 LINE",
"204 443 LINE",
"175 -17 LINE SMOOTH",
"169 -113 OFFCURVE",
"165 -166 OFFCURVE",
"118 -166 CURVE SMOOTH",
"75 -166 OFFCURVE",
"30 -102 OFFCURVE",
"-5 -31 CURVE",
"-12 -31 LINE",
"-12 -191 LINE",
"108 -191 LINE SMOOTH",
"235 -191 OFFCURVE",
"282 -46 OFFCURVE",
"290 74 CURVE SMOOTH",
"314 445 LINE",
"479 449 LINE",
"479 490 LINE",
"316 490 LINE",
"324 609 LINE SMOOTH",
"329 693 OFFCURVE",
"334 758 OFFCURVE",
"381 758 CURVE SMOOTH",
"424 758 OFFCURVE",
"469 704 OFFCURVE",
"504 623 CURVE",
"511 623 LINE",
"511 783 LINE"
);
}
);
width = 600;
}
);
unicode = 0192;
},
{
glyphname = cent;
lastChange = "2018-11-01 16:30:05 +0000";
layers = (
{
layerId = "ADA4184A-F967-4A63-B095-B719654E3BB1";
paths = (
{
closed = 1;
nodes = (
"375 386 LINE",
"375 551 LINE",
"278 551 LINE SMOOTH",
"130 551 OFFCURVE",
"25 441 OFFCURVE",
"25 284 CURVE SMOOTH",
"25 139 OFFCURVE",
"115 54 OFFCURVE",
"232 54 CURVE SMOOTH",
"318 54 OFFCURVE",
"380 109 OFFCURVE",
"411 213 CURVE",
"403 217 LINE",
"375 164 OFFCURVE",
"322 131 OFFCURVE",
"266 131 CURVE SMOOTH",
"179 131 OFFCURVE",
"120 212 OFFCURVE",
"121 342 CURVE SMOOTH",
"122 454 OFFCURVE",
"168 529 OFFCURVE",
"238 529 CURVE SMOOTH",
"297 529 OFFCURVE",
"352 465 OFFCURVE",
"367 386 CURVE"
);
},
{
closed = 1;
nodes = (
"207 -58 LINE",
"218 -58 LINE",
"303 647 LINE",
"240 647 LINE"
);
}
);
width = 426;
}
);
unicode = 00A2;
},
{
glyphname = currency;
layers = (
{
layerId = "ADA4184A-F967-4A63-B095-B719654E3BB1";
paths = (
{
closed = 1;
nodes = (
"50 458 LINE",
"114 397 LINE",
"96 373 OFFCURVE",
"85 342 OFFCURVE",
"85 309 CURVE SMOOTH",
"85 275 OFFCURVE",
"96 244 OFFCURVE",
"115 219 CURVE",
"50 157 LINE",
"80 125 LINE",
"146 188 LINE",
"171 171 OFFCURVE",
"201 161 OFFCURVE",
"233 161 CURVE SMOOTH",
"265 161 OFFCURVE",
"294 170 OFFCURVE",
"318 187 CURVE",
"383 125 LINE",
"413 157 LINE",
"350 217 LINE",
"369 242 OFFCURVE",
"381 274 OFFCURVE",
"381 309 CURVE SMOOTH",
"381 343 OFFCURVE",
"370 374 OFFCURVE",
"351 399 CURVE",
"413 458 LINE",
"383 490 LINE",
"319 429 LINE",
"295 446 OFFCURVE",
"265 457 OFFCURVE",
"233 457 CURVE SMOOTH",
"200 457 OFFCURVE",
"170 446 OFFCURVE",
"145 428 CURVE",
"80 490 LINE"
);
},
{
closed = 1;
nodes = (
"127 368 OFFCURVE",
"174 415 OFFCURVE",
"233 415 CURVE SMOOTH",
"292 415 OFFCURVE",
"340 368 OFFCURVE",
"340 309 CURVE SMOOTH",
"340 250 OFFCURVE",
"292 203 OFFCURVE",
"233 203 CURVE SMOOTH",
"174 203 OFFCURVE",
"127 250 OFFCURVE",
"127 309 CURVE SMOOTH"
);
}
);
width = 466;
}
);
unicode = 00A4;
},
{
glyphname = dollar;
lastChange = "2018-11-01 16:30:05 +0000";
layers = (
{
layerId = "ADA4184A-F967-4A63-B095-B719654E3BB1";
paths = (
{
closed = 1;
nodes = (
"32 256 LINE",
"42 24 LINE",
"85 4 OFFCURVE",
"148 -8 OFFCURVE",
"202 -8 CURVE SMOOTH",
"315 -8 OFFCURVE",
"397 58 OFFCURVE",
"397 160 CURVE SMOOTH",
"397 356 OFFCURVE",
"119 330 OFFCURVE",
"119 497 CURVE SMOOTH",
"119 547 OFFCURVE",
"144 574 OFFCURVE",
"184 573 CURVE SMOOTH",
"248 574 OFFCURVE",
"316 505 OFFCURVE",
"347 400 CURVE",
"356 400 LINE",
"356 611 LINE",
"313 597 LINE",
"206 597 LINE SMOOTH",
"106 598 OFFCURVE",
"30 544 OFFCURVE",
"30 444 CURVE SMOOTH",
"30 239 OFFCURVE",
"301 275 OFFCURVE",
"301 108 CURVE SMOOTH",
"301 52 OFFCURVE",
"267 17 OFFCURVE",
"214 16 CURVE SMOOTH",
"134 15 OFFCURVE",
"87 119 OFFCURVE",
"40 256 CURVE"
);
},
{
closed = 1;
nodes = (
"184 -60 LINE",
"195 -60 LINE",
"247 648 LINE",
"184 648 LINE"
);
}
);
width = 427;
}
);
unicode = 0024;
},
{
glyphname = Euro;
lastChange = "2018-11-01 16:30:05 +0000";
layers = (
{
layerId = "ADA4184A-F967-4A63-B095-B719654E3BB1";
paths = (
{
closed = 1;
nodes = (
"530 396 LINE",
"530 595 LINE",
"413 595 LINE SMOOTH",
"235 595 OFFCURVE",
"108 462 OFFCURVE",
"108 272 CURVE SMOOTH",
"108 97 OFFCURVE",
"216 -5 OFFCURVE",
"358 -5 CURVE SMOOTH",
"462 -5 OFFCURVE",
"537 61 OFFCURVE",
"574 187 CURVE",
"564 191 LINE",
"530 127 OFFCURVE",
"467 87 OFFCURVE",
"399 87 CURVE SMOOTH",
"294 87 OFFCURVE",
"223 185 OFFCURVE",
"223 343 CURVE SMOOTH",
"223 478 OFFCURVE",
"280 568 OFFCURVE",
"365 568 CURVE SMOOTH",
"436 568 OFFCURVE",
"502 491 OFFCURVE",
"521 396 CURVE"
);
},
{
closed = 1;
nodes = (
"20 340 LINE",
"384 360 LINE",
"384 378 LINE",
"20 388 LINE"
);
},
{
closed = 1;
nodes = (
"8 227 LINE",
"372 247 LINE",
"372 265 LINE",
"8 275 LINE"
);
}
);
width = 604;
}
);
unicode = 20AC;
},
{
glyphname = sterling;
lastChange = "2018-11-01 16:30:05 +0000";
layers = (
{
layerId = "ADA4184A-F967-4A63-B095-B719654E3BB1";
paths = (
{
closed = 1;
nodes = (
"470 170 LINE",
"464 170 LINE",
"355 40 LINE",
"131 25 LINE",
"108 25 LINE",
"219 83 OFFCURVE",
"277 170 OFFCURVE",
"277 335 CURVE",
"383 336 LINE",
"401 358 LINE",
"269 358 LINE",
"258 382 OFFCURVE",
"235 423 OFFCURVE",
"235 479 CURVE SMOOTH",
"235 553 OFFCURVE",
"269 570 OFFCURVE",
"296 570 CURVE SMOOTH",
"345 570 OFFCURVE",
"406 514 OFFCURVE",
"424 396 CURVE",
"431 396 LINE",
"431 595 LINE",
"351 595 LINE SMOOTH",
"199 595 OFFCURVE",
"138 442 OFFCURVE",
"133 356 CURVE",
"50 356 LINE",
"50 331 LINE",
"133 333 LINE",
"133 280 LINE SMOOTH",
"133 58 OFFCURVE",
"77 46 OFFCURVE",
"52 44 CURVE",
"49 44 LINE",
"8 0 LINE",
"454 0 LINE"
);
},
{
closed = 1;
nodes = (
"38 318 LINE",
"402 338 LINE",
"402 356 LINE",
"38 366 LINE"
);
}
);
width = 517;
}
);
unicode = 00A3;
},
{
glyphname = yen;
lastChange = "2018-11-01 21:01:48 +0000";
layers = (
{
layerId = "ADA4184A-F967-4A63-B095-B719654E3BB1";
paths = (
{
closed = 1;
nodes = (
"570 501 LINE",
"673 595 LINE",
"428 595 LINE",
"513 491 LINE",
"382 313 LINE",
"366 336 LINE",
"248 489 LINE",
"249 489 LINE",
"334 595 LINE",
"30 595 LINE",
"121 489 LINE",
"282 282 LINE",
"282 257 LINE",
"282 257 LINE",
"282 201 LINE",
"282 201 LINE",
"282 176 LINE",
"282 176 LINE",
"282 84 LINE",
"198 0 LINE",
"496 0 LINE",
"412 84 LINE",
"412 176 LINE",
"412 176 LINE",
"412 202 LINE",
"412 202 LINE",
"412 257 LINE",
"412 257 LINE",
"412 283 LINE",
"412 283 LINE"
);
},
{
closed = 1;
nodes = (
"166 245 LINE",
"530 265 LINE",
"530 283 LINE",
"166 293 LINE"
);
},
{
closed = 1;
nodes = (
"167 200 LINE",
"167 182 LINE",
"531 162 LINE",
"531 210 LINE"
);
}
);
width = 703;
}
);
unicode = 00A5;
},
{
glyphname = approxequal;
layers = (
{
layerId = "ADA4184A-F967-4A63-B095-B719654E3BB1";
paths = (
{
closed = 1;
nodes = (
"108 396 LINE",
"45 290 LINE",
"59 281 LINE",
"99 324 LINE",
"347 311 LINE",
"406 411 LINE",
"391 417 LINE",
"347 383 LINE"
);
},
{
closed = 1;
nodes = (
"108 224 LINE",
"45 118 LINE",
"59 109 LINE",
"99 152 LINE",
"347 139 LINE",
"406 239 LINE",
"391 245 LINE",
"347 211 LINE"
);
}
);
width = 451;
}
);
unicode = 2248;
},
{
glyphname = asciitilde;
layers = (
{
layerId = "ADA4184A-F967-4A63-B095-B719654E3BB1";
paths = (
{
closed = 1;
nodes = (
"110 565 LINE",
"47 456 LINE",
"61 447 LINE",
"101 490 LINE",
"320 477 LINE",
"379 580 LINE",
"364 586 LINE",
"320 552 LINE"
);
}
);
width = 399;
}
);
unicode = 007E;
},
{
glyphname = divide;
lastChange = "2018-11-01 16:30:05 +0000";
layers = (
{
layerId = "ADA4184A-F967-4A63-B095-B719654E3BB1";
paths = (
{
closed = 1;
nodes = (
"222 346 LINE",
"305 437 LINE",
"222 527 LINE",
"138 437 LINE"
);
},
{
closed = 1;
nodes = (
"222 25 LINE",
"305 116 LINE",
"222 206 LINE",
"138 116 LINE"
);
},
{
closed = 1;
nodes = (
"23 263 LINE",
"424 263 LINE",
"424 289 LINE",
"23 289 LINE"
);
}
);
width = 447;
}
);
unicode = 00F7;
},
{
glyphname = emptyset;
layers = (
{
layerId = "ADA4184A-F967-4A63-B095-B719654E3BB1";
paths = (
{
closed = 1;
nodes = (
"550 501 LINE",
"478 432 LINE",
"433 474 OFFCURVE",
"372 500 OFFCURVE",
"305 500 CURVE SMOOTH",
"164 500 OFFCURVE",
"50 386 OFFCURVE",
"50 245 CURVE SMOOTH",
"50 182 OFFCURVE",
"73 124 OFFCURVE",
"111 79 CURVE",
"40 11 LINE",
"60 -11 LINE",
"132 58 LINE",
"177 16 OFFCURVE",
"238 -10 OFFCURVE",
"305 -10 CURVE SMOOTH",
"446 -10 OFFCURVE",
"560 104 OFFCURVE",
"560 245 CURVE SMOOTH",
"560 308 OFFCURVE",
"537 366 OFFCURVE",
"499 411 CURVE",
"570 479 LINE"
);
},
{
closed = 1;
nodes = (
"106 143 OFFCURVE",
"87 192 OFFCURVE",
"87 245 CURVE SMOOTH",
"87 366 OFFCURVE",
"184 463 OFFCURVE",
"305 463 CURVE SMOOTH",
"362 463 OFFCURVE",
"413 442 OFFCURVE",
"452 407 CURVE",
"138 105 LINE"
);
},
{
closed = 1;
nodes = (
"504 347 OFFCURVE",
"523 298 OFFCURVE",
"523 245 CURVE SMOOTH",
"523 124 OFFCURVE",
"426 27 OFFCURVE",
"305 27 CURVE SMOOTH",
"248 27 OFFCURVE",
"197 48 OFFCURVE",
"158 83 CURVE",
"472 385 LINE"
);
}
);
width = 610;
}
);
unicode = 2205;
},
{
glyphname = equal;
lastChange = "2018-11-01 16:30:05 +0000";
layers = (
{
layerId = "ADA4184A-F967-4A63-B095-B719654E3BB1";
paths = (
{
closed = 1;
nodes = (
"45 333 LINE",
"427 333 LINE",
"427 359 LINE",
"45 359 LINE"
);
},
{
closed = 1;
nodes = (
"45 175 LINE",
"427 175 LINE",
"427 201 LINE",
"45 201 LINE"
);
}
);
width = 488;
}
);
unicode = 003D;
},
{
glyphname = greater;
lastChange = "2018-11-01 16:30:05 +0000";
layers = (
{
layerId = "ADA4184A-F967-4A63-B095-B719654E3BB1";
paths = (
{
closed = 1;
nodes = (
"521 254 LINE",
"521 283 LINE",
"46 461 LINE",
"46 382 LINE",
"358 255 LINE",
"46 96 LINE",
"46 67 LINE"
);
}
);
width = 566;
}
);
unicode = 003E;
},
{
glyphname = greaterequal;
lastChange = "2018-11-01 16:30:05 +0000";
layers = (
{
layerId = "ADA4184A-F967-4A63-B095-B719654E3BB1";
paths = (
{
closed = 1;
nodes = (
"478 353 LINE",
"478 379 LINE",
"47 541 LINE",
"47 469 LINE",
"330 354 LINE",
"47 209 LINE",
"47 183 LINE"
);
},
{
closed = 1;
nodes = (
"45 69 LINE",
"487 69 LINE",
"487 95 LINE",
"45 95 LINE"
);
}
);
width = 532;
}
);
unicode = 2265;
},
{
glyphname = infinity;
layers = (
{
layerId = "ADA4184A-F967-4A63-B095-B719654E3BB1";
paths = (
{
closed = 1;
nodes = (
"516 350 OFFCURVE",
"486 418 OFFCURVE",
"425 418 CURVE SMOOTH",
"376 418 OFFCURVE",
"347 386 OFFCURVE",
"323 349 CURVE",
"290 398 OFFCURVE",
"256 434 OFFCURVE",
"184 434 CURVE SMOOTH",
"76 434 OFFCURVE",
"40 334 OFFCURVE",
"40 276 CURVE SMOOTH",
"40 204 OFFCURVE",
"86 144 OFFCURVE",
"151 144 CURVE SMOOTH",
"222 144 OFFCURVE",
"252 187 OFFCURVE",
"276 224 CURVE",
"309 186 OFFCURVE",
"335 150 OFFCURVE",
"396 150 CURVE SMOOTH",
"479 150 OFFCURVE",
"516 228 OFFCURVE",
"516 297 CURVE SMOOTH"
);
},
{
closed = 1;
nodes = (
"353 361 OFFCURVE",
"381 369 OFFCURVE",
"415 369 CURVE SMOOTH",
"473 369 OFFCURVE",
"494 327 OFFCURVE",
"494 291 CURVE SMOOTH",
"494 253 OFFCURVE",
"470 217 OFFCURVE",
"423 217 CURVE SMOOTH",
"376 217 OFFCURVE",
"358 276 OFFCURVE",
"332 332 CURVE"
);
},
{
closed = 1;
nodes = (
"246 215 OFFCURVE",
"206 193 OFFCURVE",
"155 193 CURVE SMOOTH",
"107 193 OFFCURVE",
"62 221 OFFCURVE",
"62 277 CURVE SMOOTH",
"62 332 OFFCURVE",
"89 361 OFFCURVE",
"147 361 CURVE SMOOTH",
"222 361 OFFCURVE",
"239 308 OFFCURVE",
"266 246 CURVE"
);
}
);
width = 556;
}
);
unicode = 221E;
},
{
glyphname = integral;
lastChange = "2018-11-01 16:30:05 +0000";
layers = (
{
layerId = "ADA4184A-F967-4A63-B095-B719654E3BB1";
paths = (
{
closed = 1;
nodes = (
"406 783 LINE",
"311 783 LINE SMOOTH",
"184 783 OFFCURVE",
"124 638 OFFCURVE",
"129 518 CURVE SMOOTH",
"151 -17 LINE SMOOTH",
"155 -118 OFFCURVE",
"141 -171 OFFCURVE",
"94 -171 CURVE SMOOTH",
"51 -171 OFFCURVE",
"26 -102 OFFCURVE",
"-5 -31 CURVE",
"-12 -31 LINE",
"-12 -191 LINE",
"84 -191 LINE SMOOTH",
"211 -191 OFFCURVE",
"271 -46 OFFCURVE",
"266 74 CURVE SMOOTH",
"244 609 LINE SMOOTH",
"240 708 OFFCURVE",
"254 763 OFFCURVE",
"301 763 CURVE SMOOTH",
"344 763 OFFCURVE",
"368 694 OFFCURVE",
"399 623 CURVE",
"406 623 LINE"
);
}
);
width = 391;
}
);
unicode = 222B;
},
{
glyphname = less;
lastChange = "2018-11-01 16:30:05 +0000";
layers = (
{
layerId = "ADA4184A-F967-4A63-B095-B719654E3BB1";
paths = (
{
closed = 1;
nodes = (
"521 96 LINE",
"209 255 LINE",
"521 382 LINE",
"521 461 LINE",
"46 283 LINE",
"46 254 LINE",
"521 67 LINE"
);
}
);
width = 566;
}
);
unicode = 003C;
},
{
glyphname = lessequal;
lastChange = "2018-11-01 16:30:05 +0000";
layers = (
{
layerId = "ADA4184A-F967-4A63-B095-B719654E3BB1";
paths = (
{
closed = 1;
nodes = (
"485 209 LINE",
"202 354 LINE",
"485 469 LINE",
"485 541 LINE",
"54 379 LINE",
"54 353 LINE",
"485 183 LINE"
);
},
{
closed = 1;
nodes = (
"45 95 LINE",
"45 69 LINE",
"487 69 LINE",
"487 95 LINE"
);
}
);
width = 532;
}
);
unicode = 2264;
},
{
glyphname = logicalnot;
lastChange = "2018-11-01 16:30:05 +0000";
layers = (
{
layerId = "ADA4184A-F967-4A63-B095-B719654E3BB1";
paths = (
{
closed = 1;
nodes = (
"33 241 LINE",
"493 241 LINE",
"493 267 LINE",
"33 267 LINE"
);
},
{
closed = 1;
nodes = (
"459 55 LINE",
"493 55 LINE",
"493 241 LINE",
"459 241 LINE"
);
}
);
width = 526;
}
);
unicode = 00AC;
},
{
glyphname = minus;
lastChange = "2018-11-01 16:30:05 +0000";
layers = (
{
layerId = "ADA4184A-F967-4A63-B095-B719654E3BB1";
paths = (
{
closed = 1;
nodes = (
"33 258 LINE",
"412 258 LINE",
"412 284 LINE",
"33 284 LINE"
);
}
);
width = 445;
}
);
unicode = 2212;
},
{
glyphname = multiply;
lastChange = "2018-11-01 16:30:05 +0000";
layers = (
{
layerId = "ADA4184A-F967-4A63-B095-B719654E3BB1";
paths = (
{
closed = 1;
nodes = (
"40 91 LINE",
"336 387 LINE",
"318 406 LINE",
"22 109 LINE"
);
},
{
closed = 1;
nodes = (
"345 112 LINE",
"47 408 LINE",
"29 389 LINE",
"324 94 LINE"
);
}
);
width = 367;
}
);
unicode = 00D7;
},
{
glyphname = notequal;
lastChange = "2018-11-01 16:30:05 +0000";
layers = (
{
layerId = "ADA4184A-F967-4A63-B095-B719654E3BB1";
paths = (
{
closed = 1;
nodes = (
"427 508 LINE",
"383 508 LINE",
"279 359 LINE",
"46 359 LINE",
"46 333 LINE",
"261 333 LINE",
"169 201 LINE",
"46 201 LINE",
"46 175 LINE",
"151 175 LINE",
"46 25 LINE",
"90 25 LINE",
"195 175 LINE",
"427 175 LINE",
"427 201 LINE",
"213 201 LINE",
"305 333 LINE",
"427 333 LINE",
"427 359 LINE",
"323 359 LINE"
);
},
{
closed = 1;
nodes = (
"45 333 LINE",
"427 333 LINE",
"427 359 LINE",
"45 359 LINE"
);
},
{
closed = 1;
nodes = (
"45 175 LINE",
"427 175 LINE",
"427 201 LINE",
"45 201 LINE"
);
}
);
width = 455;
}
);
unicode = 2260;
},
{
glyphname = partialdiff;
layers = (
{
layerId = "ADA4184A-F967-4A63-B095-B719654E3BB1";
paths = (
{
closed = 1;
nodes = (
"76 590 LINE",
"83 590 LINE",
"125 645 OFFCURVE",
"172 669 OFFCURVE",
"216 669 CURVE SMOOTH",
"291 669 OFFCURVE",
"357 591 OFFCURVE",
"368 393 CURVE",
"311 456 OFFCURVE",
"262 459 OFFCURVE",
"243 459 CURVE SMOOTH",
"98 459 OFFCURVE",
"30 340 OFFCURVE",
"30 222 CURVE SMOOTH",
"30 66 OFFCURVE",
"106 -14 OFFCURVE",
"221 -14 CURVE SMOOTH",
"368 -14 OFFCURVE",
"481 105 OFFCURVE",
"481 334 CURVE SMOOTH",
"481 496 OFFCURVE",
"391 703 OFFCURVE",
"205 703 CURVE SMOOTH",
"76 703 LINE"
);
},
{
closed = 1;
nodes = (
"182 19 OFFCURVE",
"158 115 OFFCURVE",
"158 204 CURVE SMOOTH",
"158 339 OFFCURVE",
"190 430 OFFCURVE",
"257 430 CURVE SMOOTH",
"287 430 OFFCURVE",
"346 410 OFFCURVE",
"370 362 CURVE",
"371 349 OFFCURVE",
"371 335 OFFCURVE",
"371 321 CURVE SMOOTH",
"371 183 OFFCURVE",
"326 19 OFFCURVE",
"242 19 CURVE SMOOTH"
);
}
);
width = 518;
}
);
unicode = 2202;
},
{
glyphname = percent;
lastChange = "2018-11-01 16:30:05 +0000";
layers = (
{
layerId = "ADA4184A-F967-4A63-B095-B719654E3BB1";
paths = (
{
closed = 1;
nodes = (
"362 599 OFFCURVE",
"311 689 OFFCURVE",
"216 689 CURVE SMOOTH",
"94 689 OFFCURVE",
"33 573 OFFCURVE",
"33 474 CURVE SMOOTH",
"33 383 OFFCURVE",
"84 293 OFFCURVE",
"178 293 CURVE SMOOTH",
"300 293 OFFCURVE",
"362 409 OFFCURVE",
"362 508 CURVE SMOOTH"
);
},
{
closed = 1;
nodes = (
"237 660 OFFCURVE",
"278 557 OFFCURVE",
"278 438 CURVE SMOOTH",
"278 399 OFFCURVE",
"263 322 OFFCURVE",
"216 322 CURVE SMOOTH",
"159 322 OFFCURVE",
"119 425 OFFCURVE",
"119 544 CURVE SMOOTH",
"119 590 OFFCURVE",
"127 660 OFFCURVE",
"181 660 CURVE SMOOTH"
);
},
{
closed = 1;
nodes = (
"738 296 OFFCURVE",
"687 386 OFFCURVE",
"592 386 CURVE SMOOTH",
"470 386 OFFCURVE",
"409 270 OFFCURVE",
"409 171 CURVE SMOOTH",
"409 80 OFFCURVE",
"460 -10 OFFCURVE",
"554 -10 CURVE SMOOTH",
"676 -10 OFFCURVE",
"738 106 OFFCURVE",
"738 205 CURVE SMOOTH"
);
},
{
closed = 1;
nodes = (
"613 357 OFFCURVE",
"654 254 OFFCURVE",
"654 135 CURVE SMOOTH",
"654 96 OFFCURVE",
"639 19 OFFCURVE",
"592 19 CURVE SMOOTH",
"535 19 OFFCURVE",
"495 122 OFFCURVE",
"495 241 CURVE SMOOTH",
"495 287 OFFCURVE",
"503 357 OFFCURVE",
"557 357 CURVE SMOOTH"
);
},
{
closed = 1;
nodes = (
"144 -34 LINE",
"179 -34 LINE",
"632 719 LINE",
"597 719 LINE"
);
}
);
width = 771;
}
);
unicode = 0025;
},
{
glyphname = perthousand;
lastChange = "2018-11-01 16:30:05 +0000";
layers = (
{
layerId = "ADA4184A-F967-4A63-B095-B719654E3BB1";
paths = (
{
closed = 1;
nodes = (
"362 599 OFFCURVE",
"311 689 OFFCURVE",
"216 689 CURVE SMOOTH",
"94 689 OFFCURVE",
"33 573 OFFCURVE",
"33 474 CURVE SMOOTH",
"33 383 OFFCURVE",
"84 293 OFFCURVE",
"178 293 CURVE SMOOTH",
"300 293 OFFCURVE",
"362 409 OFFCURVE",
"362 508 CURVE SMOOTH"
);
},
{
closed = 1;
nodes = (
"237 660 OFFCURVE",
"278 557 OFFCURVE",
"278 438 CURVE SMOOTH",
"278 399 OFFCURVE",
"263 322 OFFCURVE",
"216 322 CURVE SMOOTH",
"159 322 OFFCURVE",
"119 425 OFFCURVE",
"119 544 CURVE SMOOTH",
"119 590 OFFCURVE",
"127 660 OFFCURVE",
"181 660 CURVE SMOOTH"
);
},
{
closed = 1;
nodes = (
"1108 296 OFFCURVE",
"1057 386 OFFCURVE",
"962 386 CURVE SMOOTH",
"840 386 OFFCURVE",
"779 270 OFFCURVE",
"779 171 CURVE SMOOTH",
"779 80 OFFCURVE",
"830 -10 OFFCURVE",
"924 -10 CURVE SMOOTH",
"1048 -10 OFFCURVE",
"1108 106 OFFCURVE",
"1108 205 CURVE SMOOTH"
);
},
{
closed = 1;
nodes = (
"983 357 OFFCURVE",
"1024 254 OFFCURVE",
"1024 135 CURVE SMOOTH",
"1024 96 OFFCURVE",
"1009 19 OFFCURVE",
"962 19 CURVE SMOOTH",
"905 19 OFFCURVE",
"865 122 OFFCURVE",
"865 241 CURVE SMOOTH",
"865 287 OFFCURVE",
"873 357 OFFCURVE",
"927 357 CURVE SMOOTH"
);
},
{
closed = 1;
nodes = (
"144 -34 LINE",
"179 -34 LINE",
"632 719 LINE",
"597 719 LINE"
);
},
{
closed = 1;
nodes = (
"738 296 OFFCURVE",
"687 386 OFFCURVE",
"592 386 CURVE SMOOTH",
"470 386 OFFCURVE",
"409 270 OFFCURVE",
"409 171 CURVE SMOOTH",
"409 80 OFFCURVE",
"460 -10 OFFCURVE",
"554 -10 CURVE SMOOTH",
"676 -10 OFFCURVE",
"738 106 OFFCURVE",
"738 205 CURVE SMOOTH"
);
},
{
closed = 1;
nodes = (
"613 357 OFFCURVE",
"654 254 OFFCURVE",
"654 135 CURVE SMOOTH",
"654 96 OFFCURVE",
"639 19 OFFCURVE",
"592 19 CURVE SMOOTH",
"535 19 OFFCURVE",
"495 122 OFFCURVE",
"495 241 CURVE SMOOTH",
"495 287 OFFCURVE",
"503 357 OFFCURVE",
"557 357 CURVE SMOOTH"
);
}
);
width = 1141;
}
);
unicode = 2030;
},
{
glyphname = plus;
lastChange = "2018-11-01 16:30:05 +0000";
layers = (
{
layerId = "ADA4184A-F967-4A63-B095-B719654E3BB1";
paths = (
{
closed = 1;
nodes = (
"40 260 LINE",
"466 260 LINE",
"466 286 LINE",
"40 286 LINE"
);
},
{
closed = 1;
nodes = (
"266 45 LINE",
"266 509 LINE",
"240 499 LINE",
"240 36 LINE"
);
}
);
width = 523;
}
);
unicode = 002B;
},
{
glyphname = plusminus;
lastChange = "2018-11-01 16:30:05 +0000";
layers = (
{
layerId = "ADA4184A-F967-4A63-B095-B719654E3BB1";
paths = (
{
closed = 1;
nodes = (
"40 260 LINE",
"466 260 LINE",
"466 286 LINE",
"40 286 LINE"
);
},
{
closed = 1;
nodes = (
"266 45 LINE",
"266 509 LINE",
"240 499 LINE",
"240 36 LINE"
);
},
{
closed = 1;
nodes = (
"40 25 LINE",
"466 25 LINE",
"466 51 LINE",
"40 51 LINE"
);
}
);
width = 506;
}
);
unicode = 00B1;
},
{
glyphname = product;
lastChange = "2018-11-01 15:51:46 +0000";
layers = (
{
layerId = "ADA4184A-F967-4A63-B095-B719654E3BB1";
paths = (
{
closed = 1;
nodes = (
"620 592 LINE",
"694 698 LINE",
"40 698 LINE",
"114 592 LINE",
"114 -84 LINE",
"50 -169 LINE",
"303 -169 LINE",
"239 -84 LINE",
"239 670 LINE",
"495 670 LINE",
"495 -84 LINE",
"431 -169 LINE",
"684 -169 LINE",
"620 -84 LINE"
);
}
);
width = 734;
}
);
unicode = 220F;
},
{
glyphname = radical;
layers = (
{
layerId = "ADA4184A-F967-4A63-B095-B719654E3BB1";
paths = (
{
closed = 1;
nodes = (
"295 -99 LINE",
"309 -99 LINE",
"527 844 LINE",
"467 844 LINE",
"332 105 LINE",
"170 522 LINE",
"0 427 LINE",
"101 358 LINE"
);
}
);
width = 527;
}
);
unicode = 221A;
},
{
glyphname = summation;
lastChange = "2018-11-01 15:54:02 +0000";
layers = (
{
layerId = "ADA4184A-F967-4A63-B095-B719654E3BB1";
paths = (
{
closed = 1;
nodes = (
"609 116 LINE",
"602 116 LINE",
"516 -63 LINE",
"155 -63 LINE",
"414 314 LINE",
"224 668 LINE",
"465 668 LINE",
"586 470 LINE",
"593 470 LINE",
"593 698 LINE",
"40 698 LINE",
"301 216 LINE",
"43 -163 LINE",
"594 -163 LINE"
);
}
);
width = 644;
}
);
unicode = 2211;
},
{
glyphname = lozenge;
lastChange = "2018-11-01 16:24:28 +0000";
layers = (
{
layerId = "ADA4184A-F967-4A63-B095-B719654E3BB1";
paths = (
{
closed = 1;
nodes = (
"314 589 LINE",
"40 300 LINE",
"314 11 LINE",
"588 300 LINE"
);
},
{
closed = 1;
nodes = (
"314 543 LINE",
"542 300 LINE",
"314 56 LINE",
"87 300 LINE"
);
}
);
width = 628;
}
);
unicode = 25CA;
},
{
glyphname = ampersand;
lastChange = "2018-11-01 16:30:05 +0000";
layers = (
{
layerId = "ADA4184A-F967-4A63-B095-B719654E3BB1";
paths = (
{
closed = 1;
nodes = (
"496 206 LINE",
"390 350 LINE",
"321 350 LINE",
"316 390 LINE",
"424 413 OFFCURVE",
"474 491 OFFCURVE",
"474 557 CURVE SMOOTH",
"474 630 OFFCURVE",
"414 695 OFFCURVE",
"315 695 CURVE SMOOTH",
"180 695 OFFCURVE",
"112 603 OFFCURVE",
"112 525 CURVE SMOOTH",
"112 452 OFFCURVE",
"170 383 OFFCURVE",
"269 383 CURVE SMOOTH",
"291 383 LINE",
"291 338 LINE",
"181 310 OFFCURVE",
"44 234 OFFCURVE",
"44 131 CURVE SMOOTH",
"44 44 OFFCURVE",
"104 -15 OFFCURVE",
"237 -15 CURVE SMOOTH",
"319 -15 OFFCURVE",
"371 38 OFFCURVE",
"429 92 CURVE",
"493 0 LINE",
"685 0 LINE",
"592 75 LINE",
"512 183 LINE",
"610 366 LINE",
"728 436 LINE",
"482 436 LINE",
"578 368 LINE"
);
},
{
closed = 1;
nodes = (
"309 674 OFFCURVE",
"356 596 OFFCURVE",
"356 503 CURVE SMOOTH",
"356 473 OFFCURVE",
"342 404 OFFCURVE",
"311 404 CURVE SMOOTH",
"274 404 OFFCURVE",
"229 487 OFFCURVE",
"229 580 CURVE SMOOTH",
"229 616 OFFCURVE",
"233 674 OFFCURVE",
"272 674 CURVE SMOOTH"
);
},
{
closed = 1;
nodes = (
"385 77 OFFCURVE",
"332 51 OFFCURVE",
"307 51 CURVE SMOOTH",
"225 51 OFFCURVE",
"182 97 OFFCURVE",
"182 176 CURVE SMOOTH",
"182 243 OFFCURVE",
"238 304 OFFCURVE",
"290 322 CURVE",
"414 114 LINE"
);
}
);
width = 751;
}
);
unicode = 0026;
},
{
glyphname = asciicircum;
lastChange = "2018-11-01 15:45:12 +0000";
layers = (
{
layerId = "ADA4184A-F967-4A63-B095-B719654E3BB1";
paths = (
{
closed = 1;
nodes = (
"274 695 LINE",
"192 695 LINE",
"193 694 LINE",
"5 282 LINE",
"51 282 LINE",
"187 592 LINE",
"389 282 LINE",
"461 282 LINE",
"273 694 LINE"
);
}
);
width = 466;
}
);
unicode = 005E;
},
{
glyphname = at;
lastChange = "2018-11-01 16:30:05 +0000";
layers = (
{
layerId = "ADA4184A-F967-4A63-B095-B719654E3BB1";
paths = (
{
closed = 1;
nodes = (
"692 194 OFFCURVE",
"703 158 OFFCURVE",
"703 120 CURVE SMOOTH",
"703 -19 OFFCURVE",
"550 -152 OFFCURVE",
"383 -152 CURVE SMOOTH",
"222 -152 OFFCURVE",
"74 -32 OFFCURVE",
"74 166 CURVE SMOOTH",
"74 312 OFFCURVE",
"161 468 OFFCURVE",
"334 468 CURVE SMOOTH",
"442 468 OFFCURVE",
"444 384 OFFCURVE",
"444 316 CURVE",
"278 251 OFFCURVE",
"184 210 OFFCURVE",
"184 97 CURVE SMOOTH",
"184 35 OFFCURVE",
"234 -10 OFFCURVE",
"298 -11 CURVE SMOOTH",
"353 -12 OFFCURVE",
"399 44 OFFCURVE",
"444 79 CURVE",
"444 0 LINE",
"612 0 LINE",
"583 80 LINE",
"583 416 LINE",
"611 497 LINE",
"359 497 LINE SMOOTH",
"139 497 OFFCURVE",
"45 334 OFFCURVE",
"45 163 CURVE SMOOTH",
"45 -49 OFFCURVE",
"204 -175 OFFCURVE",
"383 -175 CURVE SMOOTH",
"548 -175 OFFCURVE",
"736 -49 OFFCURVE",
"736 143 CURVE SMOOTH",
"736 180 OFFCURVE",
"727 217 OFFCURVE",
"703 260 CURVE",
"663 226 LINE"
);
},
{
closed = 1;
nodes = (
"415 70 OFFCURVE",
"393 65 OFFCURVE",
"378 65 CURVE SMOOTH",
"350 65 OFFCURVE",
"310 86 OFFCURVE",
"310 132 CURVE SMOOTH",
"310 180 OFFCURVE",
"338 245 OFFCURVE",
"444 300 CURVE",
"444 96 LINE"
);
}
);
width = 781;
}
);
unicode = 0040;
},
{
glyphname = bar;
lastChange = "2018-11-01 16:30:05 +0000";
layers = (
{
layerId = "ADA4184A-F967-4A63-B095-B719654E3BB1";
paths = (
{
closed = 1;
nodes = (
"99 711 LINE",
"99 -150 LINE",
"129 -150 LINE",
"129 711 LINE"
);
}
);
width = 264;
}
);
unicode = 007C;
},
{
glyphname = brokenbar;
lastChange = "2018-11-01 16:30:05 +0000";
layers = (
{
layerId = "ADA4184A-F967-4A63-B095-B719654E3BB1";
paths = (
{
closed = 1;
nodes = (
"99 180 LINE",
"99 -150 LINE",
"129 -150 LINE",
"129 180 LINE"
);
},
{
closed = 1;
nodes = (
"99 701 LINE",
"99 371 LINE",
"129 371 LINE",
"129 701 LINE"
);
}
);
width = 228;
}
);
unicode = 00A6;
},
{
glyphname = copyright;
lastChange = "2018-11-01 15:41:45 +0000";
layers = (
{
layerId = "ADA4184A-F967-4A63-B095-B719654E3BB1";
paths = (
{
closed = 1;
nodes = (
"541 23 OFFCURVE",
"684 166 OFFCURVE",
"684 342 CURVE SMOOTH",
"684 518 OFFCURVE",
"541 661 OFFCURVE",
"365 661 CURVE SMOOTH",
"189 661 OFFCURVE",
"46 518 OFFCURVE",
"46 342 CURVE SMOOTH",
"46 166 OFFCURVE",
"189 23 OFFCURVE",
"365 23 CURVE SMOOTH"
);
},
{
closed = 1;
nodes = (
"203 48 OFFCURVE",
"71 180 OFFCURVE",
"71 342 CURVE SMOOTH",
"71 504 OFFCURVE",
"203 636 OFFCURVE",
"365 636 CURVE SMOOTH",
"527 636 OFFCURVE",
"659 504 OFFCURVE",
"659 342 CURVE SMOOTH",
"659 180 OFFCURVE",
"527 48 OFFCURVE",
"365 48 CURVE SMOOTH"
);
},
{
closed = 1;
nodes = (
"490 418 LINE",
"490 550 LINE",
"383 550 LINE SMOOTH",
"268 550 OFFCURVE",
"207 446 OFFCURVE",
"207 332 CURVE SMOOTH",
"207 210 OFFCURVE",
"277 137 OFFCURVE",
"350 136 CURVE SMOOTH",
"424 135 OFFCURVE",
"485 210 OFFCURVE",
"510 305 CURVE",
"501 309 LINE",
"488 272 OFFCURVE",
"452 223 OFFCURVE",
"407 223 CURVE SMOOTH",
"351 223 OFFCURVE",
"302 295 OFFCURVE",
"301 407 CURVE SMOOTH",
"300 482 OFFCURVE",
"326 533 OFFCURVE",
"371 532 CURVE SMOOTH",
"410 531 OFFCURVE",
"452 495 OFFCURVE",
"484 418 CURVE"
);
}
);
width = 730;
}
);
unicode = 00A9;
},
{
glyphname = dagger;
lastChange = "2018-11-01 16:20:18 +0000";
layers = (
{
layerId = "ADA4184A-F967-4A63-B095-B719654E3BB1";
paths = (
{
closed = 1;
nodes = (
"96 460 LINE",
"135 460 LINE",
"135 362 LINE",
"191 -80 LINE",
"199 -80 LINE",
"255 362 LINE",
"255 460 LINE",
"380 460 LINE",
"380 564 LINE",
"294 480 LINE",
"228 480 LINE",
"255 700 LINE",
"135 700 LINE",
"162 480 LINE",
"10 480 LINE",
"10 376 LINE"
);
}
);
width = 390;
}
);
unicode = 2020;
},
{
glyphname = daggerdbl;
lastChange = "2018-11-01 16:20:38 +0000";
layers = (
{
layerId = "ADA4184A-F967-4A63-B095-B719654E3BB1";
paths = (
{
closed = 1;
nodes = (
"228 170 LINE",
"228 460 LINE",
"380 460 LINE",
"380 564 LINE",
"294 480 LINE",
"228 480 LINE",
"255 700 LINE",
"135 700 LINE",
"162 480 LINE",
"10 480 LINE",
"10 376 LINE",
"96 460 LINE",
"162 460 LINE",
"162 170 LINE",
"10 170 LINE",
"10 66 LINE",
"96 150 LINE",
"162 150 LINE",
"135 -70 LINE",
"255 -70 LINE",
"228 150 LINE",
"380 150 LINE",
"380 254 LINE",
"294 170 LINE"
);
}
);
width = 390;
}
);
unicode = 2021;
},
{
glyphname = degree;
lastChange = "2018-11-01 16:21:05 +0000";
layers = (
{
layerId = "ADA4184A-F967-4A63-B095-B719654E3BB1";
paths = (
{
closed = 1;
nodes = (
"25 646 OFFCURVE",
"71 600 OFFCURVE",
"128 600 CURVE SMOOTH",
"185 600 OFFCURVE",
"231 646 OFFCURVE",
"231 703 CURVE SMOOTH",
"231 760 OFFCURVE",
"185 806 OFFCURVE",
"128 806 CURVE SMOOTH",
"71 806 OFFCURVE",
"25 760 OFFCURVE",
"25 703 CURVE SMOOTH"
);
},
{
closed = 1;
nodes = (
"47 746 OFFCURVE",
"85 784 OFFCURVE",
"128 784 CURVE SMOOTH",
"171 784 OFFCURVE",
"209 746 OFFCURVE",
"209 703 CURVE SMOOTH",
"209 660 OFFCURVE",
"171 622 OFFCURVE",
"128 622 CURVE SMOOTH",
"85 622 OFFCURVE",
"47 660 OFFCURVE",
"47 703 CURVE SMOOTH"
);
}
);
width = 256;
}
);
unicode = 00B0;
},
{
glyphname = paragraph;
lastChange = "2018-11-21 14:12:04 +0000";
layers = (
{
layerId = "ADA4184A-F967-4A63-B095-B719654E3BB1";
paths = (
{
closed = 1;
nodes = (
"264 -7 LINE SMOOTH",
"264 -29 OFFCURVE",
"264 -63 OFFCURVE",
"247 -98 CURVE",
"250 -100 LINE",
"279 -95 OFFCURVE",
"299 -47 OFFCURVE",
"299 26 CURVE SMOOTH",
"299 657 LINE",
"353 657 LINE",
"353 0 LINE",
"387 0 LINE",
"387 608 LINE",
"388 608 LINE",
"456 685 LINE",
"264 685 LINE SMOOTH",
"122 685 OFFCURVE",
"22 634 OFFCURVE",
"22 492 CURVE SMOOTH",
"22 379 OFFCURVE",
"113 305 OFFCURVE",
"213 305 CURVE SMOOTH",
"230 305 OFFCURVE",
"252 309 OFFCURVE",
"268 316 CURVE",
"264 273 LINE"
);
}
);
width = 510;
}
);
unicode = 00B6;
},
{
glyphname = registered;
layers = (
{
layerId = "ADA4184A-F967-4A63-B095-B719654E3BB1";
paths = (
{
closed = 1;
nodes = (
"335 414 OFFCURVE",
"425 504 OFFCURVE",
"425 616 CURVE SMOOTH",
"425 728 OFFCURVE",
"335 818 OFFCURVE",
"222 818 CURVE SMOOTH",
"111 818 OFFCURVE",
"20 728 OFFCURVE",
"20 616 CURVE SMOOTH",
"20 504 OFFCURVE",
"111 414 OFFCURVE",
"222 414 CURVE SMOOTH"
);
},
{
closed = 1;
nodes = (
"126 441 OFFCURVE",
"47 520 OFFCURVE",
"47 616 CURVE SMOOTH",
"47 713 OFFCURVE",
"126 791 OFFCURVE",
"222 791 CURVE SMOOTH",
"319 791 OFFCURVE",
"397 713 OFFCURVE",
"397 616 CURVE SMOOTH",
"397 520 OFFCURVE",
"319 441 OFFCURVE",
"222 441 CURVE SMOOTH"
);
},
{
closed = 1;
nodes = (
"334 502 LINE",
"298 535 LINE",
"253 617 LINE",
"282 627 OFFCURVE",
"307 647 OFFCURVE",
"307 675 CURVE SMOOTH",
"307 731 OFFCURVE",
"229 736 OFFCURVE",
"204 736 CURVE SMOOTH",
"122 736 LINE",
"147 699 LINE",
"147 538 LINE",
"122 502 LINE",
"218 502 LINE",
"192 538 LINE",
"192 606 LINE",
"208 608 LINE",
"265 502 LINE"
);
},
{
closed = 1;
nodes = (
"229 725 OFFCURVE",
"256 711 OFFCURVE",
"256 670 CURVE SMOOTH",
"256 637 OFFCURVE",
"225 619 OFFCURVE",
"192 618 CURVE",
"192 725 LINE"
);
}
);
width = 445;
}
);
unicode = 00AE;
},
{
glyphname = section;
lastChange = "2018-11-21 14:12:17 +0000";
layers = (
{
layerId = "ADA4184A-F967-4A63-B095-B719654E3BB1";
paths = (
{
closed = 1;
nodes = (
"264 0 LINE",
"299 0 LINE",
"299 657 LINE",
"353 657 LINE",
"353 0 LINE",
"388 0 LINE",
"388 606 LINE",
"389 606 LINE",
"457 685 LINE",
"370 685 LINE",
"370 685 LINE",
"288 685 LINE",
"288 685 LINE",
"265 685 LINE",
"264 685 LINE",
"122 685 OFFCURVE",
"22 632 OFFCURVE",
"22 490 CURVE SMOOTH",
"22 377 OFFCURVE",
"113 303 OFFCURVE",
"213 303 CURVE SMOOTH",
"230 303 OFFCURVE",
"252 307 OFFCURVE",
"268 314 CURVE",
"264 271 LINE"
);
}
);
width = 528;
}
);
unicode = 00A7;
},
{
glyphname = trademark;
lastChange = "2018-11-01 16:30:05 +0000";
layers = (
{
layerId = "ADA4184A-F967-4A63-B095-B719654E3BB1";
paths = (
{
closed = 1;
nodes = (
"45 804 LINE",
"45 668 LINE",
"49 668 LINE",
"115 790 LINE",
"162 790 LINE",
"162 472 LINE",
"120 425 LINE",
"275 425 LINE",
"234 472 LINE",
"234 790 LINE",
"281 790 LINE",
"347 668 LINE",
"351 668 LINE",
"351 804 LINE"
);
},
{
closed = 1;
nodes = (
"469 724 LINE",
"602 418 LINE",
"605 418 LINE",
"734 728 LINE",
"734 472 LINE",
"691 425 LINE",
"846 425 LINE",
"805 472 LINE",
"805 757 LINE",
"853 804 LINE",
"743 804 LINE",
"628 523 LINE",
"511 804 LINE",
"402 804 LINE",
"452 756 LINE",
"452 472 LINE",
"405 425 LINE",
"519 425 LINE",
"469 472 LINE"
);
}
);
width = 898;
}
);
unicode = 2122;
},
{
glyphname = at.case;
lastChange = "2018-11-01 16:30:05 +0000";
layers = (
{
layerId = "ADA4184A-F967-4A63-B095-B719654E3BB1";
paths = (
{
closed = 1;
nodes = (
"692 360 OFFCURVE",
"703 324 OFFCURVE",
"703 286 CURVE SMOOTH",
"703 147 OFFCURVE",
"550 14 OFFCURVE",
"383 14 CURVE SMOOTH",
"222 14 OFFCURVE",
"74 134 OFFCURVE",
"74 332 CURVE SMOOTH",
"74 478 OFFCURVE",
"161 634 OFFCURVE",
"334 634 CURVE SMOOTH",
"442 634 OFFCURVE",
"444 550 OFFCURVE",
"444 482 CURVE",
"278 417 OFFCURVE",
"184 376 OFFCURVE",
"184 263 CURVE SMOOTH",
"184 201 OFFCURVE",
"234 156 OFFCURVE",
"298 155 CURVE SMOOTH",
"353 154 OFFCURVE",
"399 210 OFFCURVE",
"444 245 CURVE",
"444 166 LINE",
"612 166 LINE",
"583 246 LINE",
"583 582 LINE",
"611 663 LINE",
"359 663 LINE SMOOTH",
"139 663 OFFCURVE",
"45 500 OFFCURVE",
"45 329 CURVE SMOOTH",
"45 117 OFFCURVE",
"204 -9 OFFCURVE",
"383 -9 CURVE SMOOTH",
"548 -9 OFFCURVE",
"736 117 OFFCURVE",
"736 309 CURVE SMOOTH",
"736 346 OFFCURVE",
"727 383 OFFCURVE",
"703 426 CURVE",
"663 392 LINE"
);
},
{
closed = 1;
nodes = (
"415 236 OFFCURVE",
"393 231 OFFCURVE",
"378 231 CURVE SMOOTH",
"350 231 OFFCURVE",
"310 252 OFFCURVE",
"310 298 CURVE SMOOTH",
"310 346 OFFCURVE",
"338 411 OFFCURVE",
"444 466 CURVE",
"444 262 LINE"
);
}
);
width = 781;
}
);
},
{
glyphname = L_C;
lastChange = "2018-12-14 16:55:03 +0000";
layers = (
{
layerId = "ADA4184A-F967-4A63-B095-B719654E3BB1";
paths = (
{
closed = 1;
nodes = (
"432 -234 LINE",
"552 -72 OFFCURVE",
"786 8 OFFCURVE",
"786 172 CURVE SMOOTH",
"786 332 OFFCURVE",
"664 360 OFFCURVE",
"602 360 CURVE SMOOTH",
"533 360 OFFCURVE",
"474 311 OFFCURVE",
"430 260 CURVE SMOOTH",
"423 252 OFFCURVE",
"413 252 OFFCURVE",
"406 260 CURVE SMOOTH",
"362 311 OFFCURVE",
"303 360 OFFCURVE",
"234 360 CURVE SMOOTH",
"172 360 OFFCURVE",
"50 332 OFFCURVE",
"50 172 CURVE SMOOTH",
"50 8 OFFCURVE",
"284 -72 OFFCURVE",
"404 -234 CURVE",
"418 -251 LINE"
);
},
{
closed = 1;
nodes = (
"430 218 LINE SMOOTH",
"478 282 OFFCURVE",
"535 333 OFFCURVE",
"606 333 CURVE SMOOTH",
"654 333 OFFCURVE",
"756 308 OFFCURVE",
"756 177 CURVE SMOOTH",
"756 23 OFFCURVE",
"551 -48 OFFCURVE",
"425 -200 CURVE",
"420 -205 OFFCURVE",
"416 -205 OFFCURVE",
"411 -200 CURVE",
"285 -48 OFFCURVE",
"80 23 OFFCURVE",
"80 177 CURVE SMOOTH",
"80 308 OFFCURVE",
"182 333 OFFCURVE",
"231 333 CURVE SMOOTH",
"301 333 OFFCURVE",
"358 282 OFFCURVE",
"406 218 CURVE SMOOTH",
"418 202 LINE"
);
},
{
closed = 1;
nodes = (
"319 498 LINE",
"358 498 LINE",
"358 400 LINE",
"387 161 LINE",
"451 161 LINE",
"478 400 LINE",
"478 498 LINE",
"603 498 LINE",
"603 602 LINE",
"517 518 LINE",
"451 518 LINE",
"478 738 LINE",
"358 738 LINE",
"385 518 LINE",
"233 518 LINE",
"233 414 LINE"
);
},
{
closed = 1;
nodes = (
"381 161 OFFCURVE",
"365 199 OFFCURVE",
"353 200 CURVE",
"343 187 LINE",
"344 171 OFFCURVE",
"382 145 OFFCURVE",
"424 145 CURVE SMOOTH",
"463 145 OFFCURVE",
"490 167 OFFCURVE",
"492 180 CURVE",
"479 193 LINE",
"469 189 OFFCURVE",
"463 161 OFFCURVE",
"424 161 CURVE SMOOTH"
);
}
);
width = 837;
}
);
},
{
glyphname = V_T_F;
lastChange = "2018-12-14 16:54:25 +0000";
layers = (
{
layerId = "ADA4184A-F967-4A63-B095-B719654E3BB1";
paths = (
{
closed = 1;
nodes = (
"861 423 LINE",
"607 425 LINE",
"733 284 LINE",
"559 2 LINE",
"327 330 LINE",
"388 424 LINE",
"88 424 LINE",
"147 349 LINE",
"510 -137 LINE"
);
},
{
closed = 1;
nodes = (
"559 79 LINE",
"552 79 LINE",
"433 254 LINE",
"433 668 LINE",
"560 668 LINE"
);
},
{
closed = 1;
nodes = (
"668 500 LINE",
"668 479 LINE",
"334 479 LINE",
"334 500 LINE"
);
},
{
closed = 1;
nodes = (
"355 667 LINE",
"236 448 LINE",
"229 448 LINE",
"229 689 LINE",
"765 685 LINE",
"765 445 LINE",
"758 444 LINE",
"638 663 LINE"
);
}
);
width = 888;
}
);
},
{
glyphname = dieresiscomb;
lastChange = "2018-11-01 13:52:33 +0000";
layers = (
{
layerId = "ADA4184A-F967-4A63-B095-B719654E3BB1";
paths = (
{
closed = 1;
nodes = (
"113 548 LINE",
"180 625 LINE",
"113 701 LINE",
"45 625 LINE"
);
},
{
closed = 1;
nodes = (
"298 548 LINE",
"365 625 LINE",
"298 701 LINE",
"230 625 LINE"
);
}
);
width = 457;
}
);
unicode = 0308;
},
{
glyphname = dotaccentcomb;
lastChange = "2018-11-01 11:14:38 +0000";
layers = (
{
anchors = (
{
name = _top;
position = "{88, 490}";
},
{
name = top;
position = "{88, 705}";
}
);
layerId = "ADA4184A-F967-4A63-B095-B719654E3BB1";
paths = (
{
closed = 1;
nodes = (
"88 544 LINE",
"158 625 LINE",
"88 705 LINE",
"17 625 LINE"
);
}
);
width = 175;
}
);
unicode = 0307;
},
{
glyphname = gravecomb;
lastChange = "2018-11-01 11:14:41 +0000";
layers = (
{
anchors = (
{
name = _top;
position = "{92, 490}";
},
{
name = top;
position = "{92, 681}";
}
);
layerId = "ADA4184A-F967-4A63-B095-B719654E3BB1";
paths = (
{
closed = 1;
nodes = (
"146 681 LINE",
"20 681 LINE",
"149 552 LINE",
"164 552 LINE"
);
}
);
width = 184;
}
);
unicode = 0300;
},
{
glyphname = acutecomb;
lastChange = "2018-11-01 11:14:44 +0000";
layers = (
{
anchors = (
{
name = _top;
position = "{111, 490}";
},
{
name = top;
position = "{111, 681}";
}
);
layerId = "ADA4184A-F967-4A63-B095-B719654E3BB1";
paths = (
{
closed = 1;
nodes = (
"183 681 LINE",
"57 681 LINE",
"39 552 LINE",
"54 552 LINE"
);
}
);
width = 213;
}
);
unicode = 0301;
},
{
glyphname = circumflexcomb;
lastChange = "2018-11-01 11:14:47 +0000";
layers = (
{
anchors = (
{
name = _top;
position = "{108, 490}";
},
{
name = top;
position = "{108, 681}";
}
);
layerId = "ADA4184A-F967-4A63-B095-B719654E3BB1";
paths = (
{
closed = 1;
nodes = (
"23 552 LINE",
"108 625 LINE",
"191 552 LINE",
"207 552 LINE",
"149 681 LINE",
"66 681 LINE",
"9 552 LINE"
);
}
);
width = 213;
}
);
unicode = 0302;
},
{
glyphname = ringcomb;
lastChange = "2018-11-01 16:28:49 +0000";
layers = (
{
anchors = (
{
name = _top;
position = "{103, 490}";
},
{
name = top;
position = "{103, 733}";
}
);
layerId = "ADA4184A-F967-4A63-B095-B719654E3BB1";
paths = (
{
closed = 1;
nodes = (
"5 581 OFFCURVE",
"49 537 OFFCURVE",
"103 537 CURVE SMOOTH",
"157 537 OFFCURVE",
"201 581 OFFCURVE",
"201 635 CURVE SMOOTH",
"201 689 OFFCURVE",
"157 733 OFFCURVE",
"103 733 CURVE SMOOTH",
"49 733 OFFCURVE",
"5 689 OFFCURVE",
"5 635 CURVE SMOOTH"
);
},
{
closed = 1;
nodes = (
"28 672 OFFCURVE",
"66 710 OFFCURVE",
"103 710 CURVE SMOOTH",
"140 710 OFFCURVE",
"178 672 OFFCURVE",
"178 635 CURVE SMOOTH",
"178 598 OFFCURVE",
"140 560 OFFCURVE",
"103 560 CURVE SMOOTH",
"66 560 OFFCURVE",
"28 598 OFFCURVE",
"28 635 CURVE SMOOTH"
);
}
);
width = 206;
}
);
unicode = 030A;
},
{
glyphname = tildecomb;
lastChange = "2018-11-01 11:14:52 +0000";
layers = (
{
anchors = (
{
name = _top;
position = "{181, 490}";
},
{
name = top;
position = "{181, 683}";
}
);
layerId = "ADA4184A-F967-4A63-B095-B719654E3BB1";
paths = (
{
closed = 1;
nodes = (
"64 544 LINE",
"77 566 OFFCURVE",
"91 587 OFFCURVE",
"104 587 CURVE SMOOTH",
"153 587 OFFCURVE",
"203 578 OFFCURVE",
"252 574 CURVE",
"311 677 LINE",
"296 683 LINE",
"281 664 OFFCURVE",
"267 649 OFFCURVE",
"252 649 CURVE SMOOTH",
"206 649 OFFCURVE",
"159 658 OFFCURVE",
"113 662 CURVE",
"50 553 LINE"
);
}
);
width = 361;
}
);
unicode = 0303;
},
{
glyphname = cedillacomb;
lastChange = "2018-11-01 11:14:55 +0000";
layers = (
{
anchors = (
{
name = _bottom;
position = "{86, 0}";
},
{
name = bottom;
position = "{86, -153}";
}
);
layerId = "ADA4184A-F967-4A63-B095-B719654E3BB1";
paths = (
{
closed = 1;
nodes = (
"77 18 LINE",
"27 -54 LINE",
"27 -69 OFFCURVE",
"129 -71 OFFCURVE",
"129 -106 CURVE SMOOTH",
"129 -120 OFFCURVE",
"109 -129 OFFCURVE",
"82 -129 CURVE SMOOTH",
"53 -129 OFFCURVE",
"29 -118 OFFCURVE",
"9 -101 CURVE",
"-2 -122 LINE",
"24 -144 OFFCURVE",
"46 -153 OFFCURVE",
"80 -153 CURVE SMOOTH",
"130 -153 OFFCURVE",
"174 -127 OFFCURVE",
"174 -78 CURVE SMOOTH",
"174 -45 OFFCURVE",
"117 -27 OFFCURVE",
"88 -16 CURVE",
"106 18 LINE"
);
}
);
width = 184;
}
);
unicode = 0327;
},
{
glyphname = dieresiscomb.case;
lastChange = "2018-11-01 13:52:44 +0000";
layers = (
{
anchors = (
{
name = _top;
position = "{229, 685}";
},
{
name = top;
position = "{229, 917}";
}
);
layerId = "ADA4184A-F967-4A63-B095-B719654E3BB1";
paths = (
{
closed = 1;
nodes = (
"122 742 LINE",
"199 830 LINE",
"122 917 LINE",
"45 830 LINE"
);
},
{
closed = 1;
nodes = (
"336 742 LINE",
"412 830 LINE",
"336 917 LINE",
"258 830 LINE"
);
}
);
width = 457;
}
);
},
{
glyphname = dotaccentcomb.case;
lastChange = "2018-11-01 11:15:00 +0000";
layers = (
{
anchors = (
{
name = _top;
position = "{88, 685}";
},
{
name = top;
position = "{88, 705}";
}
);
layerId = "ADA4184A-F967-4A63-B095-B719654E3BB1";
paths = (
{
closed = 1;
nodes = (
"88 544 LINE",
"158 625 LINE",
"88 705 LINE",
"17 625 LINE"
);
}
);
width = 175;
}
);
},
{
glyphname = gravecomb.case;
lastChange = "2018-11-01 11:48:23 +0000";
layers = (
{
anchors = (
{
name = _top;
position = "{137, 685}";
},
{
name = top;
position = "{92, 869}";
}
);
layerId = "ADA4184A-F967-4A63-B095-B719654E3BB1";
paths = (
{
closed = 1;
nodes = (
"146 869 LINE",
"20 869 LINE",
"149 740 LINE",
"164 740 LINE"
);
}
);
width = 184;
}
);
},
{
glyphname = acutecomb.case;
lastChange = "2018-11-01 11:48:42 +0000";
layers = (
{
anchors = (
{
name = _top;
position = "{97, 685}";
},
{
name = top;
position = "{97, 869}";
}
);
layerId = "ADA4184A-F967-4A63-B095-B719654E3BB1";
paths = (
{
closed = 1;
nodes = (
"199 869 LINE",
"68 869 LINE",
"55 740 LINE",
"70 740 LINE"
);
}
);
width = 213;
}
);
},
{
glyphname = circumflexcomb.case;
lastChange = "2018-11-01 11:15:08 +0000";
layers = (
{
anchors = (
{
name = _top;
position = "{108, 685}";
},
{
name = top;
position = "{108, 869}";
}
);
layerId = "ADA4184A-F967-4A63-B095-B719654E3BB1";
paths = (
{
closed = 1;
nodes = (
"19 740 LINE",
"108 810 LINE",
"197 740 LINE",
"212 740 LINE",
"149 869 LINE",
"66 869 LINE",
"4 740 LINE"
);
}
);
width = 213;
}
);
},
{
glyphname = ringcomb.case;
lastChange = "2018-11-01 16:28:28 +0000";
layers = (
{
anchors = (
{
name = _top;
position = "{114, 685}";
},
{
name = top;
position = "{114, 927}";
}
);
layerId = "ADA4184A-F967-4A63-B095-B719654E3BB1";
paths = (
{
closed = 1;
nodes = (
"16 775 OFFCURVE",
"60 731 OFFCURVE",
"114 731 CURVE SMOOTH",
"168 731 OFFCURVE",
"212 775 OFFCURVE",
"212 829 CURVE SMOOTH",
"212 883 OFFCURVE",
"168 927 OFFCURVE",
"114 927 CURVE SMOOTH",
"60 927 OFFCURVE",
"16 883 OFFCURVE",
"16 829 CURVE SMOOTH"
);
},
{
closed = 1;
nodes = (
"38 870 OFFCURVE",
"73 905 OFFCURVE",
"114 905 CURVE SMOOTH",
"155 905 OFFCURVE",
"190 870 OFFCURVE",
"190 829 CURVE SMOOTH",
"190 788 OFFCURVE",
"155 753 OFFCURVE",
"114 753 CURVE SMOOTH",
"73 753 OFFCURVE",
"38 788 OFFCURVE",
"38 829 CURVE SMOOTH"
);
}
);
width = 206;
}
);
},
